<svg width="1400" height="622" viewBox="0 0 1400 622" fill="none" xmlns="http://www.w3.org/2000/svg">
<path d="M109.921 618.743L106.64 466.337H86.1322L83.6712 618.743H0L30.3513 3.25654H163.241L193.592 618.743H109.921ZM86.9525 411.627H105.82L100.077 154.36L99.2571 72.9466H92.6946L91.8743 154.36L86.9525 411.627Z" fill="white"/>
<path d="M391.594 618.743H307.922L297.258 375.154H284.954V618.743H202.923V3.25654H300.54C357.961 3.25654 386.672 24.3155 386.672 66.4335V303.51C386.672 320.01 381.477 333.47 371.086 343.891L391.594 618.743ZM284.954 321.747H289.876C298.626 321.747 303.001 316.102 303.001 304.813V75.5518C303.001 65.1309 298.626 59.9204 289.876 59.9204H284.954V321.747Z" fill="white"/>
<path d="M486.826 562.08H542.607V618.743H404.796V3.25654H541.787V59.9204H486.826V272.247H540.146V326.957H486.826V562.08Z" fill="white"/>
<path d="M677.643 364.733L665.339 169.34V3.25654H739.166V618.743H663.698L623.503 244.892H617.761L628.425 451.357V618.743H554.597V3.25654H631.706L672.722 364.733H677.643Z" fill="white"/>
<path d="M858.13 618.743L854.849 466.337H834.341L831.88 618.743H748.209L778.56 3.25654H911.45L941.801 618.743H858.13ZM835.161 411.627H854.029L848.286 154.36L847.466 72.9466H840.904L840.083 154.36L835.161 411.627Z" fill="white"/>
<path d="M1125.63 3.25654H1210.12L1174.03 618.743H1052.63L1018.17 3.25654H1102.66L1110.05 395.344L1111.69 511.929H1118.25L1119.07 395.344L1125.63 3.25654Z" fill="white"/>
<path d="M1397.54 233.169H1316.33V62.5257C1316.33 56.4468 1313.32 53.4073 1307.31 53.4073C1301.29 53.4073 1298.28 56.2297 1298.28 61.8744V229.912C1298.28 242.504 1304.02 252.057 1315.51 258.57L1349.14 270.944C1366.64 277.892 1379.49 286.142 1387.7 295.694C1395.9 305.247 1400 318.924 1400 336.727V554.915C1400 576.625 1391.8 593.342 1375.39 605.066C1358.98 616.355 1336.56 622 1308.13 622C1279.14 622 1256.72 616.789 1240.86 606.369C1225 595.948 1217.07 580.75 1217.07 560.777V354.312H1298.28V559.474C1298.28 565.553 1301.56 568.593 1308.13 568.593C1313.59 568.593 1316.33 565.77 1316.33 560.126V355.615C1316.33 342.154 1310.04 332.385 1297.46 326.306L1269.57 315.234C1250.43 309.155 1236.49 300.905 1227.74 290.484C1219.53 279.629 1215.43 264.648 1215.43 245.543V65.1309C1215.43 44.289 1223.36 28.2234 1239.22 16.934C1255.63 5.64468 1278.87 0 1308.95 0C1368.01 0 1397.54 20.4077 1397.54 61.223V233.169Z" fill="white"/>
</svg>
