<svg width="676" height="232" viewBox="0 0 676 232" fill="none" xmlns="http://www.w3.org/2000/svg">
<path d="M103.397 201.171C124.176 206.01 134.566 220.242 134.566 243.868V353.172C134.566 369.682 129.158 382.633 118.341 392.027C107.809 401.42 93.1498 406.117 74.3631 406.117H0.924316V2.63017H76.071C93.1498 2.63017 106.813 6.89987 117.06 15.4393C127.307 23.694 132.431 35.7915 132.431 51.7317V157.62C132.431 180.107 122.753 193.913 103.397 199.036V201.171ZM65.8237 47.889H56.0034V180.677H65.8237C73.7938 180.677 77.7789 176.265 77.7789 167.44V61.979C77.7789 52.5856 73.7938 47.889 65.8237 47.889ZM65.3967 221.239H56.0034V360.858H64.9698C74.3631 360.858 79.0598 355.592 79.0598 345.06V236.61C79.0598 226.362 74.5054 221.239 65.3967 221.239Z" fill="#D0D8DA"/>
<path d="M206.11 358.723H254.784V406.117H151.031V2.63017H253.931V50.0238H206.11V174.699H251.369V220.812H206.11V358.723Z" fill="#D0D8DA"/>
<path d="M326.195 358.723H374.87V406.117H271.116V2.63017H374.016V50.0238H326.195V174.699H371.454V220.812H326.195V358.723Z" fill="#D0D8DA"/>
<path d="M389.493 69.6644C389.493 23.267 411.838 0.0683594 456.528 0.0683594C501.217 0.0683594 523.562 23.267 523.562 69.6644V339.082C523.562 385.764 501.075 409.105 456.101 409.105C411.696 409.105 389.493 385.764 389.493 339.082V69.6644ZM467.629 350.184V58.9902C467.629 50.1661 463.928 45.7541 456.528 45.7541C449.127 45.7541 445.426 50.1661 445.426 58.9902V350.184C445.426 354.169 446.423 357.442 448.415 360.004C450.692 362.281 453.397 363.42 456.528 363.42C463.928 363.42 467.629 359.008 467.629 350.184Z" fill="#D0D8DA"/>
<path d="M672.764 147.373H618.112V56.8553C618.112 48.8852 614.554 44.9002 607.438 44.9002C600.322 44.9002 596.764 48.4583 596.764 55.5744V143.957C596.764 153.35 601.034 160.467 609.573 165.306L634.764 174.699C648.427 180.107 658.532 187.081 665.079 195.62C671.911 203.875 675.326 216.257 675.326 232.767V347.195C675.326 366.551 669.349 381.779 657.394 392.88C645.723 403.697 629.498 409.105 608.719 409.105C587.37 409.105 571.003 404.409 559.617 395.015C548.232 385.337 542.539 371.674 542.539 354.026V242.587H597.191V351.037C597.191 359.292 600.891 363.42 608.292 363.42C615.693 363.42 619.393 359.577 619.393 351.891V244.722C619.393 234.19 614.412 226.505 604.449 221.666L582.674 213.553C568.157 208.714 557.625 201.74 551.078 192.632C544.531 183.238 541.258 170.145 541.258 153.35V58.5632C541.258 40.6305 546.951 26.3982 558.337 15.8662C569.722 5.33432 586.374 0.0683594 608.292 0.0683594C629.071 0.0683594 645.011 4.90735 656.113 14.5853C667.214 23.9787 672.764 37.2147 672.764 54.2935V147.373Z" fill="#D0D8DA"/>
</svg>
