<svg width="1388" height="632" viewBox="0 0 1388 632" fill="none" xmlns="http://www.w3.org/2000/svg">
<path d="M113.655 311.891C136.562 316.736 148.016 332.375 148.016 358.806V568.275C148.016 588.099 141.849 603.077 129.514 613.209C117.62 622.9 100.88 627.746 79.2942 627.746H0V3.30392H81.2766C124.888 3.30392 146.694 22.4667 146.694 60.7922V263.653C146.694 289.204 135.681 304.402 113.655 309.247V311.891ZM70.704 58.8099H66.0785V288.102H71.3648C77.5321 288.102 80.6158 283.697 80.6158 274.887V72.6864C80.6158 63.4354 77.3119 58.8099 70.704 58.8099ZM71.3648 335.679H66.0785V572.24H71.3648C78.4132 572.24 81.9374 567.615 81.9374 558.364V350.877C81.9374 340.745 78.4132 335.679 71.3648 335.679Z" fill="white"/>
<path d="M227.403 570.258H272.336V627.746H161.325V3.30392H271.676V60.7922H227.403V276.208H270.354V331.714H227.403V570.258Z" fill="white"/>
<path d="M348.074 570.258H393.007V627.746H281.995V3.30392H392.346V60.7922H348.074V276.208H391.025V331.714H348.074V570.258Z" fill="white"/>
<path d="M402.005 74.6688C402.005 24.8896 426.675 0 476.013 0C525.352 0 550.021 24.8896 550.021 74.6688V556.381C550.021 606.16 525.352 631.05 476.013 631.05C426.675 631.05 402.005 606.16 402.005 556.381V74.6688ZM483.282 566.954V64.0962C483.282 57.9288 480.859 54.8452 476.013 54.8452C471.167 54.8452 468.745 57.9288 468.745 64.0962V566.954C468.745 573.121 471.167 576.205 476.013 576.205C480.859 576.205 483.282 573.121 483.282 566.954Z" fill="white"/>
<path d="M709.993 236.561H644.575V63.4354C644.575 57.2681 642.152 54.1844 637.307 54.1844C632.461 54.1844 630.038 57.0478 630.038 62.7746V233.257C630.038 246.032 634.664 255.724 643.915 262.332L671.007 274.887C685.104 281.935 695.456 290.305 702.064 299.997C708.672 309.688 711.975 323.565 711.975 341.626V562.989C711.975 585.015 705.368 601.975 692.152 613.87C678.936 625.323 660.875 631.05 637.968 631.05C614.62 631.05 596.558 625.764 583.783 615.191C571.008 604.618 564.62 589.2 564.62 568.936V359.467H630.038V567.615C630.038 573.782 632.681 576.866 637.968 576.866C642.373 576.866 644.575 574.002 644.575 568.275V360.789C644.575 347.133 639.509 337.221 629.377 331.053L606.911 319.82C591.492 313.653 580.259 305.283 573.211 294.71C566.603 283.697 563.299 268.499 563.299 249.116V66.0785C563.299 44.9334 569.686 28.634 582.462 17.1804C595.677 5.72681 614.4 0 638.628 0C686.205 0 709.993 20.7046 709.993 62.1138V236.561Z" fill="white"/>
<path d="M925.337 573.562V627.746H783.929V592.724C783.929 557.042 787.893 520.258 795.823 482.373C803.752 444.048 812.563 411.669 822.254 385.238C831.946 358.366 840.756 330.172 848.686 300.657C856.615 270.702 860.58 245.592 860.58 225.328V62.1138C860.58 55.9465 858.157 52.8628 853.311 52.8628C848.465 52.8628 846.043 55.9465 846.043 62.1138V241.847H784.589V62.7746C784.589 42.5105 790.537 27.0922 802.431 16.5196C814.765 5.94706 832.386 0.660777 855.294 0.660777C901.108 0.660777 924.015 20.2641 924.015 59.4707V205.504C924.015 242.949 918.068 285.019 906.174 331.714C894.72 377.969 883.046 422.682 871.152 465.854C859.699 508.584 853.972 544.487 853.972 573.562H925.337Z" fill="white"/>
<path d="M997.811 299.336C1005.74 280.393 1018.3 270.922 1035.48 270.922C1059.26 270.922 1071.16 287.882 1071.16 321.802V562.989C1071.16 585.015 1065.21 601.755 1053.32 613.209C1041.42 624.662 1024.24 630.389 1001.78 630.389C955.081 630.389 931.733 609.244 931.733 566.954V346.251H993.186V568.936C993.186 575.103 995.609 578.187 1000.45 578.187C1005.3 578.187 1007.72 575.103 1007.72 568.936V330.393C1007.72 324.225 1005.3 321.142 1000.45 321.142C996.049 321.142 993.186 325.547 991.864 334.357L932.394 324.446L943.627 3.30392H1070.5L1067.19 57.4883H1003.1L994.508 299.336H997.811Z" fill="white"/>
<path d="M1199.75 1.98237C1192.71 179.954 1167.82 319.82 1125.08 421.581L1126.41 424.885H1154.16V386.559C1179.27 323.565 1193.81 256.164 1197.77 184.359H1217.59V424.224H1240.72V478.409H1217.59V627.085H1154.16V478.409H1076.19V430.171C1096.89 368.938 1110.99 304.181 1118.48 235.9C1126.41 167.179 1131.03 89.206 1132.35 1.98237H1199.75Z" fill="white"/>
<path d="M1278.34 289.424C1257.64 285.459 1247.28 268.499 1247.28 238.543V58.1491C1247.28 40.0876 1253.23 25.9909 1265.12 15.8588C1277.46 5.7268 1294.64 0.660777 1316.67 0.660777C1338.69 0.660777 1355.65 5.7268 1367.55 15.8588C1379.88 25.9909 1386.05 40.0876 1386.05 58.1491V238.543C1386.05 254.402 1383.63 266.296 1378.78 274.226C1374.37 282.155 1366 287.221 1353.67 289.424V291.406C1376.14 296.252 1387.37 311.67 1387.37 337.661V570.918C1387.37 589.861 1381.2 604.618 1368.87 615.191C1356.97 625.323 1339.57 630.389 1316.67 630.389C1293.76 630.389 1276.36 625.323 1264.46 615.191C1252.57 604.618 1246.62 589.861 1246.62 570.918V337.661C1246.62 311.67 1257.2 296.252 1278.34 291.406V289.424ZM1323.93 255.063V62.1138C1323.93 55.9465 1321.51 52.8628 1316.67 52.8628C1312.26 52.8628 1310.06 55.9465 1310.06 62.1138V255.063C1310.06 264.314 1312.26 268.94 1316.67 268.94C1321.51 268.94 1323.93 264.314 1323.93 255.063ZM1323.93 568.275V327.749C1323.93 318.498 1321.51 313.873 1316.67 313.873C1312.26 313.873 1310.06 318.498 1310.06 327.749V568.275C1310.06 574.443 1312.26 577.526 1316.67 577.526C1321.51 577.526 1323.93 574.443 1323.93 568.275Z" fill="white"/>
</svg>
