<svg width="676" height="410" viewBox="0 0 676 410" fill="none" xmlns="http://www.w3.org/2000/svg">
<path d="M103.397 201.171C124.176 206.01 134.565 220.242 134.565 243.868V353.172C134.565 369.682 129.157 382.633 118.34 392.027C107.809 401.42 93.1493 406.117 74.3626 406.117H0.923828V2.63017H76.0705C93.1493 2.63017 106.812 6.89987 117.06 15.4393C127.307 23.694 132.43 35.7915 132.43 51.7317V157.62C132.43 180.107 122.753 193.913 103.397 199.036V201.171ZM65.8232 47.889H56.0029V180.677H65.8232C73.7933 180.677 77.7784 176.265 77.7784 167.44V61.979C77.7784 52.5856 73.7933 47.889 65.8232 47.889ZM65.3963 221.239H56.0029V360.858H64.9693C74.3626 360.858 79.0593 355.592 79.0593 345.06V236.61C79.0593 226.362 74.5049 221.239 65.3963 221.239Z" fill="#D0D8DA"/>
<path d="M206.109 358.723H254.784V406.117H151.03V2.63017H253.93V50.0238H206.109V174.699H251.368V220.812H206.109V358.723Z" fill="#D0D8DA"/>
<path d="M326.195 358.723H374.869V406.117H271.116V2.63017H374.015V50.0238H326.195V174.699H371.453V220.812H326.195V358.723Z" fill="#D0D8DA"/>
<path d="M389.493 69.6644C389.493 23.267 411.838 0.0683594 456.527 0.0683594C501.217 0.0683594 523.561 23.267 523.561 69.6644V339.082C523.561 385.764 501.074 409.105 456.1 409.105C411.695 409.105 389.493 385.764 389.493 339.082V69.6644ZM467.628 350.183V58.9902C467.628 50.1661 463.928 45.7541 456.527 45.7541C449.126 45.7541 445.426 50.1661 445.426 58.9902V350.183C445.426 354.169 446.422 357.442 448.415 360.004C450.692 362.281 453.396 363.42 456.527 363.42C463.928 363.42 467.628 359.008 467.628 350.183Z" fill="#D0D8DA"/>
<path d="M672.764 147.373H618.112V56.8553C618.112 48.8852 614.554 44.9002 607.438 44.9002C600.321 44.9002 596.763 48.4583 596.763 55.5744V143.957C596.763 153.35 601.033 160.467 609.572 165.306L634.764 174.699C648.427 180.107 658.532 187.081 665.079 195.62C671.91 203.875 675.326 216.257 675.326 232.767V347.195C675.326 366.551 669.348 381.779 657.393 392.88C645.723 403.697 629.498 409.105 608.718 409.105C587.37 409.105 571.003 404.409 559.617 395.015C548.231 385.337 542.538 371.674 542.538 354.026V242.587H597.19V351.037C597.19 359.292 600.891 363.42 608.292 363.42C615.692 363.42 619.393 359.577 619.393 351.891V244.722C619.393 234.19 614.411 226.505 604.449 221.666L582.673 213.553C568.156 208.714 557.624 201.74 551.078 192.632C544.531 183.238 541.257 170.145 541.257 153.35V58.5632C541.257 40.6305 546.95 26.3982 558.336 15.8662C569.722 5.33432 586.374 0.0683594 608.292 0.0683594C629.071 0.0683594 645.011 4.90735 656.112 14.5853C667.213 23.9787 672.764 37.2147 672.764 54.2935V147.373Z" fill="#D0D8DA"/>
</svg>
