<svg width="1408" height="627" viewBox="0 0 1408 627" fill="none" xmlns="http://www.w3.org/2000/svg">
<path d="M128.144 308.264C154.129 315.682 167.122 337.498 167.122 373.713V541.262C167.122 566.569 160.359 586.422 146.832 600.82C133.662 615.219 115.33 622.419 91.8369 622.419H0V3.92692H93.9726C115.33 3.92692 132.416 10.4718 145.23 23.5616C158.045 36.215 164.452 54.7589 164.452 79.1931V241.506C164.452 275.976 152.35 297.138 128.144 304.992V308.264ZM81.1582 73.3027H68.8777V276.849H81.1582C91.125 276.849 96.1084 270.086 96.1084 256.56V94.9008C96.1084 80.5021 91.125 73.3027 81.1582 73.3027ZM80.6242 339.025H68.8777V553.043H80.0903C91.8369 553.043 97.7102 544.971 97.7102 528.827V362.587C97.7102 346.879 92.0149 339.025 80.6242 339.025Z" fill="white"/>
<path d="M256.589 549.77H317.458V622.419H187.712V3.92692H316.39V76.5751H256.589V267.686H313.186V338.371H256.589V549.77Z" fill="white"/>
<path d="M406.759 549.77H467.627V622.419H337.881V3.92692H466.559V76.5751H406.759V267.686H463.356V338.371H406.759V549.77Z" fill="white"/>
<path d="M485.915 106.682C485.915 35.5605 513.857 0 569.742 0C625.628 0 653.57 35.5605 653.57 106.682V519.664C653.57 591.221 625.45 627 569.208 627C513.679 627 485.915 591.221 485.915 519.664V106.682ZM583.625 536.681V90.3194C583.625 76.7933 578.997 70.0303 569.742 70.0303C560.487 70.0303 555.86 76.7933 555.86 90.3194V536.681C555.86 542.789 557.106 547.807 559.598 551.734C562.445 555.224 565.827 556.97 569.742 556.97C578.997 556.97 583.625 550.207 583.625 536.681Z" fill="white"/>
<path d="M840.151 225.799H771.808V87.047C771.808 74.8299 767.358 68.7213 758.459 68.7213C749.56 68.7213 745.111 74.1754 745.111 85.0835V220.563C745.111 234.961 750.45 245.87 761.129 253.287L792.631 267.686C809.717 275.976 822.354 286.666 830.541 299.756C839.084 312.409 843.355 331.389 843.355 356.696V532.099C843.355 561.769 835.88 585.113 820.93 602.129C806.336 618.71 786.046 627 760.061 627C733.364 627 712.897 619.801 698.659 605.402C684.42 590.567 677.301 569.623 677.301 542.571V371.749H745.645V537.99C745.645 550.643 750.272 556.97 759.527 556.97C768.782 556.97 773.409 551.079 773.409 539.299V375.022C773.409 358.878 767.18 347.097 754.722 339.68L727.491 327.244C709.337 319.827 696.167 309.137 687.98 295.174C679.793 280.776 675.699 260.705 675.699 234.961V89.6649C675.699 62.1764 682.818 40.3601 697.057 24.2161C711.295 8.07202 732.119 0 759.527 0C785.512 0 805.446 7.41753 819.328 22.2526C833.21 36.6513 840.151 56.9405 840.151 83.12V225.799Z" fill="white"/>
<path d="M1043.35 352.769L1036.41 171.476V3.92692H1100.48V622.419H1034.8L994.759 255.905H990.488L996.895 441.125V622.419H932.823V3.92692H1001.17L1039.61 352.769H1043.35Z" fill="white"/>
<path d="M1252.79 76.5751H1196.19V268.995L1249.05 268.34V339.025H1196.19V622.419H1127.31V3.92692H1252.79V76.5751Z" fill="white"/>
<path d="M1408 3.92692V76.5751H1365.82V622.419H1296.94V77.2296H1254.23V4.5814L1408 3.92692Z" fill="white"/>
</svg>
