<svg width="19" height="14" viewBox="0 0 19 14" fill="none" xmlns="http://www.w3.org/2000/svg">
<path d="M16.085 1.16025C14.8736 0.622946 13.5755 0.227321 12.2175 0.000994415C12.1927 -0.00346082 12.1677 0.00723172 12.1558 0.0295079C11.9889 0.316425 11.8036 0.691557 11.6745 0.985602C10.2142 0.774424 8.76123 0.774424 7.3304 0.985602C7.20041 0.684428 7.00864 0.316425 6.84085 0.0295079C6.82794 0.00812277 6.80306 -0.00256978 6.77909 0.000994415C5.42201 0.227321 4.12302 0.622946 2.9116 1.16025C2.90146 1.1647 2.89224 1.17183 2.88578 1.18163C0.422389 4.7387 -0.252481 8.20844 0.0784916 11.6354C0.0803355 11.6523 0.0895565 11.6684 0.103385 11.6782C1.72875 12.8321 3.30342 13.5324 4.84857 13.9967C4.87347 14.0038 4.89928 13.9949 4.91495 13.9753C5.28003 13.4932 5.6064 12.9845 5.88574 12.4489C5.90234 12.4177 5.88573 12.3803 5.85255 12.3678C5.33534 12.1781 4.84395 11.9473 4.37008 11.6853C4.33228 11.6639 4.32953 11.6122 4.36364 11.5873C4.46321 11.5151 4.56277 11.4403 4.65773 11.3645C4.67525 11.3503 4.69921 11.3476 4.71949 11.3565C7.82916 12.7287 11.196 12.7287 14.2688 11.3565C14.2891 11.3467 14.3131 11.3503 14.3306 11.3636C14.4256 11.4394 14.5251 11.5151 14.6256 11.5873C14.6597 11.6122 14.6579 11.6639 14.6201 11.6853C14.1472 11.9526 13.6548 12.1789 13.1367 12.3678C13.1026 12.3803 13.0878 12.4177 13.1044 12.4498C13.3902 12.9836 13.7157 13.4923 14.0743 13.9753C14.0891 13.9958 14.1158 14.0047 14.1407 13.9976C15.6932 13.5333 17.2679 12.833 18.8932 11.6791C18.9071 11.6693 18.9163 11.6532 18.9181 11.6372C19.3146 7.67559 18.2543 4.23436 16.109 1.18341C16.1035 1.17361 16.0952 1.16559 16.0841 1.16114L16.085 1.16025ZM6.34853 9.54857C5.41185 9.54857 4.64114 8.71811 4.64114 7.69787C4.64114 6.67762 5.39802 5.84716 6.34853 5.84716C7.29904 5.84716 8.07162 6.68564 8.05595 7.69787C8.05595 8.71811 7.29904 9.54857 6.34853 9.54857ZM12.6628 9.54857C11.7261 9.54857 10.9554 8.71811 10.9554 7.69787C10.9554 6.67762 11.7123 5.84716 12.6628 5.84716C13.6133 5.84716 14.3859 6.68564 14.3702 7.69787C14.3702 8.71811 13.6216 9.54857 12.6628 9.54857Z" fill="white"/>
</svg>
