<svg width="1409" height="550" viewBox="0 0 1409 550" fill="none" xmlns="http://www.w3.org/2000/svg">
<path opacity="0.5" d="M1110.76 549.095C1111.61 548.581 1112.51 548.156 1113.45 547.827C1175.6 532.507 1235.76 511.751 1292.38 481.779C1317.65 468.409 1341.48 452.981 1361.44 432.359C1374.51 418.868 1384.91 403.764 1389.02 385.139C1391.85 372.322 1390.71 359.72 1386.45 347.234C1386.06 347.376 1385.67 347.396 1385.51 347.592C1366.16 370.696 1341.72 387.243 1315.06 400.883C1279.76 418.989 1242.31 431.408 1203.74 440.373C1179.33 446.046 1154.57 450.188 1129.92 454.951C1127.67 455.307 1125.4 455.488 1123.13 455.491C1120.58 455.641 1118.02 455.413 1115.54 454.816L1119.55 453.98C1184.04 440.454 1246.52 421.033 1305.36 391.244C1324.62 381.482 1343.1 370.332 1359 355.68C1366.02 349.204 1371.98 341.594 1378.43 334.518C1379.68 333.169 1379.62 331.975 1378.66 330.342C1369.73 314.987 1357.41 301.816 1342.61 291.81C1342.11 291.552 1341.55 291.408 1340.98 291.388C1340.42 291.368 1339.85 291.473 1339.33 291.696C1300.19 311.549 1258.15 322.43 1215.18 329.931C1186.55 334.93 1157.67 338.552 1128.86 342.505C1123.51 343.234 1117.93 342.606 1112.34 342.242C1113.18 341.986 1114 341.669 1114.85 341.487C1154.95 333.021 1195 324.339 1234.45 313.201C1264.5 304.715 1294.18 295.163 1322.68 282.299C1323.8 281.793 1324.92 281.253 1326.54 280.498C1324.6 279.216 1322.98 278.11 1321.33 277.051C1289.23 256.543 1254.79 240.623 1219.09 227.314C1217.59 226.833 1216 226.697 1214.44 226.916C1187.66 229.931 1160.92 233.102 1134.14 236.009C1127.6 236.717 1120.97 236.603 1114.38 236.839C1114.1 236.848 1113.82 236.791 1113.57 236.674C1113.31 236.557 1113.09 236.382 1112.91 236.164L1199.4 221V220.163C1191.99 217.735 1184.62 215.212 1177.18 212.891C1124.76 196.539 1071.32 184.444 1017.08 175.749C985.66 170.712 954.162 166.302 922.582 162.52C897.539 159.485 872.372 157.245 847.198 155.491C813.282 153.13 779.312 151.498 745.356 149.703C712.253 147.949 679.157 148.766 646.088 150.378C619.849 151.673 593.59 152.881 567.405 154.938C537.827 157.272 508.296 160.247 478.799 163.424C439.474 167.654 400.396 173.685 361.542 181.038C310.731 190.657 260.588 202.84 211.62 219.489C210.818 219.729 210.139 220.262 209.722 220.979L296.17 236.137V236.778C292.188 236.778 288.179 237.082 284.232 236.724C267.588 235.22 250.952 233.655 234.335 231.833C220.895 230.363 207.502 228.461 194.041 226.848C192.696 226.672 191.329 226.806 190.046 227.24C152.21 241.406 115.795 258.358 82.0979 280.68C81.6335 280.99 81.1965 281.354 80.1106 282.144C148.242 313.39 220.021 330.201 293.144 342.465C293.144 342.741 293.083 343.018 293.056 343.288C285.263 342.613 277.416 342.39 269.699 341.264C241.827 337.216 213.881 333.452 186.166 328.487C151.459 322.268 117.489 313.154 85.0892 298.947C79.8988 296.667 74.845 294.023 69.6955 291.716C68.7735 291.298 67.1617 291.237 66.4105 291.763C51.5767 302.253 38.6825 314.625 28.7387 329.857C27.3181 332.036 27.523 333.479 28.9299 335.483C39.987 351.281 54.5475 363.39 70.4945 373.988C100.21 393.74 132.718 407.899 166.183 420.048C205.699 434.397 246.089 445.831 287.421 453.683C289.279 454.033 291.137 454.357 292.987 454.688L292.885 455.774C287.551 455.403 282.169 455.369 276.897 454.6C243.617 449.736 210.466 444.178 177.869 435.779C143.899 427.01 110.891 415.785 80.3633 398.306C57.3887 385.152 37.0639 368.989 21.356 347.585C21.1648 347.315 21.0418 346.998 20.5843 346.141C17.5941 353.279 15.9485 360.896 15.7285 368.618C15.2026 386.454 21.7111 402.01 31.9964 416.243C44.7881 433.958 61.3156 447.807 79.2159 460.152C112.414 483.04 148.713 500.067 186.208 514.719C219.611 527.779 253.622 539.044 288.76 546.748C289.906 546.922 290.995 547.356 291.942 548.016C291.15 548.016 290.358 548.057 289.566 548.016C251.102 545.702 214.386 535.449 178.115 523.542C139.869 510.988 103.44 494.637 70.4604 471.438C48.8722 456.253 29.8314 438.532 15.8719 416.021C8.22276 403.696 1.98054 390.771 0.40292 376.113C0.317971 375.786 0.182052 375.474 0 375.189V359.673C1.74836 349.271 4.44605 339.166 9.32234 329.708C9.55087 328.983 9.47965 328.197 9.12426 327.523C4.82165 318.875 1.4342 309.936 0 300.357V286.866C1.71422 280.876 2.86841 274.649 5.2929 268.956C8.12716 262.311 12.0746 256.139 15.7216 249.393C8.89208 240.178 2.39035 230.14 0.0136724 218.092V207.299C2.124 197.855 6.01005 189.2 12.4298 181.82C15.8446 177.914 19.5052 174.245 23.1795 170.352C13.4406 161.583 4.05676 152.348 0.0136724 139.234V130.464C4.17969 115.623 15.1343 106.53 27.6733 98.9951C45.8126 88.1006 65.5295 80.5048 85.3693 73.3003C129.515 57.2587 174.966 45.7572 221.195 37.5812C258.639 30.9524 296.241 25.1758 333.999 20.2513C366.781 16.0217 399.781 13.303 432.733 10.49C497.464 4.96517 562.351 2.48955 627.293 0.971744C683.371 -0.336942 739.455 -0.417892 795.519 1.30903C840.193 2.68968 884.847 4.66171 929.48 7.22512C964.092 9.24886 998.67 12.1158 1033.17 15.4887C1092.12 21.2631 1150.74 29.4121 1208.69 41.6152C1257.76 51.9431 1306.07 64.8276 1352.22 84.64C1364.32 89.8343 1376.34 95.1904 1387.12 102.854C1393.45 107.34 1399.26 112.352 1403.56 118.841C1410.39 129.169 1411.14 139.827 1403.8 150.007C1399.09 156.543 1393.23 162.277 1387.87 168.355C1387.18 169.097 1386.4 169.705 1385.65 170.379C1413.99 195.973 1416.33 220.501 1392.93 249.885C1395.31 253.71 1397.88 257.407 1400.02 261.353C1411.56 282.609 1412.19 303.987 1400.23 325.317C1399.06 327.415 1399.05 328.987 1400.12 331.152C1413.22 357.919 1411.1 384.1 1396.98 409.902C1384.07 433.513 1365.68 452.219 1344.09 468.078C1314.17 490.063 1280.83 505.565 1245.91 517.943C1204.62 532.582 1162.26 542.997 1118.69 548.502C1118.04 548.634 1117.39 548.819 1116.77 549.055L1110.76 549.095ZM1376.43 162.696C1377.9 161.401 1379.84 159.856 1381.6 158.129C1394.82 145.109 1395.38 132.205 1383.06 118.369C1375.55 109.923 1366.58 102.968 1356.2 98.5094C1340.09 91.5747 1323.78 84.9097 1307.15 79.331C1259.04 63.195 1209.4 53.2314 1159.39 44.9274C1111.73 37.0348 1063.83 31.0378 1015.67 26.9363C972.643 23.2127 929.535 19.7453 886.393 17.6271C831.982 14.9625 777.509 12.9388 723.044 12.2305C680.079 11.684 637.053 12.9522 594.102 14.551C547.852 16.2779 501.639 18.7514 455.462 21.9714C418.733 24.4943 382.065 28.1506 345.445 31.9822C291.738 37.5947 238.399 45.6762 185.634 56.9889C147.627 65.1379 110.12 75.0002 73.9366 89.2945C60.742 94.509 47.5746 99.7775 36.3742 108.81C30.5349 113.532 24.921 118.43 21.0896 124.96C17.8524 130.464 16.1997 136.306 17.8251 142.694C19.9627 151.106 25.6927 156.962 32.2422 162.17C32.7681 162.581 34.2912 162.17 35.1312 161.711C42.0769 157.663 48.8381 153.285 55.8725 149.393C95.238 127.631 137.212 112.143 180.355 99.5886C248.008 79.9111 317.191 67.6675 387.078 59.2892C422.503 55.0461 458.044 51.3697 493.619 49.0424C543.311 45.7954 593.059 43.3872 642.865 41.8176C715.777 39.4971 788.682 41.1768 861.485 45.5548C899.84 47.8619 938.147 50.9514 976.427 54.2704C1014.71 57.5893 1052.75 62.8645 1090.66 69.1111C1134.73 76.3359 1178.39 85.3887 1221.36 97.5109C1262.84 109.215 1303.37 123.442 1341.64 143.315C1353.31 149.359 1364.6 156.105 1376.45 162.696H1376.43ZM1364.13 171.762C1360.72 169.401 1358.4 167.607 1355.94 166.129C1329.92 150.688 1302.2 138.89 1273.6 129.027C1197.25 102.719 1118.18 88.5525 1038.34 78.0223C1011.52 74.4875 984.608 71.6475 957.686 69.0639C930.764 66.4802 903.767 64.3418 876.77 62.5002C853.518 60.8992 830.236 59.676 806.924 58.8305C772.483 57.5961 738.014 55.9298 703.566 56.1322C638.034 56.4605 572.591 59.215 507.237 64.3958C474.455 67.0065 441.673 69.5294 409.103 73.4757C370.209 78.1977 331.41 83.8911 292.721 90.0838C250.659 96.8574 209.092 106.347 168.287 118.49C132.09 129.23 96.7542 142.101 63.5626 160.213C57.5253 163.505 51.6997 167.175 45.3824 170.905C46.5502 171.708 46.9736 172.066 47.4312 172.329C61.5615 180.154 76.5592 185.989 91.8573 191.089C93.1072 191.507 94.9512 190.974 96.2488 190.333C106.527 185.301 116.601 179.85 126.982 175.061C195.96 143.308 268.77 123.981 343.294 110.517C374.908 104.803 406.768 100.23 438.648 96.1349C466.813 92.5191 495.142 89.9488 523.45 87.5608C546.561 85.609 569.714 84.188 592.907 83.2976C630.756 81.908 668.633 80.4036 706.496 80.3698C770.55 80.3091 834.522 83.1558 898.365 88.5659C939.267 92.0333 980.019 96.661 1020.61 102.82C1063.64 109.37 1106.31 117.661 1148.44 128.562C1201.54 142.31 1253.22 159.889 1302.15 184.775C1306.76 187.116 1311.4 190.846 1316.15 191.042C1321.09 191.237 1326.27 188.148 1331.17 186.09C1341.93 181.57 1352.59 176.815 1364.18 171.762H1364.13ZM1293.27 198.745C1291.28 197.747 1290.14 197.14 1288.97 196.593C1248.68 177.752 1206.63 163.849 1163.67 152.449C1110.15 138.249 1055.76 128.164 1000.96 120.555C975.867 117.067 950.672 114.207 925.471 111.549C903.2 109.195 880.868 107.306 858.542 105.606C838.36 104.075 818.152 102.752 797.936 101.923C766.227 100.621 734.49 98.8062 702.774 99.0018C643.165 99.3661 583.639 102.604 524.236 107.636C476.989 111.63 429.913 116.979 383.062 124.258C338.021 131.26 293.343 139.942 249.251 151.43C204.797 163.02 161.293 177.28 119.667 196.762C118.615 197.254 117.618 197.841 116.082 198.658C117.68 199.17 118.615 199.528 119.578 199.771C135.969 203.899 152.36 208.095 168.792 212.041C171.066 212.469 173.415 212.259 175.574 211.434C191.336 205.68 206.881 199.292 222.759 193.895C297.529 168.463 374.676 153.319 452.915 143.538C485.164 139.49 517.543 136.117 549.963 134.019C594.102 131.179 638.33 129.297 682.551 128.083C726.458 126.862 770.352 128.758 814.218 130.984C863.643 133.48 912.953 137.439 961.941 144.313C995.447 149.013 1028.83 154.58 1062.08 161.016C1121.17 172.484 1178.86 188.856 1234.48 211.9C1236.04 212.476 1237.73 212.594 1239.36 212.237C1248.56 210.213 1257.74 208.095 1266.88 205.801C1275.48 203.683 1283.95 201.302 1293.32 198.752L1293.27 198.745ZM153.801 220.75C136.277 216.325 118.581 211.819 100.845 207.468C99.6157 207.171 97.8947 207.717 96.7473 208.419C84.1536 216.033 71.6032 223.718 59.0961 231.476C50.0469 237.109 42.8486 244.704 36.0737 253.062C44.073 260.458 52.9419 266.879 62.4903 272.187C63.2552 272.619 65.0582 271.991 65.987 271.323C84.8376 257.775 104.68 245.626 125.349 234.977C134.938 230.053 144.609 225.364 153.849 220.757L153.801 220.75ZM1254.72 220.689C1255.84 221.229 1256.83 221.735 1257.84 222.2C1284.73 234.667 1310.59 248.921 1335.02 265.67C1337.98 267.694 1341.04 271.067 1344.05 271.067C1347.3 271.067 1350.66 267.984 1353.75 265.9C1360.08 261.623 1366.26 257.13 1373.33 252.111C1366.44 245.77 1360.76 239.328 1353.92 234.498C1342.2 226.221 1329.66 219.097 1317.67 211.198C1312.45 207.758 1307.66 207.366 1301.53 209.1C1286.19 213.444 1270.54 216.858 1254.76 220.696L1254.72 220.689ZM78.0549 200.661L35.78 180.424C15.8787 199.312 11.4736 221.573 24.9893 239.719C40.9021 224.096 59.6082 212.257 78.089 200.668L78.0549 200.661ZM1330.97 200.661C1349.29 212.129 1367.8 223.887 1383.56 239.24C1389.09 233.486 1392.69 221.701 1391.7 213.424C1390.04 199.602 1382.22 189.261 1373.37 180.37L1330.97 200.661ZM28.3221 263.748C18.7607 279.209 14.2328 295.494 18.6856 312.891L51.2967 281.408L28.3221 263.748ZM1389.26 311.643C1393.54 294.704 1389.69 278.838 1380.53 263.917L1357.69 281.456L1389.26 311.643Z" fill="#D0D8DA"/>
</svg>
