<svg width="897" height="379" viewBox="0 0 897 379" fill="none" xmlns="http://www.w3.org/2000/svg">
<g filter="url(#filter0_d_1497_754)">
<mask id="path-1-outside-1_1497_754" maskUnits="userSpaceOnUse" x="32.0898" y="33.959" width="833" height="315" fill="black">
<rect fill="white" x="32.0898" y="33.959" width="833" height="315"/>
<path d="M104.731 344.497L101.718 274.094H81.2957L78.2826 344.497H34.0898L57.5254 37.9056H126.493L149.259 344.497H104.731ZM82.9697 239.055H100.379L95.3571 121.285L93.0135 79.1089H90.0004L87.9916 121.285L82.9697 239.055Z"/>
<path d="M264.36 344.497H220.502L212.132 228.673H200.414V344.497H157.226V37.9056H212.467C228.314 37.9056 240.366 41.7988 248.625 49.5853C256.883 57.1554 261.012 68.1862 261.012 82.6776V178.71C261.012 191.688 257.441 201.962 250.299 209.532L264.36 344.497ZM200.749 194.932H205.771C213.36 194.932 217.154 190.066 217.154 180.333V87.8686C217.154 78.5681 213.36 73.9179 205.771 73.9179H200.749V194.932Z"/>
<path d="M319.75 308.484H357.916V344.497H276.562V37.9056H357.247V73.9179H319.75V168.653H355.238V203.692H319.75V308.484Z"/>
<path d="M440.025 210.829L435.672 120.961V37.9056H475.847V344.497H434.668L409.558 162.813H406.88L410.897 254.628V344.497H370.722V37.9056H413.576L437.681 210.829H440.025Z"/>
<path d="M554.61 344.497L551.597 274.094H531.175L528.162 344.497H483.969L507.404 37.9056H576.372L599.138 344.497H554.61ZM532.849 239.055H550.258L545.236 121.285L542.892 79.1089H539.879L537.871 121.285L532.849 239.055Z"/>
<path d="M708.212 37.9056H752.405L728.97 344.497H663.685L640.249 37.9056H684.777L692.812 228.025L695.49 286.423H698.503L701.182 228.025L708.212 37.9056Z"/>
<path d="M860.905 147.889H818.051V79.1089C818.051 73.0527 815.261 70.0247 809.681 70.0247C804.101 70.0247 801.311 72.7283 801.311 78.1355V145.294C801.311 152.431 804.659 157.838 811.355 161.515L831.108 168.653C841.821 172.762 849.745 178.062 854.878 184.55C860.235 190.823 862.913 200.231 862.913 212.776V299.725C862.913 314.432 858.226 326.004 848.852 334.439C839.701 342.658 826.979 346.768 810.686 346.768C793.946 346.768 781.112 343.199 772.184 336.061C763.256 328.708 758.792 318.326 758.792 304.916V220.238H801.646V302.645C801.646 308.917 804.548 312.053 810.351 312.053C816.154 312.053 819.055 309.133 819.055 303.293V221.86C819.055 213.858 815.149 208.018 807.338 204.341L790.263 198.177C778.88 194.5 770.622 189.2 765.488 182.279C760.355 175.142 757.788 165.192 757.788 152.431V80.4066C757.788 66.7803 762.252 55.9658 771.18 47.9631C780.108 39.9604 793.165 35.959 810.351 35.959C826.644 35.959 839.143 39.6359 847.848 46.9898C856.552 54.1273 860.905 64.1848 860.905 77.1622V147.889Z"/>
</mask>
<path d="M104.731 344.497L101.718 274.094H81.2957L78.2826 344.497H34.0898L57.5254 37.9056H126.493L149.259 344.497H104.731ZM82.9697 239.055H100.379L95.3571 121.285L93.0135 79.1089H90.0004L87.9916 121.285L82.9697 239.055Z" fill="#D0D8DA" shape-rendering="crispEdges"/>
<path d="M264.36 344.497H220.502L212.132 228.673H200.414V344.497H157.226V37.9056H212.467C228.314 37.9056 240.366 41.7988 248.625 49.5853C256.883 57.1554 261.012 68.1862 261.012 82.6776V178.71C261.012 191.688 257.441 201.962 250.299 209.532L264.36 344.497ZM200.749 194.932H205.771C213.36 194.932 217.154 190.066 217.154 180.333V87.8686C217.154 78.5681 213.36 73.9179 205.771 73.9179H200.749V194.932Z" fill="#D0D8DA" shape-rendering="crispEdges"/>
<path d="M319.75 308.484H357.916V344.497H276.562V37.9056H357.247V73.9179H319.75V168.653H355.238V203.692H319.75V308.484Z" fill="#D0D8DA" shape-rendering="crispEdges"/>
<path d="M440.025 210.829L435.672 120.961V37.9056H475.847V344.497H434.668L409.558 162.813H406.88L410.897 254.628V344.497H370.722V37.9056H413.576L437.681 210.829H440.025Z" fill="#D0D8DA" shape-rendering="crispEdges"/>
<path d="M554.61 344.497L551.597 274.094H531.175L528.162 344.497H483.969L507.404 37.9056H576.372L599.138 344.497H554.61ZM532.849 239.055H550.258L545.236 121.285L542.892 79.1089H539.879L537.871 121.285L532.849 239.055Z" fill="#D0D8DA" shape-rendering="crispEdges"/>
<path d="M708.212 37.9056H752.405L728.97 344.497H663.685L640.249 37.9056H684.777L692.812 228.025L695.49 286.423H698.503L701.182 228.025L708.212 37.9056Z" fill="#D0D8DA" shape-rendering="crispEdges"/>
<path d="M860.905 147.889H818.051V79.1089C818.051 73.0527 815.261 70.0247 809.681 70.0247C804.101 70.0247 801.311 72.7283 801.311 78.1355V145.294C801.311 152.431 804.659 157.838 811.355 161.515L831.108 168.653C841.821 172.762 849.745 178.062 854.878 184.55C860.235 190.823 862.913 200.231 862.913 212.776V299.725C862.913 314.432 858.226 326.004 848.852 334.439C839.701 342.658 826.979 346.768 810.686 346.768C793.946 346.768 781.112 343.199 772.184 336.061C763.256 328.708 758.792 318.326 758.792 304.916V220.238H801.646V302.645C801.646 308.917 804.548 312.053 810.351 312.053C816.154 312.053 819.055 309.133 819.055 303.293V221.86C819.055 213.858 815.149 208.018 807.338 204.341L790.263 198.177C778.88 194.5 770.622 189.2 765.488 182.279C760.355 175.142 757.788 165.192 757.788 152.431V80.4066C757.788 66.7803 762.252 55.9658 771.18 47.9631C780.108 39.9604 793.165 35.959 810.351 35.959C826.644 35.959 839.143 39.6359 847.848 46.9898C856.552 54.1273 860.905 64.1848 860.905 77.1622V147.889Z" fill="#D0D8DA" shape-rendering="crispEdges"/>
<path d="M104.731 344.497L101.718 274.094H81.2957L78.2826 344.497H34.0898L57.5254 37.9056H126.493L149.259 344.497H104.731ZM82.9697 239.055H100.379L95.3571 121.285L93.0135 79.1089H90.0004L87.9916 121.285L82.9697 239.055Z" stroke="#090E14" stroke-opacity="0.44" stroke-width="2.8" shape-rendering="crispEdges" mask="url(#path-1-outside-1_1497_754)"/>
<path d="M264.36 344.497H220.502L212.132 228.673H200.414V344.497H157.226V37.9056H212.467C228.314 37.9056 240.366 41.7988 248.625 49.5853C256.883 57.1554 261.012 68.1862 261.012 82.6776V178.71C261.012 191.688 257.441 201.962 250.299 209.532L264.36 344.497ZM200.749 194.932H205.771C213.36 194.932 217.154 190.066 217.154 180.333V87.8686C217.154 78.5681 213.36 73.9179 205.771 73.9179H200.749V194.932Z" stroke="#090E14" stroke-opacity="0.44" stroke-width="2.8" shape-rendering="crispEdges" mask="url(#path-1-outside-1_1497_754)"/>
<path d="M319.75 308.484H357.916V344.497H276.562V37.9056H357.247V73.9179H319.75V168.653H355.238V203.692H319.75V308.484Z" stroke="#090E14" stroke-opacity="0.44" stroke-width="2.8" shape-rendering="crispEdges" mask="url(#path-1-outside-1_1497_754)"/>
<path d="M440.025 210.829L435.672 120.961V37.9056H475.847V344.497H434.668L409.558 162.813H406.88L410.897 254.628V344.497H370.722V37.9056H413.576L437.681 210.829H440.025Z" stroke="#090E14" stroke-opacity="0.44" stroke-width="2.8" shape-rendering="crispEdges" mask="url(#path-1-outside-1_1497_754)"/>
<path d="M554.61 344.497L551.597 274.094H531.175L528.162 344.497H483.969L507.404 37.9056H576.372L599.138 344.497H554.61ZM532.849 239.055H550.258L545.236 121.285L542.892 79.1089H539.879L537.871 121.285L532.849 239.055Z" stroke="#090E14" stroke-opacity="0.44" stroke-width="2.8" shape-rendering="crispEdges" mask="url(#path-1-outside-1_1497_754)"/>
<path d="M708.212 37.9056H752.405L728.97 344.497H663.685L640.249 37.9056H684.777L692.812 228.025L695.49 286.423H698.503L701.182 228.025L708.212 37.9056Z" stroke="#090E14" stroke-opacity="0.44" stroke-width="2.8" shape-rendering="crispEdges" mask="url(#path-1-outside-1_1497_754)"/>
<path d="M860.905 147.889H818.051V79.1089C818.051 73.0527 815.261 70.0247 809.681 70.0247C804.101 70.0247 801.311 72.7283 801.311 78.1355V145.294C801.311 152.431 804.659 157.838 811.355 161.515L831.108 168.653C841.821 172.762 849.745 178.062 854.878 184.55C860.235 190.823 862.913 200.231 862.913 212.776V299.725C862.913 314.432 858.226 326.004 848.852 334.439C839.701 342.658 826.979 346.768 810.686 346.768C793.946 346.768 781.112 343.199 772.184 336.061C763.256 328.708 758.792 318.326 758.792 304.916V220.238H801.646V302.645C801.646 308.917 804.548 312.053 810.351 312.053C816.154 312.053 819.055 309.133 819.055 303.293V221.86C819.055 213.858 815.149 208.018 807.338 204.341L790.263 198.177C778.88 194.5 770.622 189.2 765.488 182.279C760.355 175.142 757.788 165.192 757.788 152.431V80.4066C757.788 66.7803 762.252 55.9658 771.18 47.9631C780.108 39.9604 793.165 35.959 810.351 35.959C826.644 35.959 839.143 39.6359 847.848 46.9898C856.552 54.1273 860.905 64.1848 860.905 77.1622V147.889Z" stroke="#090E14" stroke-opacity="0.44" stroke-width="2.8" shape-rendering="crispEdges" mask="url(#path-1-outside-1_1497_754)"/>
</g>
<defs>
<filter id="filter0_d_1497_754" x="0.578613" y="0.559082" width="895.735" height="377.609" filterUnits="userSpaceOnUse" color-interpolation-filters="sRGB">
<feFlood flood-opacity="0" result="BackgroundImageFix"/>
<feColorMatrix in="SourceAlpha" type="matrix" values="0 0 0 0 0 0 0 0 0 0 0 0 0 0 0 0 0 0 127 0" result="hardAlpha"/>
<feOffset dy="-2"/>
<feGaussianBlur stdDeviation="16"/>
<feComposite in2="hardAlpha" operator="out"/>
<feColorMatrix type="matrix" values="0 0 0 0 0 0 0 0 0 0 0 0 0 0 0 0 0 0 0.55 0"/>
<feBlend mode="normal" in2="BackgroundImageFix" result="effect1_dropShadow_1497_754"/>
<feBlend mode="normal" in="SourceGraphic" in2="effect1_dropShadow_1497_754" result="shape"/>
</filter>
</defs>
</svg>
