<svg width="492" height="201" viewBox="0 0 492 201" fill="none" xmlns="http://www.w3.org/2000/svg">
<path d="M10 71L66.3526 111H130" stroke="url(#paint0_linear_953_1498)"/>
<g clip-path="url(#clip0_953_1498)">
<rect y="81" width="20" height="20" rx="10" transform="rotate(-90 0 81)" fill="#334650" fill-opacity="0.25"/>
<g filter="url(#filter1_d_953_1498)">
<circle cx="10" cy="70.9998" r="5" transform="rotate(-90 10 70.9998)" fill="#51E3FF"/>
</g>
</g>
<path d="M445.464 34.7338C447.889 34.1663 449.391 31.7573 448.818 29.3532C448.246 26.949 445.816 25.4601 443.391 26.0275C440.966 26.5949 439.464 29.0039 440.036 31.408C440.609 33.8122 443.039 35.3012 445.464 34.7338Z" fill="#1EDBFF"/>
<path d="M462.487 34.8422C464.978 34.8422 466.999 32.8405 466.999 30.3694C466.999 27.8984 464.978 25.8967 462.487 25.8967C459.996 25.8967 457.976 27.8984 457.976 30.3694C457.976 32.8405 459.996 34.8422 462.487 34.8422Z" fill="#1EDBFF"/>
<path d="M453.464 34.6511C450.973 34.6511 448.952 36.6542 448.952 39.1238C448.952 41.5935 450.973 43.5966 453.464 43.5966C455.955 43.5966 457.975 41.5935 457.975 39.1238C457.975 36.6542 455.956 34.6511 453.464 34.6511Z" fill="#1EDBFF"/>
<path d="M445.177 52.2834C447.637 51.8876 449.307 49.5901 448.908 47.1518C448.509 44.7135 446.191 43.0577 443.732 43.4535C441.272 43.8493 439.602 46.1468 440.001 48.5851C440.4 51.0234 442.718 52.6792 445.177 52.2834Z" fill="#1EDBFF"/>
<path d="M462.488 43.406C459.997 43.406 457.977 45.4077 457.977 47.8787C457.977 50.3498 459.997 52.3515 462.488 52.3515C464.979 52.3515 467 50.3498 467 47.8787C467 45.4077 464.979 43.406 462.488 43.406Z" fill="#1EDBFF"/>
<path d="M162.224 128.912H160.368V138H155.376V107.76H162.192C164.112 107.76 165.616 108.304 166.704 109.392C167.792 110.459 168.336 111.984 168.336 113.968V122.448C168.336 124.411 167.771 125.979 166.64 127.152C165.509 128.325 164.037 128.912 162.224 128.912ZM161.488 124.656C162.64 124.656 163.216 123.941 163.216 122.512V114.096C163.216 112.709 162.64 112.016 161.488 112.016H160.368V124.656H161.488ZM176.617 107.504C178.771 107.504 180.403 108.091 181.513 109.264C182.643 110.437 183.209 112.155 183.209 114.416V131.344C183.209 133.627 182.643 135.355 181.513 136.528C180.403 137.701 178.771 138.288 176.617 138.288C174.505 138.288 172.883 137.701 171.753 136.528C170.643 135.355 170.089 133.627 170.089 131.344V114.416C170.089 112.155 170.643 110.437 171.753 109.264C172.883 108.091 174.505 107.504 176.617 107.504ZM178.121 132.336V113.424C178.121 112.891 177.982 112.464 177.705 112.144C177.449 111.824 177.097 111.664 176.649 111.664C176.201 111.664 175.838 111.824 175.561 112.144C175.305 112.464 175.177 112.891 175.177 113.424V132.336C175.177 132.869 175.305 133.296 175.561 133.616C175.838 133.936 176.201 134.096 176.649 134.096C177.097 134.096 177.449 133.936 177.705 133.616C177.982 133.296 178.121 132.869 178.121 132.336ZM199.064 138H193.976L192.664 127.12H190.712V138H185.72V107.76H192.504C194.466 107.76 195.97 108.272 197.016 109.296C198.061 110.299 198.584 111.76 198.584 113.68V120.624C198.584 122.416 198.061 123.856 197.016 124.944L199.064 138ZM190.744 123.12H191.672C192.888 123.12 193.496 122.363 193.496 120.848V114.16C193.496 112.731 192.888 112.016 191.672 112.016H190.744V123.12ZM212.139 107.76V112.016H208.363V138H203.371V112.016H199.562V107.76H212.139ZM223.485 112.016H218.493V120.4H223.101V124.56H218.493V138H213.501V107.76H223.485V112.016ZM231.273 107.504C233.428 107.504 235.06 108.091 236.169 109.264C237.3 110.437 237.865 112.155 237.865 114.416V131.344C237.865 133.627 237.3 135.355 236.169 136.528C235.06 137.701 233.428 138.288 231.273 138.288C229.161 138.288 227.54 137.701 226.409 136.528C225.3 135.355 224.745 133.627 224.745 131.344V114.416C224.745 112.155 225.3 110.437 226.409 109.264C227.54 108.091 229.161 107.504 231.273 107.504ZM232.777 132.336V113.424C232.777 112.891 232.638 112.464 232.361 112.144C232.105 111.824 231.753 111.664 231.305 111.664C230.857 111.664 230.494 111.824 230.217 112.144C229.961 112.464 229.833 112.891 229.833 113.424V132.336C229.833 132.869 229.961 133.296 230.217 133.616C230.494 133.936 230.857 134.096 231.305 134.096C231.753 134.096 232.105 133.936 232.361 133.616C232.638 133.296 232.777 132.869 232.777 132.336ZM245.368 133.744H250.168V138H240.376V107.76H245.368V133.744ZM251.47 107.76H256.462V138H251.47V107.76ZM265.461 107.504C267.615 107.504 269.247 108.091 270.357 109.264C271.487 110.437 272.053 112.155 272.053 114.416V131.344C272.053 133.627 271.487 135.355 270.357 136.528C269.247 137.701 267.615 138.288 265.461 138.288C263.349 138.288 261.727 137.701 260.597 136.528C259.487 135.355 258.933 133.627 258.933 131.344V114.416C258.933 112.155 259.487 110.437 260.597 109.264C261.727 108.091 263.349 107.504 265.461 107.504ZM266.965 132.336V113.424C266.965 112.891 266.826 112.464 266.549 112.144C266.293 111.824 265.941 111.664 265.493 111.664C265.045 111.664 264.682 111.824 264.405 112.144C264.149 112.464 264.021 112.891 264.021 113.424V132.336C264.021 132.869 264.149 133.296 264.405 133.616C264.682 133.936 265.045 134.096 265.493 134.096C265.941 134.096 266.293 133.936 266.549 133.616C266.826 133.296 266.965 132.869 266.965 132.336ZM292.266 123.92V132.208C292.266 134.213 291.722 135.728 290.634 136.752C289.546 137.776 287.967 138.288 285.898 138.288C283.786 138.288 282.165 137.701 281.034 136.528C279.925 135.355 279.37 133.627 279.37 131.344V114.416C279.37 112.155 279.925 110.437 281.034 109.264C282.165 108.091 283.786 107.504 285.898 107.504C290.143 107.504 292.266 109.531 292.266 113.584V120.944H287.338V113.424C287.338 112.891 287.21 112.464 286.954 112.144C286.698 111.824 286.357 111.664 285.93 111.664C285.482 111.664 285.119 111.824 284.842 112.144C284.586 112.464 284.458 112.891 284.458 113.424V132.336C284.458 132.869 284.586 133.296 284.842 133.616C285.119 133.936 285.482 134.096 285.93 134.096C286.357 134.096 286.698 133.936 286.954 133.616C287.21 133.296 287.338 132.869 287.338 132.336V123.92H292.266ZM300.961 107.504C303.115 107.504 304.747 108.091 305.857 109.264C306.987 110.437 307.553 112.155 307.553 114.416V131.344C307.553 133.627 306.987 135.355 305.857 136.528C304.747 137.701 303.115 138.288 300.961 138.288C298.849 138.288 297.227 137.701 296.097 136.528C294.987 135.355 294.433 133.627 294.433 131.344V114.416C294.433 112.155 294.987 110.437 296.097 109.264C297.227 108.091 298.849 107.504 300.961 107.504ZM302.465 132.336V113.424C302.465 112.891 302.326 112.464 302.049 112.144C301.793 111.824 301.441 111.664 300.993 111.664C300.545 111.664 300.182 111.824 299.905 112.144C299.649 112.464 299.521 112.891 299.521 113.424V132.336C299.521 132.869 299.649 133.296 299.905 133.616C300.182 133.936 300.545 134.096 300.993 134.096C301.441 134.096 301.793 133.936 302.049 133.616C302.326 133.296 302.465 132.869 302.465 132.336ZM319.568 128.496L320.016 122.32L321.584 107.76H328.72V138H324.016L324.048 127.344L324.272 116.88H323.952L321.744 138H316.911L314.8 116.848H314.48L314.736 127.344V138H310.064V107.76H317.232L318.768 122.32L319.248 128.496H319.568ZM338.286 128.912H336.431V138H331.439V107.76H338.255C340.175 107.76 341.679 108.304 342.767 109.392C343.855 110.459 344.399 111.984 344.399 113.968V122.448C344.399 124.411 343.833 125.979 342.703 127.152C341.572 128.325 340.1 128.912 338.286 128.912ZM337.551 124.656C338.703 124.656 339.279 123.941 339.279 122.512V114.096C339.279 112.709 338.703 112.016 337.551 112.016H336.431V124.656H337.551ZM354.133 138L353.621 131.536L350.101 131.504L349.589 138H344.437L348.021 107.76H355.829L359.349 138H354.133ZM350.453 127.408H353.301L352.501 116.88L352.053 112.4H351.701L351.285 116.88L350.453 127.408ZM369.297 124.176L368.977 116.048V107.76H373.681V138H368.849L365.329 120.304H365.041L365.361 128.24V138H360.657V107.76H365.777L369.041 124.176H369.297ZM376.439 107.76H381.431V138H376.439V107.76ZM390.429 107.504C392.584 107.504 394.216 108.091 395.325 109.264C396.456 110.437 397.021 112.155 397.021 114.416V131.344C397.021 133.627 396.456 135.355 395.325 136.528C394.216 137.701 392.584 138.288 390.429 138.288C388.317 138.288 386.696 137.701 385.565 136.528C384.456 135.355 383.901 133.627 383.901 131.344V114.416C383.901 112.155 384.456 110.437 385.565 109.264C386.696 108.091 388.317 107.504 390.429 107.504ZM391.933 132.336V113.424C391.933 112.891 391.795 112.464 391.517 112.144C391.261 111.824 390.909 111.664 390.461 111.664C390.013 111.664 389.651 111.824 389.373 112.144C389.117 112.464 388.989 112.891 388.989 113.424V132.336C388.989 132.869 389.117 133.296 389.373 133.616C389.651 133.936 390.013 134.096 390.461 134.096C390.909 134.096 391.261 133.936 391.517 133.616C391.795 133.296 391.933 132.869 391.933 132.336ZM408.172 124.176L407.852 116.048V107.76H412.556V138H407.724L404.204 120.304H403.916L404.236 128.24V138H399.532V107.76H404.652L407.916 124.176H408.172Z" fill="white"/>
<path d="M154.705 159.875V158.364H163.71V159.875H160.08V170H158.33V159.875H154.705ZM164.018 170V161.273H165.66V162.659H165.751C165.91 162.189 166.19 161.82 166.592 161.551C166.997 161.278 167.455 161.142 167.967 161.142C168.073 161.142 168.198 161.146 168.342 161.153C168.489 161.161 168.605 161.17 168.688 161.182V162.807C168.62 162.788 168.499 162.767 168.324 162.744C168.15 162.718 167.976 162.705 167.802 162.705C167.4 162.705 167.042 162.79 166.728 162.96C166.417 163.127 166.171 163.36 165.989 163.659C165.807 163.955 165.717 164.292 165.717 164.67V170H164.018ZM171.98 170.193C171.427 170.193 170.927 170.091 170.48 169.886C170.033 169.678 169.679 169.377 169.417 168.983C169.16 168.589 169.031 168.106 169.031 167.534C169.031 167.042 169.126 166.636 169.315 166.318C169.505 166 169.76 165.748 170.082 165.562C170.404 165.377 170.764 165.237 171.162 165.142C171.559 165.047 171.965 164.975 172.378 164.926C172.9 164.866 173.325 164.816 173.65 164.778C173.976 164.737 174.213 164.67 174.361 164.58C174.508 164.489 174.582 164.341 174.582 164.136V164.097C174.582 163.6 174.442 163.216 174.162 162.943C173.885 162.67 173.472 162.534 172.923 162.534C172.351 162.534 171.9 162.661 171.571 162.915C171.245 163.165 171.02 163.443 170.895 163.75L169.298 163.386C169.488 162.856 169.764 162.428 170.128 162.102C170.495 161.773 170.917 161.534 171.395 161.386C171.872 161.235 172.374 161.159 172.9 161.159C173.249 161.159 173.618 161.201 174.008 161.284C174.402 161.364 174.77 161.511 175.111 161.727C175.455 161.943 175.738 162.252 175.957 162.653C176.177 163.051 176.287 163.568 176.287 164.205V170H174.628V168.807H174.559C174.45 169.027 174.285 169.242 174.065 169.455C173.845 169.667 173.563 169.843 173.219 169.983C172.874 170.123 172.461 170.193 171.98 170.193ZM172.349 168.83C172.819 168.83 173.22 168.737 173.554 168.551C173.891 168.366 174.147 168.123 174.321 167.824C174.499 167.521 174.588 167.197 174.588 166.852V165.727C174.527 165.788 174.41 165.845 174.236 165.898C174.065 165.947 173.87 165.991 173.65 166.028C173.431 166.062 173.217 166.095 173.008 166.125C172.8 166.152 172.626 166.174 172.486 166.193C172.156 166.235 171.855 166.305 171.582 166.403C171.313 166.502 171.097 166.644 170.934 166.83C170.775 167.011 170.696 167.254 170.696 167.557C170.696 167.977 170.851 168.295 171.162 168.511C171.472 168.723 171.868 168.83 172.349 168.83ZM181.586 170.176C180.741 170.176 180.014 169.985 179.404 169.602C178.798 169.216 178.332 168.684 178.006 168.006C177.68 167.328 177.517 166.551 177.517 165.676C177.517 164.79 177.684 164.008 178.017 163.33C178.351 162.648 178.821 162.116 179.427 161.733C180.033 161.35 180.747 161.159 181.569 161.159C182.232 161.159 182.822 161.282 183.341 161.528C183.86 161.771 184.279 162.112 184.597 162.551C184.919 162.991 185.11 163.504 185.171 164.091H183.517C183.427 163.682 183.218 163.33 182.892 163.034C182.571 162.739 182.139 162.591 181.597 162.591C181.124 162.591 180.709 162.716 180.353 162.966C180 163.212 179.726 163.564 179.529 164.023C179.332 164.477 179.233 165.015 179.233 165.636C179.233 166.273 179.33 166.822 179.523 167.284C179.716 167.746 179.989 168.104 180.341 168.358C180.697 168.612 181.116 168.739 181.597 168.739C181.919 168.739 182.211 168.68 182.472 168.562C182.737 168.441 182.959 168.269 183.137 168.045C183.319 167.822 183.446 167.553 183.517 167.239H185.171C185.11 167.803 184.927 168.307 184.62 168.75C184.313 169.193 183.902 169.542 183.387 169.795C182.875 170.049 182.275 170.176 181.586 170.176ZM187.91 167.04L187.899 164.966H188.194L191.672 161.273H193.706L189.74 165.477H189.473L187.91 167.04ZM186.348 170V158.364H188.047V170H186.348ZM191.859 170L188.734 165.852L189.904 164.665L193.944 170H191.859ZM196.824 168.409L196.739 169.028C196.682 169.483 196.586 169.956 196.449 170.449C196.317 170.945 196.178 171.405 196.034 171.83C195.894 172.254 195.779 172.591 195.688 172.841H194.483C194.532 172.606 194.601 172.288 194.688 171.886C194.775 171.489 194.86 171.044 194.943 170.551C195.027 170.059 195.089 169.557 195.131 169.045L195.188 168.409H196.824ZM205.649 173.455C204.956 173.455 204.359 173.364 203.859 173.182C203.363 173 202.958 172.759 202.644 172.46C202.329 172.161 202.094 171.833 201.939 171.477L203.399 170.875C203.502 171.042 203.638 171.218 203.808 171.403C203.983 171.593 204.217 171.754 204.513 171.886C204.812 172.019 205.197 172.085 205.666 172.085C206.31 172.085 206.842 171.928 207.263 171.614C207.683 171.303 207.894 170.807 207.894 170.125V168.409H207.786C207.683 168.595 207.536 168.801 207.342 169.028C207.153 169.256 206.892 169.453 206.558 169.619C206.225 169.786 205.791 169.869 205.257 169.869C204.568 169.869 203.947 169.708 203.394 169.386C202.844 169.061 202.409 168.581 202.087 167.949C201.769 167.312 201.609 166.53 201.609 165.602C201.609 164.674 201.767 163.879 202.081 163.216C202.399 162.553 202.835 162.045 203.388 161.693C203.941 161.337 204.568 161.159 205.269 161.159C205.81 161.159 206.248 161.25 206.581 161.432C206.914 161.61 207.174 161.818 207.359 162.057C207.549 162.295 207.695 162.506 207.797 162.688H207.922V161.273H209.587V170.193C209.587 170.943 209.413 171.559 209.064 172.04C208.716 172.521 208.244 172.877 207.649 173.108C207.058 173.339 206.392 173.455 205.649 173.455ZM205.632 168.46C206.121 168.46 206.534 168.347 206.871 168.119C207.212 167.888 207.469 167.559 207.644 167.131C207.822 166.699 207.911 166.182 207.911 165.58C207.911 164.992 207.824 164.475 207.649 164.028C207.475 163.581 207.219 163.233 206.882 162.983C206.545 162.729 206.128 162.602 205.632 162.602C205.121 162.602 204.695 162.735 204.354 163C204.013 163.261 203.755 163.617 203.581 164.068C203.411 164.519 203.325 165.023 203.325 165.58C203.325 166.152 203.413 166.653 203.587 167.085C203.761 167.517 204.019 167.854 204.359 168.097C204.704 168.339 205.128 168.46 205.632 168.46ZM214.987 170.176C214.127 170.176 213.386 169.992 212.765 169.625C212.148 169.254 211.67 168.733 211.333 168.062C211 167.388 210.833 166.598 210.833 165.693C210.833 164.799 211 164.011 211.333 163.33C211.67 162.648 212.14 162.116 212.742 161.733C213.348 161.35 214.057 161.159 214.867 161.159C215.36 161.159 215.837 161.241 216.299 161.403C216.761 161.566 217.176 161.822 217.543 162.17C217.911 162.519 218.201 162.972 218.413 163.528C218.625 164.081 218.731 164.754 218.731 165.545V166.148H211.793V164.875H217.066C217.066 164.428 216.975 164.032 216.793 163.688C216.612 163.339 216.356 163.064 216.026 162.864C215.701 162.663 215.318 162.562 214.879 162.562C214.401 162.562 213.985 162.68 213.629 162.915C213.276 163.146 213.004 163.449 212.81 163.824C212.621 164.195 212.526 164.598 212.526 165.034V166.028C212.526 166.612 212.629 167.108 212.833 167.517C213.041 167.926 213.331 168.239 213.702 168.455C214.074 168.667 214.507 168.773 215.004 168.773C215.326 168.773 215.619 168.727 215.884 168.636C216.149 168.542 216.379 168.402 216.572 168.216C216.765 168.03 216.913 167.801 217.015 167.528L218.623 167.818C218.494 168.292 218.263 168.706 217.93 169.062C217.6 169.415 217.185 169.689 216.685 169.886C216.189 170.08 215.623 170.176 214.987 170.176ZM224.05 161.273V162.636H219.283V161.273H224.05ZM220.561 159.182H222.26V167.438C222.26 167.767 222.309 168.015 222.408 168.182C222.506 168.345 222.633 168.456 222.788 168.517C222.947 168.574 223.12 168.602 223.305 168.602C223.442 168.602 223.561 168.593 223.663 168.574C223.766 168.555 223.845 168.54 223.902 168.528L224.209 169.932C224.11 169.97 223.97 170.008 223.788 170.045C223.606 170.087 223.379 170.11 223.106 170.114C222.66 170.121 222.243 170.042 221.856 169.875C221.47 169.708 221.158 169.451 220.919 169.102C220.68 168.754 220.561 168.316 220.561 167.79V159.182ZM231.423 170.193C230.87 170.193 230.37 170.091 229.923 169.886C229.476 169.678 229.122 169.377 228.861 168.983C228.603 168.589 228.474 168.106 228.474 167.534C228.474 167.042 228.569 166.636 228.758 166.318C228.948 166 229.203 165.748 229.525 165.562C229.847 165.377 230.207 165.237 230.605 165.142C231.003 165.047 231.408 164.975 231.821 164.926C232.344 164.866 232.768 164.816 233.094 164.778C233.419 164.737 233.656 164.67 233.804 164.58C233.951 164.489 234.025 164.341 234.025 164.136V164.097C234.025 163.6 233.885 163.216 233.605 162.943C233.328 162.67 232.915 162.534 232.366 162.534C231.794 162.534 231.344 162.661 231.014 162.915C230.688 163.165 230.463 163.443 230.338 163.75L228.741 163.386C228.931 162.856 229.207 162.428 229.571 162.102C229.938 161.773 230.361 161.534 230.838 161.386C231.315 161.235 231.817 161.159 232.344 161.159C232.692 161.159 233.061 161.201 233.451 161.284C233.845 161.364 234.213 161.511 234.554 161.727C234.898 161.943 235.181 162.252 235.4 162.653C235.62 163.051 235.73 163.568 235.73 164.205V170H234.071V168.807H234.003C233.893 169.027 233.728 169.242 233.508 169.455C233.289 169.667 233.006 169.843 232.662 169.983C232.317 170.123 231.904 170.193 231.423 170.193ZM231.792 168.83C232.262 168.83 232.664 168.737 232.997 168.551C233.334 168.366 233.59 168.123 233.764 167.824C233.942 167.521 234.031 167.197 234.031 166.852V165.727C233.97 165.788 233.853 165.845 233.679 165.898C233.508 165.947 233.313 165.991 233.094 166.028C232.874 166.062 232.66 166.095 232.451 166.125C232.243 166.152 232.069 166.174 231.929 166.193C231.599 166.235 231.298 166.305 231.025 166.403C230.756 166.502 230.54 166.644 230.378 166.83C230.219 167.011 230.139 167.254 230.139 167.557C230.139 167.977 230.294 168.295 230.605 168.511C230.915 168.723 231.311 168.83 231.792 168.83ZM239.052 158.364V170H237.353V158.364H239.052ZM244.458 170.176C243.599 170.176 242.858 169.992 242.237 169.625C241.619 169.254 241.142 168.733 240.805 168.062C240.472 167.388 240.305 166.598 240.305 165.693C240.305 164.799 240.472 164.011 240.805 163.33C241.142 162.648 241.612 162.116 242.214 161.733C242.82 161.35 243.528 161.159 244.339 161.159C244.832 161.159 245.309 161.241 245.771 161.403C246.233 161.566 246.648 161.822 247.015 162.17C247.383 162.519 247.672 162.972 247.885 163.528C248.097 164.081 248.203 164.754 248.203 165.545V166.148H241.265V164.875H246.538C246.538 164.428 246.447 164.032 246.265 163.688C246.083 163.339 245.828 163.064 245.498 162.864C245.172 162.663 244.79 162.562 244.35 162.562C243.873 162.562 243.457 162.68 243.1 162.915C242.748 163.146 242.475 163.449 242.282 163.824C242.093 164.195 241.998 164.598 241.998 165.034V166.028C241.998 166.612 242.1 167.108 242.305 167.517C242.513 167.926 242.803 168.239 243.174 168.455C243.546 168.667 243.979 168.773 244.475 168.773C244.797 168.773 245.091 168.727 245.356 168.636C245.621 168.542 245.85 168.402 246.044 168.216C246.237 168.03 246.385 167.801 246.487 167.528L248.095 167.818C247.966 168.292 247.735 168.706 247.402 169.062C247.072 169.415 246.657 169.689 246.157 169.886C245.661 170.08 245.095 170.176 244.458 170.176ZM249.448 170V161.273H251.09V162.659H251.181C251.34 162.189 251.62 161.82 252.022 161.551C252.427 161.278 252.885 161.142 253.397 161.142C253.503 161.142 253.628 161.146 253.772 161.153C253.919 161.161 254.035 161.17 254.118 161.182V162.807C254.05 162.788 253.929 162.767 253.754 162.744C253.58 162.718 253.406 162.705 253.232 162.705C252.83 162.705 252.472 162.79 252.158 162.96C251.847 163.127 251.601 163.36 251.419 163.659C251.237 163.955 251.147 164.292 251.147 164.67V170H249.448ZM259.538 161.273V162.636H254.771V161.273H259.538ZM256.049 159.182H257.748V167.438C257.748 167.767 257.797 168.015 257.896 168.182C257.994 168.345 258.121 168.456 258.276 168.517C258.436 168.574 258.608 168.602 258.793 168.602C258.93 168.602 259.049 168.593 259.151 168.574C259.254 168.555 259.333 168.54 259.39 168.528L259.697 169.932C259.598 169.97 259.458 170.008 259.276 170.045C259.095 170.087 258.867 170.11 258.595 170.114C258.148 170.121 257.731 170.042 257.345 169.875C256.958 169.708 256.646 169.451 256.407 169.102C256.168 168.754 256.049 168.316 256.049 167.79V159.182ZM267.176 163.403L265.636 163.676C265.572 163.479 265.47 163.292 265.33 163.114C265.193 162.936 265.008 162.79 264.773 162.676C264.538 162.562 264.244 162.506 263.892 162.506C263.411 162.506 263.01 162.614 262.688 162.83C262.366 163.042 262.205 163.316 262.205 163.653C262.205 163.945 262.313 164.18 262.528 164.358C262.744 164.536 263.093 164.682 263.574 164.795L264.96 165.114C265.763 165.299 266.362 165.585 266.756 165.972C267.15 166.358 267.347 166.86 267.347 167.477C267.347 168 267.195 168.466 266.892 168.875C266.593 169.28 266.174 169.598 265.636 169.83C265.102 170.061 264.483 170.176 263.778 170.176C262.801 170.176 262.004 169.968 261.386 169.551C260.769 169.131 260.39 168.534 260.25 167.761L261.892 167.511C261.994 167.939 262.205 168.263 262.523 168.483C262.841 168.699 263.256 168.807 263.767 168.807C264.324 168.807 264.769 168.691 265.102 168.46C265.436 168.225 265.602 167.939 265.602 167.602C265.602 167.33 265.5 167.1 265.296 166.915C265.095 166.729 264.786 166.589 264.369 166.494L262.892 166.17C262.078 165.985 261.475 165.689 261.085 165.284C260.699 164.879 260.506 164.366 260.506 163.744C260.506 163.229 260.65 162.778 260.938 162.392C261.225 162.006 261.623 161.705 262.131 161.489C262.638 161.269 263.22 161.159 263.875 161.159C264.818 161.159 265.561 161.364 266.102 161.773C266.644 162.178 267.002 162.722 267.176 163.403ZM270.785 168.409L270.7 169.028C270.643 169.483 270.546 169.956 270.41 170.449C270.277 170.945 270.139 171.405 269.995 171.83C269.855 172.254 269.739 172.591 269.648 172.841H268.444C268.493 172.606 268.561 172.288 268.648 171.886C268.736 171.489 268.821 171.044 268.904 170.551C268.987 170.059 269.05 169.557 269.092 169.045L269.148 168.409H270.785ZM278.491 170.193C277.938 170.193 277.438 170.091 276.991 169.886C276.544 169.678 276.189 169.377 275.928 168.983C275.67 168.589 275.542 168.106 275.542 167.534C275.542 167.042 275.636 166.636 275.826 166.318C276.015 166 276.271 165.748 276.593 165.562C276.915 165.377 277.275 165.237 277.672 165.142C278.07 165.047 278.475 164.975 278.888 164.926C279.411 164.866 279.835 164.816 280.161 164.778C280.487 164.737 280.724 164.67 280.871 164.58C281.019 164.489 281.093 164.341 281.093 164.136V164.097C281.093 163.6 280.953 163.216 280.672 162.943C280.396 162.67 279.983 162.534 279.434 162.534C278.862 162.534 278.411 162.661 278.081 162.915C277.756 163.165 277.53 163.443 277.405 163.75L275.809 163.386C275.998 162.856 276.275 162.428 276.638 162.102C277.006 161.773 277.428 161.534 277.905 161.386C278.383 161.235 278.885 161.159 279.411 161.159C279.76 161.159 280.129 161.201 280.519 161.284C280.913 161.364 281.28 161.511 281.621 161.727C281.966 161.943 282.248 162.252 282.468 162.653C282.688 163.051 282.797 163.568 282.797 164.205V170H281.138V168.807H281.07C280.96 169.027 280.795 169.242 280.576 169.455C280.356 169.667 280.074 169.843 279.729 169.983C279.385 170.123 278.972 170.193 278.491 170.193ZM278.86 168.83C279.33 168.83 279.731 168.737 280.064 168.551C280.402 168.366 280.657 168.123 280.831 167.824C281.01 167.521 281.099 167.197 281.099 166.852V165.727C281.038 165.788 280.92 165.845 280.746 165.898C280.576 165.947 280.381 165.991 280.161 166.028C279.941 166.062 279.727 166.095 279.519 166.125C279.311 166.152 279.136 166.174 278.996 166.193C278.667 166.235 278.366 166.305 278.093 166.403C277.824 166.502 277.608 166.644 277.445 166.83C277.286 167.011 277.206 167.254 277.206 167.557C277.206 167.977 277.362 168.295 277.672 168.511C277.983 168.723 278.379 168.83 278.86 168.83ZM286.119 164.818V170H284.42V161.273H286.051V162.693H286.159C286.36 162.231 286.674 161.86 287.102 161.58C287.534 161.299 288.077 161.159 288.733 161.159C289.327 161.159 289.848 161.284 290.295 161.534C290.742 161.78 291.089 162.148 291.335 162.636C291.581 163.125 291.704 163.729 291.704 164.449V170H290.005V164.653C290.005 164.021 289.841 163.527 289.511 163.17C289.182 162.811 288.729 162.631 288.153 162.631C287.759 162.631 287.409 162.716 287.102 162.886C286.799 163.057 286.558 163.307 286.38 163.636C286.206 163.962 286.119 164.356 286.119 164.818ZM296.61 170.17C295.905 170.17 295.276 169.991 294.723 169.631C294.174 169.267 293.742 168.75 293.428 168.08C293.117 167.405 292.962 166.597 292.962 165.653C292.962 164.71 293.119 163.903 293.434 163.233C293.752 162.562 294.187 162.049 294.74 161.693C295.293 161.337 295.92 161.159 296.621 161.159C297.163 161.159 297.598 161.25 297.928 161.432C298.261 161.61 298.519 161.818 298.701 162.057C298.886 162.295 299.03 162.506 299.132 162.688H299.235V158.364H300.934V170H299.274V168.642H299.132C299.03 168.828 298.882 169.04 298.689 169.278C298.5 169.517 298.239 169.725 297.905 169.903C297.572 170.081 297.14 170.17 296.61 170.17ZM296.985 168.722C297.473 168.722 297.886 168.593 298.223 168.335C298.564 168.074 298.822 167.712 298.996 167.25C299.174 166.788 299.263 166.25 299.263 165.636C299.263 165.03 299.176 164.5 299.002 164.045C298.828 163.591 298.572 163.237 298.235 162.983C297.898 162.729 297.481 162.602 296.985 162.602C296.473 162.602 296.047 162.735 295.706 163C295.365 163.265 295.108 163.627 294.934 164.085C294.763 164.544 294.678 165.061 294.678 165.636C294.678 166.22 294.765 166.744 294.939 167.21C295.114 167.676 295.371 168.045 295.712 168.318C296.057 168.587 296.481 168.722 296.985 168.722ZM309.989 170.176C309.171 170.176 308.457 169.989 307.847 169.614C307.237 169.239 306.763 168.714 306.426 168.04C306.089 167.366 305.921 166.578 305.921 165.676C305.921 164.771 306.089 163.979 306.426 163.301C306.763 162.623 307.237 162.097 307.847 161.722C308.457 161.347 309.171 161.159 309.989 161.159C310.807 161.159 311.521 161.347 312.131 161.722C312.741 162.097 313.214 162.623 313.551 163.301C313.888 163.979 314.057 164.771 314.057 165.676C314.057 166.578 313.888 167.366 313.551 168.04C313.214 168.714 312.741 169.239 312.131 169.614C311.521 169.989 310.807 170.176 309.989 170.176ZM309.994 168.75C310.525 168.75 310.964 168.61 311.313 168.33C311.661 168.049 311.919 167.676 312.085 167.21C312.256 166.744 312.341 166.231 312.341 165.67C312.341 165.114 312.256 164.602 312.085 164.136C311.919 163.667 311.661 163.29 311.313 163.006C310.964 162.722 310.525 162.58 309.994 162.58C309.46 162.58 309.017 162.722 308.665 163.006C308.316 163.29 308.057 163.667 307.887 164.136C307.72 164.602 307.637 165.114 307.637 165.67C307.637 166.231 307.72 166.744 307.887 167.21C308.057 167.676 308.316 168.049 308.665 168.33C309.017 168.61 309.46 168.75 309.994 168.75ZM315.313 173.273V161.273H316.972V162.688H317.114C317.213 162.506 317.355 162.295 317.541 162.057C317.726 161.818 317.984 161.61 318.313 161.432C318.643 161.25 319.078 161.159 319.62 161.159C320.325 161.159 320.953 161.337 321.506 161.693C322.06 162.049 322.493 162.562 322.808 163.233C323.126 163.903 323.285 164.71 323.285 165.653C323.285 166.597 323.128 167.405 322.813 168.08C322.499 168.75 322.067 169.267 321.518 169.631C320.969 169.991 320.342 170.17 319.637 170.17C319.107 170.17 318.673 170.081 318.336 169.903C318.003 169.725 317.741 169.517 317.552 169.278C317.363 169.04 317.217 168.828 317.114 168.642H317.012V173.273H315.313ZM316.978 165.636C316.978 166.25 317.067 166.788 317.245 167.25C317.423 167.712 317.681 168.074 318.018 168.335C318.355 168.593 318.768 168.722 319.256 168.722C319.764 168.722 320.188 168.587 320.529 168.318C320.87 168.045 321.128 167.676 321.302 167.21C321.48 166.744 321.569 166.22 321.569 165.636C321.569 165.061 321.482 164.544 321.308 164.085C321.137 163.627 320.88 163.265 320.535 163C320.194 162.735 319.768 162.602 319.256 162.602C318.764 162.602 318.347 162.729 318.006 162.983C317.669 163.237 317.414 163.591 317.239 164.045C317.065 164.5 316.978 165.03 316.978 165.636ZM328.622 161.273V162.636H323.855V161.273H328.622ZM325.134 159.182H326.832V167.438C326.832 167.767 326.882 168.015 326.98 168.182C327.079 168.345 327.205 168.456 327.361 168.517C327.52 168.574 327.692 168.602 327.878 168.602C328.014 168.602 328.134 168.593 328.236 168.574C328.338 168.555 328.418 168.54 328.474 168.528L328.781 169.932C328.683 169.97 328.543 170.008 328.361 170.045C328.179 170.087 327.952 170.11 327.679 170.114C327.232 170.121 326.815 170.042 326.429 169.875C326.043 169.708 325.73 169.451 325.491 169.102C325.253 168.754 325.134 168.316 325.134 167.79V159.182ZM329.861 170V161.273H331.56V170H329.861ZM330.719 159.926C330.424 159.926 330.17 159.828 329.958 159.631C329.75 159.43 329.646 159.191 329.646 158.915C329.646 158.634 329.75 158.396 329.958 158.199C330.17 157.998 330.424 157.898 330.719 157.898C331.015 157.898 331.267 157.998 331.475 158.199C331.687 158.396 331.793 158.634 331.793 158.915C331.793 159.191 331.687 159.43 331.475 159.631C331.267 159.828 331.015 159.926 330.719 159.926ZM333.206 170V161.273H334.836V162.693H334.944C335.126 162.212 335.424 161.837 335.836 161.568C336.249 161.295 336.744 161.159 337.319 161.159C337.903 161.159 338.391 161.295 338.785 161.568C339.183 161.841 339.477 162.216 339.666 162.693H339.757C339.965 162.227 340.297 161.856 340.751 161.58C341.206 161.299 341.747 161.159 342.376 161.159C343.168 161.159 343.814 161.407 344.314 161.903C344.818 162.4 345.069 163.148 345.069 164.148V170H343.371V164.307C343.371 163.716 343.21 163.288 342.888 163.023C342.566 162.758 342.181 162.625 341.734 162.625C341.181 162.625 340.751 162.795 340.444 163.136C340.138 163.473 339.984 163.907 339.984 164.438V170H338.291V164.199C338.291 163.725 338.143 163.345 337.848 163.057C337.552 162.769 337.168 162.625 336.694 162.625C336.372 162.625 336.075 162.71 335.802 162.881C335.533 163.047 335.316 163.28 335.149 163.58C334.986 163.879 334.905 164.225 334.905 164.619V170H333.206ZM346.706 170V161.273H348.405V170H346.706ZM347.564 159.926C347.269 159.926 347.015 159.828 346.803 159.631C346.595 159.43 346.491 159.191 346.491 158.915C346.491 158.634 346.595 158.396 346.803 158.199C347.015 157.998 347.269 157.898 347.564 157.898C347.86 157.898 348.112 157.998 348.32 158.199C348.532 158.396 348.638 158.634 348.638 158.915C348.638 159.191 348.532 159.43 348.32 159.631C348.112 159.828 347.86 159.926 347.564 159.926ZM349.869 170V168.835L354.596 162.83V162.75H350.022V161.273H356.716V162.511L352.17 168.443V168.523H356.875V170H349.869ZM361.75 170.176C360.89 170.176 360.15 169.992 359.529 169.625C358.911 169.254 358.434 168.733 358.097 168.062C357.764 167.388 357.597 166.598 357.597 165.693C357.597 164.799 357.764 164.011 358.097 163.33C358.434 162.648 358.904 162.116 359.506 161.733C360.112 161.35 360.82 161.159 361.631 161.159C362.123 161.159 362.601 161.241 363.063 161.403C363.525 161.566 363.94 161.822 364.307 162.17C364.675 162.519 364.964 162.972 365.176 163.528C365.389 164.081 365.495 164.754 365.495 165.545V166.148H358.557V164.875H363.83C363.83 164.428 363.739 164.032 363.557 163.688C363.375 163.339 363.12 163.064 362.79 162.864C362.464 162.663 362.082 162.562 361.642 162.562C361.165 162.562 360.748 162.68 360.392 162.915C360.04 163.146 359.767 163.449 359.574 163.824C359.385 164.195 359.29 164.598 359.29 165.034V166.028C359.29 166.612 359.392 167.108 359.597 167.517C359.805 167.926 360.095 168.239 360.466 168.455C360.837 168.667 361.271 168.773 361.767 168.773C362.089 168.773 362.383 168.727 362.648 168.636C362.913 168.542 363.142 168.402 363.336 168.216C363.529 168.03 363.676 167.801 363.779 167.528L365.387 167.818C365.258 168.292 365.027 168.706 364.693 169.062C364.364 169.415 363.949 169.689 363.449 169.886C362.953 170.08 362.387 170.176 361.75 170.176ZM371.408 173.273C371.154 173.273 370.923 173.252 370.715 173.21C370.506 173.172 370.351 173.131 370.249 173.085L370.658 171.693C370.968 171.777 371.245 171.813 371.487 171.801C371.73 171.79 371.944 171.699 372.129 171.528C372.319 171.358 372.485 171.08 372.629 170.693L372.84 170.114L369.646 161.273H371.465L373.675 168.045H373.766L375.976 161.273H377.8L374.203 171.165C374.037 171.619 373.824 172.004 373.567 172.318C373.309 172.636 373.002 172.875 372.646 173.034C372.29 173.193 371.877 173.273 371.408 173.273ZM382.136 170.176C381.318 170.176 380.603 169.989 379.994 169.614C379.384 169.239 378.91 168.714 378.573 168.04C378.236 167.366 378.068 166.578 378.068 165.676C378.068 164.771 378.236 163.979 378.573 163.301C378.91 162.623 379.384 162.097 379.994 161.722C380.603 161.347 381.318 161.159 382.136 161.159C382.954 161.159 383.668 161.347 384.278 161.722C384.888 162.097 385.361 162.623 385.698 163.301C386.035 163.979 386.204 164.771 386.204 165.676C386.204 166.578 386.035 167.366 385.698 168.04C385.361 168.714 384.888 169.239 384.278 169.614C383.668 169.989 382.954 170.176 382.136 170.176ZM382.141 168.75C382.672 168.75 383.111 168.61 383.46 168.33C383.808 168.049 384.066 167.676 384.232 167.21C384.403 166.744 384.488 166.231 384.488 165.67C384.488 165.114 384.403 164.602 384.232 164.136C384.066 163.667 383.808 163.29 383.46 163.006C383.111 162.722 382.672 162.58 382.141 162.58C381.607 162.58 381.164 162.722 380.812 163.006C380.463 163.29 380.204 163.667 380.033 164.136C379.867 164.602 379.783 165.114 379.783 165.67C379.783 166.231 379.867 166.744 380.033 167.21C380.204 167.676 380.463 168.049 380.812 168.33C381.164 168.61 381.607 168.75 382.141 168.75ZM392.989 166.381V161.273H394.693V170H393.023V168.489H392.932C392.731 168.955 392.409 169.343 391.966 169.653C391.526 169.96 390.979 170.114 390.324 170.114C389.763 170.114 389.267 169.991 388.835 169.744C388.407 169.494 388.07 169.125 387.824 168.636C387.581 168.148 387.46 167.544 387.46 166.824V161.273H389.159V166.619C389.159 167.214 389.324 167.687 389.653 168.04C389.983 168.392 390.411 168.568 390.937 168.568C391.256 168.568 391.572 168.489 391.886 168.33C392.204 168.17 392.468 167.93 392.676 167.608C392.888 167.286 392.992 166.877 392.989 166.381ZM396.336 170V161.273H397.978V162.659H398.069C398.228 162.189 398.508 161.82 398.91 161.551C399.315 161.278 399.773 161.142 400.285 161.142C400.391 161.142 400.516 161.146 400.66 161.153C400.807 161.161 400.923 161.17 401.006 161.182V162.807C400.938 162.788 400.817 162.767 400.643 162.744C400.468 162.718 400.294 162.705 400.12 162.705C399.718 162.705 399.36 162.79 399.046 162.96C398.735 163.127 398.489 163.36 398.307 163.659C398.126 163.955 398.035 164.292 398.035 164.67V170H396.336ZM411.971 163.403L410.431 163.676C410.366 163.479 410.264 163.292 410.124 163.114C409.988 162.936 409.802 162.79 409.567 162.676C409.332 162.562 409.039 162.506 408.686 162.506C408.205 162.506 407.804 162.614 407.482 162.83C407.16 163.042 406.999 163.316 406.999 163.653C406.999 163.945 407.107 164.18 407.323 164.358C407.539 164.536 407.887 164.682 408.368 164.795L409.755 165.114C410.558 165.299 411.156 165.585 411.55 165.972C411.944 166.358 412.141 166.86 412.141 167.477C412.141 168 411.99 168.466 411.686 168.875C411.387 169.28 410.969 169.598 410.431 169.83C409.897 170.061 409.277 170.176 408.573 170.176C407.596 170.176 406.798 169.968 406.181 169.551C405.563 169.131 405.185 168.534 405.044 167.761L406.686 167.511C406.789 167.939 406.999 168.263 407.317 168.483C407.635 168.699 408.05 168.807 408.561 168.807C409.118 168.807 409.563 168.691 409.897 168.46C410.23 168.225 410.397 167.939 410.397 167.602C410.397 167.33 410.294 167.1 410.09 166.915C409.889 166.729 409.58 166.589 409.164 166.494L407.686 166.17C406.872 165.985 406.27 165.689 405.88 165.284C405.493 164.879 405.3 164.366 405.3 163.744C405.3 163.229 405.444 162.778 405.732 162.392C406.02 162.006 406.418 161.705 406.925 161.489C407.433 161.269 408.014 161.159 408.669 161.159C409.613 161.159 410.355 161.364 410.897 161.773C411.438 162.178 411.796 162.722 411.971 163.403ZM417.443 161.273V162.636H412.676V161.273H417.443ZM413.954 159.182H415.653V167.438C415.653 167.767 415.702 168.015 415.801 168.182C415.899 168.345 416.026 168.456 416.181 168.517C416.341 168.574 416.513 168.602 416.698 168.602C416.835 168.602 416.954 168.593 417.056 168.574C417.159 168.555 417.238 168.54 417.295 168.528L417.602 169.932C417.503 169.97 417.363 170.008 417.181 170.045C417 170.087 416.772 170.11 416.5 170.114C416.053 170.121 415.636 170.042 415.25 169.875C414.863 169.708 414.551 169.451 414.312 169.102C414.073 168.754 413.954 168.316 413.954 167.79V159.182ZM418.682 170V161.273H420.324V162.659H420.415C420.574 162.189 420.854 161.82 421.256 161.551C421.661 161.278 422.12 161.142 422.631 161.142C422.737 161.142 422.862 161.146 423.006 161.153C423.154 161.161 423.269 161.17 423.353 161.182V162.807C423.284 162.788 423.163 162.767 422.989 162.744C422.815 162.718 422.64 162.705 422.466 162.705C422.065 162.705 421.707 162.79 421.392 162.96C421.082 163.127 420.835 163.36 420.654 163.659C420.472 163.955 420.381 164.292 420.381 164.67V170H418.682ZM426.644 170.193C426.091 170.193 425.591 170.091 425.144 169.886C424.697 169.678 424.343 169.377 424.082 168.983C423.824 168.589 423.695 168.106 423.695 167.534C423.695 167.042 423.79 166.636 423.98 166.318C424.169 166 424.425 165.748 424.747 165.562C425.069 165.377 425.428 165.237 425.826 165.142C426.224 165.047 426.629 164.975 427.042 164.926C427.565 164.866 427.989 164.816 428.315 164.778C428.641 164.737 428.877 164.67 429.025 164.58C429.173 164.489 429.247 164.341 429.247 164.136V164.097C429.247 163.6 429.106 163.216 428.826 162.943C428.55 162.67 428.137 162.534 427.587 162.534C427.016 162.534 426.565 162.661 426.235 162.915C425.909 163.165 425.684 163.443 425.559 163.75L423.962 163.386C424.152 162.856 424.428 162.428 424.792 162.102C425.159 161.773 425.582 161.534 426.059 161.386C426.536 161.235 427.038 161.159 427.565 161.159C427.913 161.159 428.283 161.201 428.673 161.284C429.067 161.364 429.434 161.511 429.775 161.727C430.12 161.943 430.402 162.252 430.622 162.653C430.841 163.051 430.951 163.568 430.951 164.205V170H429.292V168.807H429.224C429.114 169.027 428.949 169.242 428.73 169.455C428.51 169.667 428.228 169.843 427.883 169.983C427.538 170.123 427.125 170.193 426.644 170.193ZM427.014 168.83C427.483 168.83 427.885 168.737 428.218 168.551C428.555 168.366 428.811 168.123 428.985 167.824C429.163 167.521 429.252 167.197 429.252 166.852V165.727C429.192 165.788 429.074 165.845 428.9 165.898C428.73 165.947 428.534 165.991 428.315 166.028C428.095 166.062 427.881 166.095 427.673 166.125C427.464 166.152 427.29 166.174 427.15 166.193C426.82 166.235 426.519 166.305 426.247 166.403C425.978 166.502 425.762 166.644 425.599 166.83C425.44 167.011 425.36 167.254 425.36 167.557C425.36 167.977 425.516 168.295 425.826 168.511C426.137 168.723 426.533 168.83 427.014 168.83ZM436.648 161.273V162.636H431.881V161.273H436.648ZM433.159 159.182H434.858V167.438C434.858 167.767 434.907 168.015 435.006 168.182C435.104 168.345 435.231 168.456 435.386 168.517C435.546 168.574 435.718 168.602 435.903 168.602C436.04 168.602 436.159 168.593 436.261 168.574C436.364 168.555 436.443 168.54 436.5 168.528L436.807 169.932C436.708 169.97 436.568 170.008 436.386 170.045C436.205 170.087 435.977 170.11 435.705 170.114C435.258 170.121 434.841 170.042 434.455 169.875C434.068 169.708 433.756 169.451 433.517 169.102C433.278 168.754 433.159 168.316 433.159 167.79V159.182ZM441.555 170.176C440.695 170.176 439.954 169.992 439.333 169.625C438.716 169.254 438.238 168.733 437.901 168.062C437.568 167.388 437.401 166.598 437.401 165.693C437.401 164.799 437.568 164.011 437.901 163.33C438.238 162.648 438.708 162.116 439.31 161.733C439.916 161.35 440.625 161.159 441.435 161.159C441.928 161.159 442.405 161.241 442.867 161.403C443.329 161.566 443.744 161.822 444.111 162.17C444.479 162.519 444.769 162.972 444.981 163.528C445.193 164.081 445.299 164.754 445.299 165.545V166.148H438.361V164.875H443.634C443.634 164.428 443.543 164.032 443.361 163.688C443.18 163.339 442.924 163.064 442.594 162.864C442.269 162.663 441.886 162.562 441.447 162.562C440.969 162.562 440.553 162.68 440.197 162.915C439.844 163.146 439.572 163.449 439.379 163.824C439.189 164.195 439.094 164.598 439.094 165.034V166.028C439.094 166.612 439.197 167.108 439.401 167.517C439.61 167.926 439.899 168.239 440.271 168.455C440.642 168.667 441.075 168.773 441.572 168.773C441.894 168.773 442.187 168.727 442.452 168.636C442.718 168.542 442.947 168.402 443.14 168.216C443.333 168.03 443.481 167.801 443.583 167.528L445.191 167.818C445.062 168.292 444.831 168.706 444.498 169.062C444.168 169.415 443.754 169.689 443.254 169.886C442.757 170.08 442.191 170.176 441.555 170.176ZM450.203 173.455C449.51 173.455 448.913 173.364 448.413 173.182C447.917 173 447.512 172.759 447.197 172.46C446.883 172.161 446.648 171.833 446.493 171.477L447.953 170.875C448.055 171.042 448.192 171.218 448.362 171.403C448.536 171.593 448.771 171.754 449.067 171.886C449.366 172.019 449.75 172.085 450.22 172.085C450.864 172.085 451.396 171.928 451.817 171.614C452.237 171.303 452.447 170.807 452.447 170.125V168.409H452.339C452.237 168.595 452.089 168.801 451.896 169.028C451.707 169.256 451.445 169.453 451.112 169.619C450.779 169.786 450.345 169.869 449.811 169.869C449.122 169.869 448.5 169.708 447.947 169.386C447.398 169.061 446.962 168.581 446.641 167.949C446.322 167.312 446.163 166.53 446.163 165.602C446.163 164.674 446.32 163.879 446.635 163.216C446.953 162.553 447.389 162.045 447.942 161.693C448.495 161.337 449.122 161.159 449.822 161.159C450.364 161.159 450.802 161.25 451.135 161.432C451.468 161.61 451.728 161.818 451.913 162.057C452.103 162.295 452.248 162.506 452.351 162.688H452.476V161.273H454.141V170.193C454.141 170.943 453.966 171.559 453.618 172.04C453.269 172.521 452.798 172.877 452.203 173.108C451.612 173.339 450.945 173.455 450.203 173.455ZM450.186 168.46C450.675 168.46 451.087 168.347 451.425 168.119C451.766 167.888 452.023 167.559 452.197 167.131C452.375 166.699 452.464 166.182 452.464 165.58C452.464 164.992 452.377 164.475 452.203 164.028C452.029 163.581 451.773 163.233 451.436 162.983C451.099 162.729 450.682 162.602 450.186 162.602C449.675 162.602 449.248 162.735 448.908 163C448.567 163.261 448.309 163.617 448.135 164.068C447.964 164.519 447.879 165.023 447.879 165.58C447.879 166.152 447.966 166.653 448.141 167.085C448.315 167.517 448.572 167.854 448.913 168.097C449.258 168.339 449.682 168.46 450.186 168.46ZM456.853 173.273C456.599 173.273 456.368 173.252 456.16 173.21C455.951 173.172 455.796 173.131 455.694 173.085L456.103 171.693C456.413 171.777 456.69 171.813 456.932 171.801C457.175 171.79 457.389 171.699 457.574 171.528C457.764 171.358 457.93 171.08 458.074 170.693L458.285 170.114L455.091 161.273H456.91L459.12 168.045H459.211L461.421 161.273H463.245L459.648 171.165C459.482 171.619 459.269 172.004 459.012 172.318C458.754 172.636 458.447 172.875 458.091 173.034C457.735 173.193 457.322 173.273 456.853 173.273Z" fill="#D0D8DA"/>
<path d="M490.121 22.1213L469.879 1.87868C469.316 1.31607 468.553 1 467.757 1H133C131.343 1 130 2.34315 130 4V197C130 198.657 131.343 200 133 200H488C489.657 200 491 198.657 491 197V24.2426C491 23.447 490.684 22.6839 490.121 22.1213Z" stroke="url(#paint1_linear_953_1498)"/>
<path d="M491 46V24.2426C491 23.447 490.684 22.6839 490.121 22.1213L469.879 1.87868C469.316 1.31607 468.553 1 467.757 1H446" stroke="#D0D8DA"/>
<defs>
<filter id="filter1_d_953_1498" x="0" y="60.9998" width="20" height="20" filterUnits="userSpaceOnUse" color-interpolation-filters="sRGB">
<feFlood flood-opacity="0" result="BackgroundImageFix"/>
<feColorMatrix in="SourceAlpha" type="matrix" values="0 0 0 0 0 0 0 0 0 0 0 0 0 0 0 0 0 0 127 0" result="hardAlpha"/>
<feOffset/>
<feGaussianBlur stdDeviation="2.5"/>
<feComposite in2="hardAlpha" operator="out"/>
<feColorMatrix type="matrix" values="0 0 0 0 0.803922 0 0 0 0 0.968627 0 0 0 0 1 0 0 0 0.5 0"/>
<feBlend mode="normal" in2="BackgroundImageFix" result="effect1_dropShadow_953_1498"/>
<feBlend mode="normal" in="SourceGraphic" in2="effect1_dropShadow_953_1498" result="shape"/>
</filter>
<linearGradient id="paint0_linear_953_1498" x1="128.732" y1="108.2" x2="17.9831" y2="70.2338" gradientUnits="userSpaceOnUse">
<stop stop-color="#33454E"/>
<stop offset="1" stop-color="#799AA7"/>
</linearGradient>
<linearGradient id="paint1_linear_953_1498" x1="114.058" y1="194.067" x2="457.904" y2="-35.4643" gradientUnits="userSpaceOnUse">
<stop stop-color="#3E5967"/>
<stop offset="1" stop-color="#1D262B"/>
</linearGradient>
<clipPath id="clip0_953_1498">
<rect y="81" width="20" height="20" rx="10" transform="rotate(-90 0 81)" fill="white"/>
</clipPath>
</defs>
</svg>
