<svg width="486" height="201" viewBox="0 0 486 201" fill="none" xmlns="http://www.w3.org/2000/svg">
<path d="M472 165L420.343 125H362" stroke="url(#paint0_linear_953_1483)"/>
<g clip-path="url(#clip0_953_1483)">
<rect x="466" y="179" width="20" height="20" rx="10" transform="rotate(-90 466 179)" fill="#334650" fill-opacity="0.25"/>
<g filter="url(#filter1_d_953_1483)">
<circle cx="476" cy="169" r="5" transform="rotate(-90 476 169)" fill="#51E3FF"/>
</g>
</g>
<path d="M323.999 34.468C326.576 34.468 328.666 32.3493 328.666 29.734C328.666 27.1186 326.576 25 323.999 25C321.423 25 319.333 27.1186 319.333 29.734C319.333 32.3493 321.423 34.468 323.999 34.468Z" fill="#1EDBFF"/>
<path d="M315.629 34.3663C317.744 33.9168 319.333 32.0129 319.333 29.734C319.333 27.1186 317.244 25 314.666 25C312.088 25 310 27.1186 310 29.734C310 32.0143 311.589 33.9168 313.704 34.3663C311.589 34.8158 310 36.7197 310 38.9987C310 41.614 312.09 43.7327 314.666 43.7327C317.243 43.7327 319.333 41.6126 319.333 38.9987C319.333 36.7197 317.744 34.8158 315.629 34.3663Z" fill="#1EDBFF"/>
<path d="M324.001 43.5322C321.425 43.5322 319.335 45.6508 319.335 48.2662C319.335 50.8816 321.425 53.0002 324.001 53.0002C326.578 53.0002 328.668 50.8816 328.668 48.2662C328.668 45.6508 326.578 43.5322 324.001 43.5322Z" fill="#1EDBFF"/>
<path d="M334.296 43.6329C336.411 43.1834 338 41.2795 338 38.9991C338 36.3852 335.91 34.2651 333.333 34.2651C330.757 34.2651 328.667 36.3852 328.667 38.9991C328.667 41.2795 330.256 43.182 332.371 43.6329C330.256 44.0824 328.667 45.9863 328.667 48.2653C328.667 50.8806 330.755 52.9992 333.333 52.9992C335.911 52.9992 338 50.8806 338 48.2653C338 45.9849 336.411 44.0824 334.296 43.6329Z" fill="#1EDBFF"/>
<path d="M39.016 99.92V108.208C39.016 110.213 38.472 111.728 37.384 112.752C36.296 113.776 34.7173 114.288 32.648 114.288C30.536 114.288 28.9147 113.701 27.784 112.528C26.6747 111.355 26.12 109.627 26.12 107.344V90.416C26.12 88.1547 26.6747 86.4373 27.784 85.264C28.9147 84.0907 30.536 83.504 32.648 83.504C36.8933 83.504 39.016 85.5307 39.016 89.584V96.944H34.088V89.424C34.088 88.8907 33.96 88.464 33.704 88.144C33.448 87.824 33.1067 87.664 32.68 87.664C32.232 87.664 31.8693 87.824 31.592 88.144C31.336 88.464 31.208 88.8907 31.208 89.424V108.336C31.208 108.869 31.336 109.296 31.592 109.616C31.8693 109.936 32.232 110.096 32.68 110.096C33.1067 110.096 33.448 109.936 33.704 109.616C33.96 109.296 34.088 108.869 34.088 108.336V99.92H39.016ZM49.1505 83.76H54.1425V114H49.1505V100.592H46.4305V114H41.4385V83.76H46.4305V96.336H49.1505V83.76ZM65.1953 114L64.6833 107.536L61.1633 107.504L60.6513 114H55.4992L59.0833 83.76H66.8913L70.4113 114H65.1953ZM61.5153 103.408H64.3633L63.5633 92.88L63.1153 88.4H62.7633L62.3473 92.88L61.5153 103.408ZM81.8573 83.76V88.016H78.0813V114H73.0893V88.016H69.2812V83.76H81.8573ZM97.7863 104.496L98.2343 98.32L99.8023 83.76H106.938V114H102.234L102.266 103.344L102.49 92.88H102.17L99.9623 114H95.1302L93.0183 92.848H92.6983L92.9543 103.344V114H88.2823V83.76H95.4503L96.9863 98.32L97.4663 104.496H97.7863ZM115.929 83.504C118.084 83.504 119.716 84.0907 120.825 85.264C121.956 86.4373 122.521 88.1547 122.521 90.416V107.344C122.521 109.627 121.956 111.355 120.825 112.528C119.716 113.701 118.084 114.288 115.929 114.288C113.817 114.288 112.196 113.701 111.065 112.528C109.956 111.355 109.401 109.627 109.401 107.344V90.416C109.401 88.1547 109.956 86.4373 111.065 85.264C112.196 84.0907 113.817 83.504 115.929 83.504ZM117.433 108.336V89.424C117.433 88.8907 117.295 88.464 117.017 88.144C116.761 87.824 116.409 87.664 115.961 87.664C115.513 87.664 115.151 87.824 114.873 88.144C114.617 88.464 114.489 88.8907 114.489 89.424V108.336C114.489 108.869 114.617 109.296 114.873 109.616C115.151 109.936 115.513 110.096 115.961 110.096C116.409 110.096 116.761 109.936 117.017 109.616C117.295 109.296 117.433 108.869 117.433 108.336ZM131.752 83.76C133.672 83.76 135.166 84.304 136.232 85.392C137.32 86.4587 137.864 88.048 137.864 90.16V107.664C137.864 109.733 137.32 111.312 136.232 112.4C135.144 113.467 133.651 114 131.752 114H125.032V83.76H131.752ZM132.808 107.984V89.776C132.808 89.2213 132.67 88.7947 132.392 88.496C132.136 88.176 131.784 88.016 131.336 88.016H130.024V109.744H131.304C131.774 109.744 132.136 109.595 132.392 109.296C132.67 108.976 132.808 108.539 132.808 107.984ZM145.399 109.744H150.711V114H140.407V83.76H150.647V88.016H145.399V96.4H150.263V100.528H145.399V109.744Z" fill="white"/>
<path d="M30.0455 146H26.2784V134.364H30.1648C31.3049 134.364 32.2841 134.597 33.1023 135.062C33.9205 135.525 34.5473 136.189 34.983 137.057C35.4223 137.92 35.642 138.956 35.642 140.165C35.642 141.377 35.4205 142.419 34.9773 143.29C34.5379 144.161 33.9015 144.831 33.0682 145.301C32.2348 145.767 31.2273 146 30.0455 146ZM28.0341 144.466H29.9489C30.8352 144.466 31.572 144.299 32.1591 143.966C32.7462 143.629 33.1856 143.142 33.4773 142.506C33.7689 141.866 33.9148 141.085 33.9148 140.165C33.9148 139.252 33.7689 138.477 33.4773 137.841C33.1894 137.205 32.7595 136.722 32.1875 136.392C31.6155 136.062 30.9053 135.898 30.0568 135.898H28.0341V144.466ZM37.0489 146V137.273H38.7478V146H37.0489ZM37.9069 135.926C37.6114 135.926 37.3576 135.828 37.1455 135.631C36.9372 135.43 36.833 135.191 36.833 134.915C36.833 134.634 36.9372 134.396 37.1455 134.199C37.3576 133.998 37.6114 133.898 37.9069 133.898C38.2023 133.898 38.4542 133.998 38.6626 134.199C38.8747 134.396 38.9807 134.634 38.9807 134.915C38.9807 135.191 38.8747 135.43 38.6626 135.631C38.4542 135.828 38.2023 135.926 37.9069 135.926ZM47.8592 137.273L44.6944 146H42.8763L39.7058 137.273H41.5297L43.7399 143.989H43.8308L46.0353 137.273H47.8592ZM52.2803 146.176C51.4204 146.176 50.6799 145.992 50.0587 145.625C49.4413 145.254 48.964 144.733 48.6269 144.062C48.2935 143.388 48.1269 142.598 48.1269 141.693C48.1269 140.799 48.2935 140.011 48.6269 139.33C48.964 138.648 49.4337 138.116 50.036 137.733C50.642 137.35 51.3504 137.159 52.161 137.159C52.6534 137.159 53.1307 137.241 53.5928 137.403C54.0549 137.566 54.4697 137.822 54.8371 138.17C55.2045 138.519 55.4943 138.972 55.7064 139.528C55.9185 140.081 56.0246 140.754 56.0246 141.545V142.148H49.0871V140.875H54.3598C54.3598 140.428 54.2689 140.032 54.0871 139.688C53.9053 139.339 53.6496 139.064 53.3201 138.864C52.9943 138.663 52.6117 138.562 52.1723 138.562C51.6951 138.562 51.2784 138.68 50.9223 138.915C50.5701 139.146 50.2973 139.449 50.1041 139.824C49.9148 140.195 49.8201 140.598 49.8201 141.034V142.028C49.8201 142.612 49.9223 143.108 50.1269 143.517C50.3352 143.926 50.625 144.239 50.9962 144.455C51.3674 144.667 51.8011 144.773 52.2973 144.773C52.6193 144.773 52.9129 144.727 53.178 144.636C53.4432 144.542 53.6723 144.402 53.8655 144.216C54.0587 144.03 54.2064 143.801 54.3087 143.528L55.9166 143.818C55.7879 144.292 55.5568 144.706 55.2235 145.062C54.8939 145.415 54.4791 145.689 53.9791 145.886C53.4829 146.08 52.9166 146.176 52.2803 146.176ZM64.131 146.17C63.4264 146.17 62.7976 145.991 62.2446 145.631C61.6954 145.267 61.2635 144.75 60.9491 144.08C60.6385 143.405 60.4832 142.597 60.4832 141.653C60.4832 140.71 60.6404 139.903 60.9548 139.233C61.273 138.562 61.7086 138.049 62.2616 137.693C62.8147 137.337 63.4416 137.159 64.1423 137.159C64.684 137.159 65.1196 137.25 65.4491 137.432C65.7825 137.61 66.0401 137.818 66.2219 138.057C66.4075 138.295 66.5514 138.506 66.6537 138.688H66.756V134.364H68.4548V146H66.7957V144.642H66.6537C66.5514 144.828 66.4037 145.04 66.2105 145.278C66.0211 145.517 65.7598 145.725 65.4264 145.903C65.0931 146.081 64.6613 146.17 64.131 146.17ZM64.506 144.722C64.9946 144.722 65.4075 144.593 65.7446 144.335C66.0855 144.074 66.3431 143.712 66.5173 143.25C66.6954 142.788 66.7844 142.25 66.7844 141.636C66.7844 141.03 66.6973 140.5 66.523 140.045C66.3488 139.591 66.0931 139.237 65.756 138.983C65.4188 138.729 65.0022 138.602 64.506 138.602C63.9946 138.602 63.5685 138.735 63.2276 139C62.8866 139.265 62.6291 139.627 62.4548 140.085C62.2844 140.544 62.1991 141.061 62.1991 141.636C62.1991 142.22 62.2863 142.744 62.4605 143.21C62.6348 143.676 62.8923 144.045 63.2332 144.318C63.5779 144.587 64.0022 144.722 64.506 144.722ZM74.0009 146.176C73.1411 146.176 72.4005 145.992 71.7793 145.625C71.1619 145.254 70.6846 144.733 70.3475 144.062C70.0142 143.388 69.8475 142.598 69.8475 141.693C69.8475 140.799 70.0142 140.011 70.3475 139.33C70.6846 138.648 71.1543 138.116 71.7566 137.733C72.3627 137.35 73.071 137.159 73.8816 137.159C74.374 137.159 74.8513 137.241 75.3134 137.403C75.7755 137.566 76.1903 137.822 76.5577 138.17C76.9252 138.519 77.2149 138.972 77.427 139.528C77.6392 140.081 77.7452 140.754 77.7452 141.545V142.148H70.8077V140.875H76.0805C76.0805 140.428 75.9895 140.032 75.8077 139.688C75.6259 139.339 75.3702 139.064 75.0407 138.864C74.7149 138.663 74.3323 138.562 73.893 138.562C73.4157 138.562 72.999 138.68 72.643 138.915C72.2907 139.146 72.018 139.449 71.8248 139.824C71.6354 140.195 71.5407 140.598 71.5407 141.034V142.028C71.5407 142.612 71.643 143.108 71.8475 143.517C72.0558 143.926 72.3456 144.239 72.7168 144.455C73.088 144.667 73.5217 144.773 74.018 144.773C74.3399 144.773 74.6335 144.727 74.8986 144.636C75.1638 144.542 75.393 144.402 75.5861 144.216C75.7793 144.03 75.927 143.801 76.0293 143.528L77.6373 143.818C77.5085 144.292 77.2774 144.706 76.9441 145.062C76.6145 145.415 76.1998 145.689 75.6998 145.886C75.2036 146.08 74.6373 146.176 74.0009 146.176ZM82.7515 146.176C81.8917 146.176 81.1512 145.992 80.5299 145.625C79.9125 145.254 79.4352 144.733 79.0981 144.062C78.7648 143.388 78.5981 142.598 78.5981 141.693C78.5981 140.799 78.7648 140.011 79.0981 139.33C79.4352 138.648 79.9049 138.116 80.5072 137.733C81.1133 137.35 81.8216 137.159 82.6322 137.159C83.1246 137.159 83.6019 137.241 84.064 137.403C84.5262 137.566 84.9409 137.822 85.3084 138.17C85.6758 138.519 85.9656 138.972 86.1777 139.528C86.3898 140.081 86.4959 140.754 86.4959 141.545V142.148H79.5584V140.875H84.8311C84.8311 140.428 84.7402 140.032 84.5584 139.688C84.3765 139.339 84.1209 139.064 83.7913 138.864C83.4655 138.663 83.083 138.562 82.6436 138.562C82.1663 138.562 81.7496 138.68 81.3936 138.915C81.0413 139.146 80.7686 139.449 80.5754 139.824C80.386 140.195 80.2913 140.598 80.2913 141.034V142.028C80.2913 142.612 80.3936 143.108 80.5981 143.517C80.8065 143.926 81.0962 144.239 81.4674 144.455C81.8387 144.667 82.2724 144.773 82.7686 144.773C83.0905 144.773 83.3841 144.727 83.6493 144.636C83.9144 144.542 84.1436 144.402 84.3368 144.216C84.5299 144.03 84.6777 143.801 84.7799 143.528L86.3879 143.818C86.2591 144.292 86.028 144.706 85.6947 145.062C85.3652 145.415 84.9504 145.689 84.4504 145.886C83.9542 146.08 83.3879 146.176 82.7515 146.176ZM87.7408 149.273V137.273H89.3999V138.688H89.5419C89.6404 138.506 89.7825 138.295 89.9681 138.057C90.1537 137.818 90.4113 137.61 90.7408 137.432C91.0703 137.25 91.5059 137.159 92.0476 137.159C92.7522 137.159 93.3809 137.337 93.934 137.693C94.487 138.049 94.9207 138.562 95.2351 139.233C95.5533 139.903 95.7124 140.71 95.7124 141.653C95.7124 142.597 95.5552 143.405 95.2408 144.08C94.9264 144.75 94.4946 145.267 93.9453 145.631C93.3961 145.991 92.7692 146.17 92.0647 146.17C91.5344 146.17 91.1006 146.081 90.7635 145.903C90.4302 145.725 90.1688 145.517 89.9794 145.278C89.79 145.04 89.6442 144.828 89.5419 144.642H89.4397V149.273H87.7408ZM89.4056 141.636C89.4056 142.25 89.4946 142.788 89.6726 143.25C89.8506 143.712 90.1082 144.074 90.4453 144.335C90.7825 144.593 91.1953 144.722 91.684 144.722C92.1916 144.722 92.6158 144.587 92.9567 144.318C93.2976 144.045 93.5552 143.676 93.7294 143.21C93.9075 142.744 93.9965 142.22 93.9965 141.636C93.9965 141.061 93.9094 140.544 93.7351 140.085C93.5647 139.627 93.3071 139.265 92.9624 139C92.6215 138.735 92.1953 138.602 91.684 138.602C91.1916 138.602 90.7749 138.729 90.434 138.983C90.0969 139.237 89.8412 139.591 89.6669 140.045C89.4927 140.5 89.4056 141.03 89.4056 141.636ZM100.57 146V137.273H102.269V146H100.57ZM101.428 135.926C101.133 135.926 100.879 135.828 100.667 135.631C100.458 135.43 100.354 135.191 100.354 134.915C100.354 134.634 100.458 134.396 100.667 134.199C100.879 133.998 101.133 133.898 101.428 133.898C101.724 133.898 101.975 133.998 102.184 134.199C102.396 134.396 102.502 134.634 102.502 134.915C102.502 135.191 102.396 135.43 102.184 135.631C101.975 135.828 101.724 135.926 101.428 135.926ZM105.613 140.818V146H103.915V137.273H105.545V138.693H105.653C105.854 138.231 106.168 137.86 106.596 137.58C107.028 137.299 107.572 137.159 108.227 137.159C108.822 137.159 109.343 137.284 109.79 137.534C110.237 137.78 110.583 138.148 110.829 138.636C111.076 139.125 111.199 139.729 111.199 140.449V146H109.5V140.653C109.5 140.021 109.335 139.527 109.005 139.17C108.676 138.811 108.223 138.631 107.647 138.631C107.254 138.631 106.903 138.716 106.596 138.886C106.293 139.057 106.053 139.307 105.875 139.636C105.701 139.962 105.613 140.356 105.613 140.818ZM116.911 137.273V138.636H112.144V137.273H116.911ZM113.422 135.182H115.121V143.438C115.121 143.767 115.17 144.015 115.269 144.182C115.367 144.345 115.494 144.456 115.65 144.517C115.809 144.574 115.981 144.602 116.167 144.602C116.303 144.602 116.422 144.593 116.525 144.574C116.627 144.555 116.706 144.54 116.763 144.528L117.07 145.932C116.972 145.97 116.831 146.008 116.65 146.045C116.468 146.087 116.24 146.11 115.968 146.114C115.521 146.121 115.104 146.042 114.718 145.875C114.331 145.708 114.019 145.451 113.78 145.102C113.542 144.754 113.422 144.316 113.422 143.79V135.182ZM121.733 146.176C120.914 146.176 120.2 145.989 119.591 145.614C118.981 145.239 118.507 144.714 118.17 144.04C117.833 143.366 117.664 142.578 117.664 141.676C117.664 140.771 117.833 139.979 118.17 139.301C118.507 138.623 118.981 138.097 119.591 137.722C120.2 137.347 120.914 137.159 121.733 137.159C122.551 137.159 123.265 137.347 123.875 137.722C124.484 138.097 124.958 138.623 125.295 139.301C125.632 139.979 125.801 140.771 125.801 141.676C125.801 142.578 125.632 143.366 125.295 144.04C124.958 144.714 124.484 145.239 123.875 145.614C123.265 145.989 122.551 146.176 121.733 146.176ZM121.738 144.75C122.269 144.75 122.708 144.61 123.056 144.33C123.405 144.049 123.662 143.676 123.829 143.21C124 142.744 124.085 142.231 124.085 141.67C124.085 141.114 124 140.602 123.829 140.136C123.662 139.667 123.405 139.29 123.056 139.006C122.708 138.722 122.269 138.58 121.738 138.58C121.204 138.58 120.761 138.722 120.409 139.006C120.06 139.29 119.801 139.667 119.63 140.136C119.464 140.602 119.38 141.114 119.38 141.67C119.38 142.231 119.464 142.744 119.63 143.21C119.801 143.676 120.06 144.049 120.409 144.33C120.761 144.61 121.204 144.75 121.738 144.75ZM134.725 137.273V138.636H129.958V137.273H134.725ZM131.237 135.182H132.936V143.438C132.936 143.767 132.985 144.015 133.083 144.182C133.182 144.345 133.309 144.456 133.464 144.517C133.623 144.574 133.795 144.602 133.981 144.602C134.117 144.602 134.237 144.593 134.339 144.574C134.441 144.555 134.521 144.54 134.578 144.528L134.884 145.932C134.786 145.97 134.646 146.008 134.464 146.045C134.282 146.087 134.055 146.11 133.782 146.114C133.335 146.121 132.918 146.042 132.532 145.875C132.146 145.708 131.833 145.451 131.595 145.102C131.356 144.754 131.237 144.316 131.237 143.79V135.182ZM135.965 146V137.273H137.607V138.659H137.698C137.857 138.189 138.137 137.82 138.538 137.551C138.944 137.278 139.402 137.142 139.913 137.142C140.019 137.142 140.144 137.146 140.288 137.153C140.436 137.161 140.552 137.17 140.635 137.182V138.807C140.567 138.788 140.446 138.767 140.271 138.744C140.097 138.718 139.923 138.705 139.749 138.705C139.347 138.705 138.989 138.79 138.675 138.96C138.364 139.127 138.118 139.36 137.936 139.659C137.754 139.955 137.663 140.292 137.663 140.67V146H135.965ZM144.914 146.176C144.054 146.176 143.314 145.992 142.692 145.625C142.075 145.254 141.598 144.733 141.261 144.062C140.927 143.388 140.761 142.598 140.761 141.693C140.761 140.799 140.927 140.011 141.261 139.33C141.598 138.648 142.067 138.116 142.67 137.733C143.276 137.35 143.984 137.159 144.795 137.159C145.287 137.159 145.764 137.241 146.227 137.403C146.689 137.566 147.103 137.822 147.471 138.17C147.838 138.519 148.128 138.972 148.34 139.528C148.552 140.081 148.658 140.754 148.658 141.545V142.148H141.721V140.875H146.994C146.994 140.428 146.903 140.032 146.721 139.688C146.539 139.339 146.283 139.064 145.954 138.864C145.628 138.663 145.245 138.562 144.806 138.562C144.329 138.562 143.912 138.68 143.556 138.915C143.204 139.146 142.931 139.449 142.738 139.824C142.549 140.195 142.454 140.598 142.454 141.034V142.028C142.454 142.612 142.556 143.108 142.761 143.517C142.969 143.926 143.259 144.239 143.63 144.455C144.001 144.667 144.435 144.773 144.931 144.773C145.253 144.773 145.547 144.727 145.812 144.636C146.077 144.542 146.306 144.402 146.499 144.216C146.692 144.03 146.84 143.801 146.942 143.528L148.55 143.818C148.422 144.292 148.191 144.706 147.857 145.062C147.528 145.415 147.113 145.689 146.613 145.886C146.117 146.08 145.55 146.176 144.914 146.176ZM151.602 140.818V146H149.903V137.273H151.534V138.693H151.642C151.843 138.231 152.157 137.86 152.585 137.58C153.017 137.299 153.56 137.159 154.216 137.159C154.81 137.159 155.331 137.284 155.778 137.534C156.225 137.78 156.572 138.148 156.818 138.636C157.064 139.125 157.187 139.729 157.187 140.449V146H155.489V140.653C155.489 140.021 155.324 139.527 154.994 139.17C154.665 138.811 154.212 138.631 153.636 138.631C153.242 138.631 152.892 138.716 152.585 138.886C152.282 139.057 152.042 139.307 151.864 139.636C151.689 139.962 151.602 140.356 151.602 140.818ZM162.093 146.17C161.388 146.17 160.76 145.991 160.206 145.631C159.657 145.267 159.225 144.75 158.911 144.08C158.6 143.405 158.445 142.597 158.445 141.653C158.445 140.71 158.602 139.903 158.917 139.233C159.235 138.562 159.67 138.049 160.224 137.693C160.777 137.337 161.403 137.159 162.104 137.159C162.646 137.159 163.081 137.25 163.411 137.432C163.744 137.61 164.002 137.818 164.184 138.057C164.369 138.295 164.513 138.506 164.616 138.688H164.718V134.364H166.417V146H164.758V144.642H164.616C164.513 144.828 164.366 145.04 164.172 145.278C163.983 145.517 163.722 145.725 163.388 145.903C163.055 146.081 162.623 146.17 162.093 146.17ZM162.468 144.722C162.956 144.722 163.369 144.593 163.706 144.335C164.047 144.074 164.305 143.712 164.479 143.25C164.657 142.788 164.746 142.25 164.746 141.636C164.746 141.03 164.659 140.5 164.485 140.045C164.311 139.591 164.055 139.237 163.718 138.983C163.381 138.729 162.964 138.602 162.468 138.602C161.956 138.602 161.53 138.735 161.189 139C160.849 139.265 160.591 139.627 160.417 140.085C160.246 140.544 160.161 141.061 160.161 141.636C160.161 142.22 160.248 142.744 160.422 143.21C160.597 143.676 160.854 144.045 161.195 144.318C161.54 144.587 161.964 144.722 162.468 144.722ZM174.741 139.403L173.201 139.676C173.137 139.479 173.035 139.292 172.895 139.114C172.758 138.936 172.573 138.79 172.338 138.676C172.103 138.562 171.809 138.506 171.457 138.506C170.976 138.506 170.575 138.614 170.253 138.83C169.931 139.042 169.77 139.316 169.77 139.653C169.77 139.945 169.878 140.18 170.093 140.358C170.309 140.536 170.658 140.682 171.139 140.795L172.525 141.114C173.328 141.299 173.927 141.585 174.321 141.972C174.715 142.358 174.912 142.86 174.912 143.477C174.912 144 174.76 144.466 174.457 144.875C174.158 145.28 173.739 145.598 173.201 145.83C172.667 146.061 172.048 146.176 171.343 146.176C170.366 146.176 169.569 145.968 168.951 145.551C168.334 145.131 167.955 144.534 167.815 143.761L169.457 143.511C169.559 143.939 169.77 144.263 170.088 144.483C170.406 144.699 170.821 144.807 171.332 144.807C171.889 144.807 172.334 144.691 172.667 144.46C173.001 144.225 173.167 143.939 173.167 143.602C173.167 143.33 173.065 143.1 172.861 142.915C172.66 142.729 172.351 142.589 171.934 142.494L170.457 142.17C169.643 141.985 169.04 141.689 168.65 141.284C168.264 140.879 168.071 140.366 168.071 139.744C168.071 139.229 168.215 138.778 168.503 138.392C168.79 138.006 169.188 137.705 169.696 137.489C170.203 137.269 170.785 137.159 171.44 137.159C172.383 137.159 173.126 137.364 173.667 137.773C174.209 138.178 174.567 138.722 174.741 139.403ZM178.35 144.409L178.265 145.028C178.208 145.483 178.111 145.956 177.975 146.449C177.842 146.945 177.704 147.405 177.56 147.83C177.42 148.254 177.304 148.591 177.213 148.841H176.009C176.058 148.606 176.126 148.288 176.213 147.886C176.301 147.489 176.386 147.044 176.469 146.551C176.552 146.059 176.615 145.557 176.657 145.045L176.713 144.409H178.35ZM187.59 137.273V138.636H182.823V137.273H187.59ZM184.101 135.182H185.8V143.438C185.8 143.767 185.849 144.015 185.948 144.182C186.046 144.345 186.173 144.456 186.328 144.517C186.487 144.574 186.66 144.602 186.845 144.602C186.982 144.602 187.101 144.593 187.203 144.574C187.306 144.555 187.385 144.54 187.442 144.528L187.749 145.932C187.65 145.97 187.51 146.008 187.328 146.045C187.146 146.087 186.919 146.11 186.646 146.114C186.2 146.121 185.783 146.042 185.396 145.875C185.01 145.708 184.698 145.451 184.459 145.102C184.22 144.754 184.101 144.316 184.101 143.79V135.182ZM192.411 146.176C191.593 146.176 190.879 145.989 190.269 145.614C189.659 145.239 189.186 144.714 188.849 144.04C188.512 143.366 188.343 142.578 188.343 141.676C188.343 140.771 188.512 139.979 188.849 139.301C189.186 138.623 189.659 138.097 190.269 137.722C190.879 137.347 191.593 137.159 192.411 137.159C193.229 137.159 193.944 137.347 194.553 137.722C195.163 138.097 195.637 138.623 195.974 139.301C196.311 139.979 196.479 140.771 196.479 141.676C196.479 142.578 196.311 143.366 195.974 144.04C195.637 144.714 195.163 145.239 194.553 145.614C193.944 145.989 193.229 146.176 192.411 146.176ZM192.417 144.75C192.947 144.75 193.387 144.61 193.735 144.33C194.084 144.049 194.341 143.676 194.508 143.21C194.678 142.744 194.764 142.231 194.764 141.67C194.764 141.114 194.678 140.602 194.508 140.136C194.341 139.667 194.084 139.29 193.735 139.006C193.387 138.722 192.947 138.58 192.417 138.58C191.883 138.58 191.44 138.722 191.087 139.006C190.739 139.29 190.479 139.667 190.309 140.136C190.142 140.602 190.059 141.114 190.059 141.67C190.059 142.231 190.142 142.744 190.309 143.21C190.479 143.676 190.739 144.049 191.087 144.33C191.44 144.61 191.883 144.75 192.417 144.75ZM199.298 143.04L199.287 140.966H199.582L203.06 137.273H205.094L201.128 141.477H200.861L199.298 143.04ZM197.736 146V134.364H199.435V146H197.736ZM203.247 146L200.122 141.852L201.293 140.665L205.332 146H203.247ZM209.404 146.176C208.544 146.176 207.804 145.992 207.182 145.625C206.565 145.254 206.088 144.733 205.751 144.062C205.417 143.388 205.251 142.598 205.251 141.693C205.251 140.799 205.417 140.011 205.751 139.33C206.088 138.648 206.557 138.116 207.16 137.733C207.766 137.35 208.474 137.159 209.285 137.159C209.777 137.159 210.254 137.241 210.717 137.403C211.179 137.566 211.593 137.822 211.961 138.17C212.328 138.519 212.618 138.972 212.83 139.528C213.042 140.081 213.148 140.754 213.148 141.545V142.148H206.211V140.875H211.484C211.484 140.428 211.393 140.032 211.211 139.688C211.029 139.339 210.773 139.064 210.444 138.864C210.118 138.663 209.735 138.562 209.296 138.562C208.819 138.562 208.402 138.68 208.046 138.915C207.694 139.146 207.421 139.449 207.228 139.824C207.039 140.195 206.944 140.598 206.944 141.034V142.028C206.944 142.612 207.046 143.108 207.251 143.517C207.459 143.926 207.749 144.239 208.12 144.455C208.491 144.667 208.925 144.773 209.421 144.773C209.743 144.773 210.037 144.727 210.302 144.636C210.567 144.542 210.796 144.402 210.989 144.216C211.182 144.03 211.33 143.801 211.432 143.528L213.04 143.818C212.912 144.292 212.681 144.706 212.347 145.062C212.018 145.415 211.603 145.689 211.103 145.886C210.607 146.08 210.04 146.176 209.404 146.176ZM216.092 140.818V146H214.393V137.273H216.024V138.693H216.132C216.333 138.231 216.647 137.86 217.075 137.58C217.507 137.299 218.05 137.159 218.706 137.159C219.3 137.159 219.821 137.284 220.268 137.534C220.715 137.78 221.062 138.148 221.308 138.636C221.554 139.125 221.677 139.729 221.677 140.449V146H219.979V140.653C219.979 140.021 219.814 139.527 219.484 139.17C219.155 138.811 218.702 138.631 218.126 138.631C217.732 138.631 217.382 138.716 217.075 138.886C216.772 139.057 216.532 139.307 216.354 139.636C216.179 139.962 216.092 140.356 216.092 140.818ZM229.856 139.403L228.316 139.676C228.251 139.479 228.149 139.292 228.009 139.114C227.873 138.936 227.687 138.79 227.452 138.676C227.217 138.562 226.924 138.506 226.571 138.506C226.09 138.506 225.689 138.614 225.367 138.83C225.045 139.042 224.884 139.316 224.884 139.653C224.884 139.945 224.992 140.18 225.208 140.358C225.424 140.536 225.772 140.682 226.253 140.795L227.64 141.114C228.443 141.299 229.041 141.585 229.435 141.972C229.829 142.358 230.026 142.86 230.026 143.477C230.026 144 229.875 144.466 229.571 144.875C229.272 145.28 228.854 145.598 228.316 145.83C227.782 146.061 227.162 146.176 226.458 146.176C225.481 146.176 224.683 145.968 224.066 145.551C223.448 145.131 223.07 144.534 222.929 143.761L224.571 143.511C224.674 143.939 224.884 144.263 225.202 144.483C225.52 144.699 225.935 144.807 226.446 144.807C227.003 144.807 227.448 144.691 227.782 144.46C228.115 144.225 228.282 143.939 228.282 143.602C228.282 143.33 228.179 143.1 227.975 142.915C227.774 142.729 227.465 142.589 227.049 142.494L225.571 142.17C224.757 141.985 224.155 141.689 223.765 141.284C223.378 140.879 223.185 140.366 223.185 139.744C223.185 139.229 223.329 138.778 223.617 138.392C223.905 138.006 224.303 137.705 224.81 137.489C225.318 137.269 225.899 137.159 226.554 137.159C227.498 137.159 228.24 137.364 228.782 137.773C229.323 138.178 229.681 138.722 229.856 139.403ZM233.464 144.409L233.379 145.028C233.322 145.483 233.226 145.956 233.089 146.449C232.957 146.945 232.818 147.405 232.674 147.83C232.534 148.254 232.419 148.591 232.328 148.841H231.123C231.172 148.606 231.241 148.288 231.328 147.886C231.415 147.489 231.5 147.044 231.583 146.551C231.667 146.059 231.729 145.557 231.771 145.045L231.828 144.409H233.464ZM241.17 146.193C240.617 146.193 240.117 146.091 239.67 145.886C239.223 145.678 238.869 145.377 238.607 144.983C238.35 144.589 238.221 144.106 238.221 143.534C238.221 143.042 238.316 142.636 238.505 142.318C238.695 142 238.95 141.748 239.272 141.562C239.594 141.377 239.954 141.237 240.352 141.142C240.749 141.047 241.155 140.975 241.568 140.926C242.09 140.866 242.515 140.816 242.84 140.778C243.166 140.737 243.403 140.67 243.551 140.58C243.698 140.489 243.772 140.341 243.772 140.136V140.097C243.772 139.6 243.632 139.216 243.352 138.943C243.075 138.67 242.662 138.534 242.113 138.534C241.541 138.534 241.09 138.661 240.761 138.915C240.435 139.165 240.21 139.443 240.085 139.75L238.488 139.386C238.678 138.856 238.954 138.428 239.318 138.102C239.685 137.773 240.107 137.534 240.585 137.386C241.062 137.235 241.564 137.159 242.09 137.159C242.439 137.159 242.808 137.201 243.198 137.284C243.592 137.364 243.96 137.511 244.301 137.727C244.645 137.943 244.928 138.252 245.147 138.653C245.367 139.051 245.477 139.568 245.477 140.205V146H243.818V144.807H243.749C243.64 145.027 243.475 145.242 243.255 145.455C243.035 145.667 242.753 145.843 242.409 145.983C242.064 146.123 241.651 146.193 241.17 146.193ZM241.539 144.83C242.009 144.83 242.41 144.737 242.744 144.551C243.081 144.366 243.337 144.123 243.511 143.824C243.689 143.521 243.778 143.197 243.778 142.852V141.727C243.717 141.788 243.6 141.845 243.426 141.898C243.255 141.947 243.06 141.991 242.84 142.028C242.621 142.062 242.407 142.095 242.198 142.125C241.99 142.152 241.816 142.174 241.676 142.193C241.346 142.235 241.045 142.305 240.772 142.403C240.503 142.502 240.287 142.644 240.124 142.83C239.965 143.011 239.886 143.254 239.886 143.557C239.886 143.977 240.041 144.295 240.352 144.511C240.662 144.723 241.058 144.83 241.539 144.83ZM248.798 140.818V146H247.1V137.273H248.73V138.693H248.838C249.039 138.231 249.353 137.86 249.781 137.58C250.213 137.299 250.757 137.159 251.412 137.159C252.007 137.159 252.528 137.284 252.975 137.534C253.422 137.78 253.768 138.148 254.014 138.636C254.261 139.125 254.384 139.729 254.384 140.449V146H252.685V140.653C252.685 140.021 252.52 139.527 252.19 139.17C251.861 138.811 251.408 138.631 250.833 138.631C250.439 138.631 250.088 138.716 249.781 138.886C249.478 139.057 249.238 139.307 249.06 139.636C248.886 139.962 248.798 140.356 248.798 140.818ZM259.289 146.17C258.585 146.17 257.956 145.991 257.403 145.631C256.853 145.267 256.422 144.75 256.107 144.08C255.797 143.405 255.641 142.597 255.641 141.653C255.641 140.71 255.799 139.903 256.113 139.233C256.431 138.562 256.867 138.049 257.42 137.693C257.973 137.337 258.6 137.159 259.3 137.159C259.842 137.159 260.278 137.25 260.607 137.432C260.941 137.61 261.198 137.818 261.38 138.057C261.566 138.295 261.71 138.506 261.812 138.688H261.914V134.364H263.613V146H261.954V144.642H261.812C261.71 144.828 261.562 145.04 261.369 145.278C261.179 145.517 260.918 145.725 260.585 145.903C260.251 146.081 259.819 146.17 259.289 146.17ZM259.664 144.722C260.153 144.722 260.566 144.593 260.903 144.335C261.244 144.074 261.501 143.712 261.675 143.25C261.853 142.788 261.943 142.25 261.943 141.636C261.943 141.03 261.855 140.5 261.681 140.045C261.507 139.591 261.251 139.237 260.914 138.983C260.577 138.729 260.16 138.602 259.664 138.602C259.153 138.602 258.727 138.735 258.386 139C258.045 139.265 257.787 139.627 257.613 140.085C257.443 140.544 257.357 141.061 257.357 141.636C257.357 142.22 257.444 142.744 257.619 143.21C257.793 143.676 258.05 144.045 258.391 144.318C258.736 144.587 259.16 144.722 259.664 144.722ZM29.8182 170.176C29 170.176 28.286 169.989 27.6761 169.614C27.0663 169.239 26.5928 168.714 26.2557 168.04C25.9186 167.366 25.75 166.578 25.75 165.676C25.75 164.771 25.9186 163.979 26.2557 163.301C26.5928 162.623 27.0663 162.097 27.6761 161.722C28.286 161.347 29 161.159 29.8182 161.159C30.6364 161.159 31.3504 161.347 31.9602 161.722C32.5701 162.097 33.0436 162.623 33.3807 163.301C33.7178 163.979 33.8864 164.771 33.8864 165.676C33.8864 166.578 33.7178 167.366 33.3807 168.04C33.0436 168.714 32.5701 169.239 31.9602 169.614C31.3504 169.989 30.6364 170.176 29.8182 170.176ZM29.8239 168.75C30.3542 168.75 30.7936 168.61 31.142 168.33C31.4905 168.049 31.7481 167.676 31.9148 167.21C32.0852 166.744 32.1705 166.231 32.1705 165.67C32.1705 165.114 32.0852 164.602 31.9148 164.136C31.7481 163.667 31.4905 163.29 31.142 163.006C30.7936 162.722 30.3542 162.58 29.8239 162.58C29.2898 162.58 28.8466 162.722 28.4943 163.006C28.1458 163.29 27.8864 163.667 27.7159 164.136C27.5492 164.602 27.4659 165.114 27.4659 165.67C27.4659 166.231 27.5492 166.744 27.7159 167.21C27.8864 167.676 28.1458 168.049 28.4943 168.33C28.8466 168.61 29.2898 168.75 29.8239 168.75ZM35.1427 173.273V161.273H36.8018V162.688H36.9438C37.0423 162.506 37.1843 162.295 37.3699 162.057C37.5555 161.818 37.8131 161.61 38.1427 161.432C38.4722 161.25 38.9078 161.159 39.4495 161.159C40.154 161.159 40.7828 161.337 41.3359 161.693C41.8889 162.049 42.3226 162.562 42.637 163.233C42.9552 163.903 43.1143 164.71 43.1143 165.653C43.1143 166.597 42.9571 167.405 42.6427 168.08C42.3283 168.75 41.8965 169.267 41.3472 169.631C40.798 169.991 40.1711 170.17 39.4665 170.17C38.9362 170.17 38.5025 170.081 38.1654 169.903C37.8321 169.725 37.5707 169.517 37.3813 169.278C37.1919 169.04 37.0461 168.828 36.9438 168.642H36.8415V173.273H35.1427ZM36.8074 165.636C36.8074 166.25 36.8965 166.788 37.0745 167.25C37.2525 167.712 37.5101 168.074 37.8472 168.335C38.1843 168.593 38.5972 168.722 39.0859 168.722C39.5934 168.722 40.0177 168.587 40.3586 168.318C40.6995 168.045 40.9571 167.676 41.1313 167.21C41.3093 166.744 41.3984 166.22 41.3984 165.636C41.3984 165.061 41.3112 164.544 41.137 164.085C40.9665 163.627 40.709 163.265 40.3643 163C40.0234 162.735 39.5972 162.602 39.0859 162.602C38.5934 162.602 38.1768 162.729 37.8359 162.983C37.4987 163.237 37.243 163.591 37.0688 164.045C36.8946 164.5 36.8074 165.03 36.8074 165.636ZM44.3777 173.273V161.273H46.0368V162.688H46.1788C46.2773 162.506 46.4193 162.295 46.6049 162.057C46.7905 161.818 47.0481 161.61 47.3777 161.432C47.7072 161.25 48.1428 161.159 48.6845 161.159C49.389 161.159 50.0178 161.337 50.5709 161.693C51.1239 162.049 51.5576 162.562 51.872 163.233C52.1902 163.903 52.3493 164.71 52.3493 165.653C52.3493 166.597 52.1921 167.405 51.8777 168.08C51.5633 168.75 51.1315 169.267 50.5822 169.631C50.033 169.991 49.4061 170.17 48.7015 170.17C48.1712 170.17 47.7375 170.081 47.4004 169.903C47.0671 169.725 46.8057 169.517 46.6163 169.278C46.4269 169.04 46.2811 168.828 46.1788 168.642H46.0765V173.273H44.3777ZM46.0424 165.636C46.0424 166.25 46.1315 166.788 46.3095 167.25C46.4875 167.712 46.7451 168.074 47.0822 168.335C47.4193 168.593 47.8322 168.722 48.3209 168.722C48.8284 168.722 49.2527 168.587 49.5936 168.318C49.9345 168.045 50.1921 167.676 50.3663 167.21C50.5443 166.744 50.6334 166.22 50.6334 165.636C50.6334 165.061 50.5462 164.544 50.372 164.085C50.2015 163.627 49.944 163.265 49.5993 163C49.2584 162.735 48.8322 162.602 48.3209 162.602C47.8284 162.602 47.4118 162.729 47.0709 162.983C46.7337 163.237 46.478 163.591 46.3038 164.045C46.1296 164.5 46.0424 165.03 46.0424 165.636ZM57.2888 170.176C56.4706 170.176 55.7566 169.989 55.1468 169.614C54.5369 169.239 54.0634 168.714 53.7263 168.04C53.3892 167.366 53.2206 166.578 53.2206 165.676C53.2206 164.771 53.3892 163.979 53.7263 163.301C54.0634 162.623 54.5369 162.097 55.1468 161.722C55.7566 161.347 56.4706 161.159 57.2888 161.159C58.107 161.159 58.821 161.347 59.4309 161.722C60.0407 162.097 60.5142 162.623 60.8513 163.301C61.1884 163.979 61.357 164.771 61.357 165.676C61.357 166.578 61.1884 167.366 60.8513 168.04C60.5142 168.714 60.0407 169.239 59.4309 169.614C58.821 169.989 58.107 170.176 57.2888 170.176ZM57.2945 168.75C57.8248 168.75 58.2642 168.61 58.6127 168.33C58.9612 168.049 59.2187 167.676 59.3854 167.21C59.5559 166.744 59.6411 166.231 59.6411 165.67C59.6411 165.114 59.5559 164.602 59.3854 164.136C59.2187 163.667 58.9612 163.29 58.6127 163.006C58.2642 162.722 57.8248 162.58 57.2945 162.58C56.7604 162.58 56.3172 162.722 55.9649 163.006C55.6165 163.29 55.357 163.667 55.1865 164.136C55.0199 164.602 54.9365 165.114 54.9365 165.67C54.9365 166.231 55.0199 166.744 55.1865 167.21C55.357 167.676 55.6165 168.049 55.9649 168.33C56.3172 168.61 56.7604 168.75 57.2945 168.75ZM62.6133 170V161.273H64.2553V162.659H64.3462C64.5053 162.189 64.7856 161.82 65.1872 161.551C65.5925 161.278 66.0508 161.142 66.5622 161.142C66.6682 161.142 66.7932 161.146 66.9372 161.153C67.0849 161.161 67.2004 161.17 67.2837 161.182V162.807C67.2156 162.788 67.0944 162.767 66.9201 162.744C66.7459 162.718 66.5716 162.705 66.3974 162.705C65.9959 162.705 65.6379 162.79 65.3235 162.96C65.0129 163.127 64.7667 163.36 64.5849 163.659C64.4031 163.955 64.3122 164.292 64.3122 164.67V170H62.6133ZM72.7034 161.273V162.636H67.9364V161.273H72.7034ZM69.2148 159.182H70.9136V167.438C70.9136 167.767 70.9629 168.015 71.0614 168.182C71.1598 168.345 71.2867 168.456 71.442 168.517C71.6011 168.574 71.7735 168.602 71.9591 168.602C72.0955 168.602 72.2148 168.593 72.317 168.574C72.4193 168.555 72.4989 168.54 72.5557 168.528L72.8625 169.932C72.764 169.97 72.6239 170.008 72.442 170.045C72.2602 170.087 72.033 170.11 71.7602 170.114C71.3133 170.121 70.8966 170.042 70.5102 169.875C70.1239 169.708 69.8114 169.451 69.5727 169.102C69.3341 168.754 69.2148 168.316 69.2148 167.79V159.182ZM79.4711 166.381V161.273H81.1756V170H79.5052V168.489H79.4143C79.2135 168.955 78.8915 169.343 78.4484 169.653C78.009 169.96 77.4616 170.114 76.8063 170.114C76.2457 170.114 75.7495 169.991 75.3177 169.744C74.8896 169.494 74.5525 169.125 74.3063 168.636C74.0639 168.148 73.9427 167.544 73.9427 166.824V161.273H75.6415V166.619C75.6415 167.214 75.8063 167.687 76.1359 168.04C76.4654 168.392 76.8934 168.568 77.4199 168.568C77.7381 168.568 78.0544 168.489 78.3688 168.33C78.687 168.17 78.9502 167.93 79.1586 167.608C79.3707 167.286 79.4749 166.877 79.4711 166.381ZM84.5172 164.818V170H82.8183V161.273H84.449V162.693H84.5569C84.7577 162.231 85.0721 161.86 85.5001 161.58C85.9319 161.299 86.4755 161.159 87.1308 161.159C87.7255 161.159 88.2463 161.284 88.6933 161.534C89.1403 161.78 89.4869 162.148 89.7331 162.636C89.9793 163.125 90.1024 163.729 90.1024 164.449V170H88.4035V164.653C88.4035 164.021 88.2388 163.527 87.9092 163.17C87.5797 162.811 87.127 162.631 86.5513 162.631C86.1573 162.631 85.8069 162.716 85.5001 162.886C85.1971 163.057 84.9566 163.307 84.7785 163.636C84.6043 163.962 84.5172 164.356 84.5172 164.818ZM91.7408 170V161.273H93.4397V170H91.7408ZM92.5987 159.926C92.3033 159.926 92.0495 159.828 91.8374 159.631C91.6291 159.43 91.5249 159.191 91.5249 158.915C91.5249 158.634 91.6291 158.396 91.8374 158.199C92.0495 157.998 92.3033 157.898 92.5987 157.898C92.8942 157.898 93.1461 157.998 93.3544 158.199C93.5666 158.396 93.6726 158.634 93.6726 158.915C93.6726 159.191 93.5666 159.43 93.3544 159.631C93.1461 159.828 92.8942 159.926 92.5987 159.926ZM99.159 161.273V162.636H94.392V161.273H99.159ZM95.6704 159.182H97.3693V167.438C97.3693 167.767 97.4185 168.015 97.517 168.182C97.6155 168.345 97.7424 168.456 97.8977 168.517C98.0568 168.574 98.2291 168.602 98.4147 168.602C98.5511 168.602 98.6704 168.593 98.7727 168.574C98.8749 168.555 98.9545 168.54 99.0113 168.528L99.3181 169.932C99.2196 169.97 99.0795 170.008 98.8977 170.045C98.7159 170.087 98.4886 170.11 98.2159 170.114C97.7689 170.121 97.3522 170.042 96.9659 169.875C96.5795 169.708 96.267 169.451 96.0284 169.102C95.7897 168.754 95.6704 168.316 95.6704 167.79V159.182ZM100.398 170V161.273H102.097V170H100.398ZM101.256 159.926C100.961 159.926 100.707 159.828 100.495 159.631C100.287 159.43 100.182 159.191 100.182 158.915C100.182 158.634 100.287 158.396 100.495 158.199C100.707 157.998 100.961 157.898 101.256 157.898C101.552 157.898 101.804 157.998 102.012 158.199C102.224 158.396 102.33 158.634 102.33 158.915C102.33 159.191 102.224 159.43 102.012 159.631C101.804 159.828 101.552 159.926 101.256 159.926ZM107.504 170.176C106.644 170.176 105.904 169.992 105.282 169.625C104.665 169.254 104.188 168.733 103.851 168.062C103.517 167.388 103.351 166.598 103.351 165.693C103.351 164.799 103.517 164.011 103.851 163.33C104.188 162.648 104.657 162.116 105.26 161.733C105.866 161.35 106.574 161.159 107.385 161.159C107.877 161.159 108.354 161.241 108.817 161.403C109.279 161.566 109.693 161.822 110.061 162.17C110.428 162.519 110.718 162.972 110.93 163.528C111.142 164.081 111.248 164.754 111.248 165.545V166.148H104.311V164.875H109.584C109.584 164.428 109.493 164.032 109.311 163.688C109.129 163.339 108.873 163.064 108.544 162.864C108.218 162.663 107.835 162.562 107.396 162.562C106.919 162.562 106.502 162.68 106.146 162.915C105.794 163.146 105.521 163.449 105.328 163.824C105.139 164.195 105.044 164.598 105.044 165.034V166.028C105.044 166.612 105.146 167.108 105.351 167.517C105.559 167.926 105.849 168.239 106.22 168.455C106.591 168.667 107.025 168.773 107.521 168.773C107.843 168.773 108.137 168.727 108.402 168.636C108.667 168.542 108.896 168.402 109.089 168.216C109.282 168.03 109.43 167.801 109.532 167.528L111.14 167.818C111.012 168.292 110.781 168.706 110.447 169.062C110.118 169.415 109.703 169.689 109.203 169.886C108.707 170.08 108.14 170.176 107.504 170.176ZM119.033 163.403L117.493 163.676C117.429 163.479 117.327 163.292 117.186 163.114C117.05 162.936 116.865 162.79 116.63 162.676C116.395 162.562 116.101 162.506 115.749 162.506C115.268 162.506 114.866 162.614 114.544 162.83C114.222 163.042 114.061 163.316 114.061 163.653C114.061 163.945 114.169 164.18 114.385 164.358C114.601 164.536 114.95 164.682 115.431 164.795L116.817 165.114C117.62 165.299 118.219 165.585 118.613 165.972C119.007 166.358 119.204 166.86 119.204 167.477C119.204 168 119.052 168.466 118.749 168.875C118.45 169.28 118.031 169.598 117.493 169.83C116.959 170.061 116.34 170.176 115.635 170.176C114.658 170.176 113.861 169.968 113.243 169.551C112.626 169.131 112.247 168.534 112.107 167.761L113.749 167.511C113.851 167.939 114.061 168.263 114.38 168.483C114.698 168.699 115.113 168.807 115.624 168.807C116.181 168.807 116.626 168.691 116.959 168.46C117.293 168.225 117.459 167.939 117.459 167.602C117.459 167.33 117.357 167.1 117.152 166.915C116.952 166.729 116.643 166.589 116.226 166.494L114.749 166.17C113.935 165.985 113.332 165.689 112.942 165.284C112.556 164.879 112.363 164.366 112.363 163.744C112.363 163.229 112.507 162.778 112.794 162.392C113.082 162.006 113.48 161.705 113.988 161.489C114.495 161.269 115.077 161.159 115.732 161.159C116.675 161.159 117.418 161.364 117.959 161.773C118.501 162.178 118.859 162.722 119.033 163.403Z" fill="#D0D8DA"/>
<path d="M361.121 178.879L340.879 199.121C340.316 199.684 339.553 200 338.757 200H4C2.34314 200 1 198.657 1 197V4C1 2.34314 2.34314 1 4 1H359C360.657 1 362 2.34315 362 4V176.757C362 177.553 361.684 178.316 361.121 178.879Z" stroke="url(#paint1_linear_953_1483)"/>
<path d="M362 155V176.757C362 177.553 361.684 178.316 361.121 178.879L340.879 199.121C340.316 199.684 339.553 200 338.757 200H317" stroke="#D0D8DA"/>
<defs>
<filter id="filter1_d_953_1483" x="466" y="159" width="20" height="20" filterUnits="userSpaceOnUse" color-interpolation-filters="sRGB">
<feFlood flood-opacity="0" result="BackgroundImageFix"/>
<feColorMatrix in="SourceAlpha" type="matrix" values="0 0 0 0 0 0 0 0 0 0 0 0 0 0 0 0 0 0 127 0" result="hardAlpha"/>
<feOffset/>
<feGaussianBlur stdDeviation="2.5"/>
<feComposite in2="hardAlpha" operator="out"/>
<feColorMatrix type="matrix" values="0 0 0 0 0.803922 0 0 0 0 0.968627 0 0 0 0 1 0 0 0 0.5 0"/>
<feBlend mode="normal" in2="BackgroundImageFix" result="effect1_dropShadow_953_1483"/>
<feBlend mode="normal" in="SourceGraphic" in2="effect1_dropShadow_953_1483" result="shape"/>
</filter>
<linearGradient id="paint0_linear_953_1483" x1="363.162" y1="127.8" x2="466.416" y2="160.247" gradientUnits="userSpaceOnUse">
<stop stop-color="#33454E"/>
<stop offset="1" stop-color="#799AA7"/>
</linearGradient>
<linearGradient id="paint1_linear_953_1483" x1="-14.9416" y1="6.9335" x2="328.904" y2="236.464" gradientUnits="userSpaceOnUse">
<stop stop-color="#3E5967"/>
<stop offset="1" stop-color="#1D262B"/>
</linearGradient>
<clipPath id="clip0_953_1483">
<rect x="466" y="179" width="20" height="20" rx="10" transform="rotate(-90 466 179)" fill="white"/>
</clipPath>
</defs>
</svg>
