<svg width="556" height="201" viewBox="0 0 556 201" fill="none" xmlns="http://www.w3.org/2000/svg">
<path d="M9.99999 144L96.4074 95H194" stroke="url(#paint0_linear_953_1468)"/>
<g clip-path="url(#clip0_953_1468)">
<rect y="154" width="20" height="20" rx="10" transform="rotate(-90 0 154)" fill="#334650" fill-opacity="0.25"/>
<g filter="url(#filter1_d_953_1468)">
<circle cx="10" cy="144" r="5" transform="rotate(-90 10 144)" fill="#51E3FF"/>
</g>
</g>
<path d="M194.879 22.1213L215.121 1.87868C215.684 1.31607 216.447 1 217.243 1H552C553.657 1 555 2.34315 555 4V197C555 198.657 553.657 200 552 200H197C195.343 200 194 198.657 194 197V24.2426C194 23.447 194.316 22.6839 194.879 22.1213Z" stroke="url(#paint1_linear_953_1468)"/>
<path d="M519.631 29.9487C519.766 27.4881 517.892 25.383 515.443 25.2467C512.995 25.1104 510.901 26.9947 510.765 29.4552C510.629 31.9158 512.504 34.0209 514.952 34.1571C517.401 34.2934 519.495 32.4092 519.631 29.9487Z" fill="#1EDBFF"/>
<path d="M497.44 33.9729C494.988 33.9729 493 35.9712 493 38.4349C493 40.8987 494.988 42.897 497.44 42.897C499.891 42.897 501.879 40.8987 501.879 38.4349C501.879 35.9712 499.892 33.9729 497.44 33.9729Z" fill="#1EDBFF"/>
<path d="M507.234 42.8016C509.247 42.378 510.758 40.5834 510.758 38.434C510.758 36.2846 509.247 34.4915 507.234 34.0678C509.247 33.6441 510.758 31.8496 510.758 29.7015C510.758 27.2364 508.77 25.2395 506.319 25.2395C503.867 25.2395 501.879 27.2364 501.879 29.7015C501.879 31.8509 503.391 33.6441 505.403 34.0678C503.391 34.4915 501.879 36.286 501.879 38.434C501.879 40.5821 503.391 42.3766 505.403 42.8016C503.391 43.2253 501.879 45.0199 501.879 47.1679C501.879 49.633 503.867 51.6299 506.319 51.6299C508.77 51.6299 510.758 49.633 510.758 47.1679C510.758 45.0185 509.247 43.2253 507.234 42.8016Z" fill="#1EDBFF"/>
<path d="M519.301 48.8774C520.239 46.6007 519.163 43.9905 516.898 43.0475C514.633 42.1044 512.036 43.1856 511.097 45.4623C510.159 47.7391 511.235 50.3492 513.5 51.2923C515.765 52.2353 518.363 51.1542 519.301 48.8774Z" fill="#1EDBFF"/>
<path d="M227.184 107.76H232.336L228.976 138H221.36L217.968 107.76H223.152L224.496 125.808L225.072 131.856H225.424L225.936 125.808L227.184 107.76ZM239.711 107.504C241.865 107.504 243.497 108.091 244.607 109.264C245.737 110.437 246.303 112.155 246.303 114.416V131.344C246.303 133.627 245.737 135.355 244.607 136.528C243.497 137.701 241.865 138.288 239.711 138.288C237.599 138.288 235.977 137.701 234.847 136.528C233.737 135.355 233.183 133.627 233.183 131.344V114.416C233.183 112.155 233.737 110.437 234.847 109.264C235.977 108.091 237.599 107.504 239.711 107.504ZM241.215 132.336V113.424C241.215 112.891 241.076 112.464 240.799 112.144C240.543 111.824 240.191 111.664 239.743 111.664C239.295 111.664 238.932 111.824 238.655 112.144C238.399 112.464 238.271 112.891 238.271 113.424V132.336C238.271 132.869 238.399 133.296 238.655 133.616C238.932 133.936 239.295 134.096 239.743 134.096C240.191 134.096 240.543 133.936 240.799 133.616C241.076 133.296 241.215 132.869 241.215 132.336ZM248.814 107.76H253.806V138H248.814V107.76ZM269.172 123.92V132.208C269.172 134.213 268.628 135.728 267.54 136.752C266.452 137.776 264.874 138.288 262.804 138.288C260.692 138.288 259.071 137.701 257.94 136.528C256.831 135.355 256.276 133.627 256.276 131.344V114.416C256.276 112.155 256.831 110.437 257.94 109.264C259.071 108.091 260.692 107.504 262.804 107.504C267.05 107.504 269.172 109.531 269.172 113.584V120.944H264.244V113.424C264.244 112.891 264.116 112.464 263.86 112.144C263.604 111.824 263.263 111.664 262.836 111.664C262.388 111.664 262.026 111.824 261.748 112.144C261.492 112.464 261.364 112.891 261.364 113.424V132.336C261.364 132.869 261.492 133.296 261.748 133.616C262.026 133.936 262.388 134.096 262.836 134.096C263.263 134.096 263.604 133.936 263.86 133.616C264.116 133.296 264.244 132.869 264.244 132.336V123.92H269.172ZM276.587 133.744H281.899V138H271.595V107.76H281.835V112.016H276.587V120.4H281.451V124.528H276.587V133.744ZM297.445 138L296.933 131.536L293.413 131.504L292.901 138H287.749L291.333 107.76H299.141L302.661 138H297.445ZM293.765 127.408H296.613L295.813 116.88L295.365 112.4H295.013L294.597 116.88L293.765 127.408ZM316.233 118.032H311.305V113.104C311.305 112.123 310.825 111.632 309.865 111.632C309.417 111.632 309.065 111.76 308.809 112.016C308.574 112.251 308.457 112.56 308.457 112.944V117.68C308.457 118.192 308.553 118.587 308.745 118.864C308.958 119.141 309.31 119.387 309.801 119.6L312.233 120.4C313.683 120.891 314.761 121.552 315.465 122.384C316.169 123.195 316.521 124.411 316.521 126.032V132.208C316.521 134.085 315.945 135.568 314.793 136.656C313.641 137.744 312.051 138.288 310.025 138.288C307.955 138.288 306.355 137.819 305.225 136.88C304.115 135.92 303.561 134.587 303.561 132.88V126.608H308.521V132.56C308.521 133.008 308.649 133.381 308.905 133.68C309.161 133.979 309.523 134.128 309.993 134.128C310.441 134.128 310.793 133.989 311.049 133.712C311.305 133.435 311.433 133.083 311.433 132.656V126.864C311.433 125.883 310.91 125.168 309.865 124.72L307.625 124.016C306.153 123.568 305.086 122.907 304.424 122.032C303.763 121.157 303.433 119.909 303.433 118.288V113.2C303.433 111.515 303.987 110.149 305.097 109.104C306.206 108.037 307.817 107.504 309.929 107.504C311.955 107.504 313.513 107.973 314.601 108.912C315.689 109.851 316.233 111.131 316.233 112.752V118.032ZM331.389 118.032H326.461V113.104C326.461 112.123 325.981 111.632 325.021 111.632C324.573 111.632 324.221 111.76 323.965 112.016C323.73 112.251 323.613 112.56 323.613 112.944V117.68C323.613 118.192 323.709 118.587 323.901 118.864C324.114 119.141 324.466 119.387 324.957 119.6L327.389 120.4C328.839 120.891 329.917 121.552 330.621 122.384C331.325 123.195 331.677 124.411 331.677 126.032V132.208C331.677 134.085 331.101 135.568 329.949 136.656C328.797 137.744 327.207 138.288 325.181 138.288C323.111 138.288 321.511 137.819 320.381 136.88C319.271 135.92 318.717 134.587 318.717 132.88V126.608H323.677V132.56C323.677 133.008 323.805 133.381 324.061 133.68C324.317 133.979 324.679 134.128 325.149 134.128C325.597 134.128 325.949 133.989 326.205 133.712C326.461 133.435 326.589 133.083 326.589 132.656V126.864C326.589 125.883 326.066 125.168 325.021 124.72L322.781 124.016C321.309 123.568 320.242 122.907 319.581 122.032C318.919 121.157 318.589 119.909 318.589 118.288V113.2C318.589 111.515 319.143 110.149 320.253 109.104C321.362 108.037 322.973 107.504 325.085 107.504C327.111 107.504 328.669 107.973 329.757 108.912C330.845 109.851 331.389 111.131 331.389 112.752V118.032ZM334.001 107.76H338.993V138H334.001V107.76ZM354.264 118.032H349.336V113.104C349.336 112.123 348.856 111.632 347.896 111.632C347.448 111.632 347.096 111.76 346.84 112.016C346.605 112.251 346.488 112.56 346.488 112.944V117.68C346.488 118.192 346.584 118.587 346.776 118.864C346.989 119.141 347.341 119.387 347.832 119.6L350.264 120.4C351.714 120.891 352.792 121.552 353.496 122.384C354.2 123.195 354.552 124.411 354.552 126.032V132.208C354.552 134.085 353.976 135.568 352.824 136.656C351.672 137.744 350.082 138.288 348.056 138.288C345.986 138.288 344.386 137.819 343.256 136.88C342.146 135.92 341.592 134.587 341.592 132.88V126.608H346.552V132.56C346.552 133.008 346.68 133.381 346.936 133.68C347.192 133.979 347.554 134.128 348.024 134.128C348.472 134.128 348.824 133.989 349.08 133.712C349.336 133.435 349.464 133.083 349.464 132.656V126.864C349.464 125.883 348.941 125.168 347.896 124.72L345.656 124.016C344.184 123.568 343.117 122.907 342.456 122.032C341.794 121.157 341.464 119.909 341.464 118.288V113.2C341.464 111.515 342.018 110.149 343.128 109.104C344.237 108.037 345.848 107.504 347.96 107.504C349.986 107.504 351.544 107.973 352.632 108.912C353.72 109.851 354.264 111.131 354.264 112.752V118.032ZM367.826 107.76V112.016H364.05V138H359.058V112.016H355.25V107.76H367.826ZM376.414 138L375.902 131.536L372.382 131.504L371.87 138H366.718L370.302 107.76H378.11L381.63 138H376.414ZM372.734 127.408H375.582L374.782 116.88L374.334 112.4H373.982L373.566 116.88L372.734 127.408ZM391.579 124.176L391.259 116.048V107.76H395.963V138H391.131L387.611 120.304H387.323L387.643 128.24V138H382.939V107.76H388.059L391.323 124.176H391.579ZM409.92 107.76V112.016H406.144V138H401.152V112.016H397.344V107.76H409.92Z" fill="white"/>
<path d="M220.261 170H218.398L222.585 158.364H224.614L228.801 170H226.938L223.648 160.477H223.557L220.261 170ZM220.574 165.443H226.619V166.92H220.574V165.443ZM236.182 163.403L234.643 163.676C234.578 163.479 234.476 163.292 234.336 163.114C234.199 162.936 234.014 162.79 233.779 162.676C233.544 162.562 233.251 162.506 232.898 162.506C232.417 162.506 232.016 162.614 231.694 162.83C231.372 163.042 231.211 163.316 231.211 163.653C231.211 163.945 231.319 164.18 231.535 164.358C231.751 164.536 232.099 164.682 232.58 164.795L233.967 165.114C234.77 165.299 235.368 165.585 235.762 165.972C236.156 166.358 236.353 166.86 236.353 167.477C236.353 168 236.201 168.466 235.898 168.875C235.599 169.28 235.181 169.598 234.643 169.83C234.109 170.061 233.489 170.176 232.785 170.176C231.807 170.176 231.01 169.968 230.393 169.551C229.775 169.131 229.396 168.534 229.256 167.761L230.898 167.511C231.001 167.939 231.211 168.263 231.529 168.483C231.847 168.699 232.262 168.807 232.773 168.807C233.33 168.807 233.775 168.691 234.109 168.46C234.442 168.225 234.609 167.939 234.609 167.602C234.609 167.33 234.506 167.1 234.302 166.915C234.101 166.729 233.792 166.589 233.376 166.494L231.898 166.17C231.084 165.985 230.482 165.689 230.092 165.284C229.705 164.879 229.512 164.366 229.512 163.744C229.512 163.229 229.656 162.778 229.944 162.392C230.232 162.006 230.629 161.705 231.137 161.489C231.645 161.269 232.226 161.159 232.881 161.159C233.824 161.159 234.567 161.364 235.109 161.773C235.65 162.178 236.008 162.722 236.182 163.403ZM239.143 167.04L239.132 164.966H239.427L242.905 161.273H244.939L240.973 165.477H240.706L239.143 167.04ZM237.581 170V158.364H239.28V170H237.581ZM243.092 170L239.967 165.852L241.138 164.665L245.177 170H243.092ZM249.578 158.364H251.708L255.413 167.409H255.549L259.254 158.364H261.385V170H259.714V161.58H259.606L256.174 169.983H254.788L251.356 161.574H251.248V170H249.578V158.364ZM265.701 170.193C265.148 170.193 264.648 170.091 264.201 169.886C263.754 169.678 263.399 169.377 263.138 168.983C262.88 168.589 262.752 168.106 262.752 167.534C262.752 167.042 262.846 166.636 263.036 166.318C263.225 166 263.481 165.748 263.803 165.562C264.125 165.377 264.485 165.237 264.882 165.142C265.28 165.047 265.685 164.975 266.098 164.926C266.621 164.866 267.045 164.816 267.371 164.778C267.697 164.737 267.934 164.67 268.081 164.58C268.229 164.489 268.303 164.341 268.303 164.136V164.097C268.303 163.6 268.163 163.216 267.882 162.943C267.606 162.67 267.193 162.534 266.644 162.534C266.072 162.534 265.621 162.661 265.291 162.915C264.966 163.165 264.74 163.443 264.615 163.75L263.019 163.386C263.208 162.856 263.485 162.428 263.848 162.102C264.216 161.773 264.638 161.534 265.115 161.386C265.593 161.235 266.095 161.159 266.621 161.159C266.97 161.159 267.339 161.201 267.729 161.284C268.123 161.364 268.49 161.511 268.831 161.727C269.176 161.943 269.458 162.252 269.678 162.653C269.898 163.051 270.007 163.568 270.007 164.205V170H268.348V168.807H268.28C268.17 169.027 268.005 169.242 267.786 169.455C267.566 169.667 267.284 169.843 266.939 169.983C266.595 170.123 266.182 170.193 265.701 170.193ZM266.07 168.83C266.54 168.83 266.941 168.737 267.274 168.551C267.612 168.366 267.867 168.123 268.041 167.824C268.22 167.521 268.309 167.197 268.309 166.852V165.727C268.248 165.788 268.13 165.845 267.956 165.898C267.786 165.947 267.591 165.991 267.371 166.028C267.151 166.062 266.937 166.095 266.729 166.125C266.521 166.152 266.346 166.174 266.206 166.193C265.877 166.235 265.576 166.305 265.303 166.403C265.034 166.502 264.818 166.644 264.655 166.83C264.496 167.011 264.416 167.254 264.416 167.557C264.416 167.977 264.572 168.295 264.882 168.511C265.193 168.723 265.589 168.83 266.07 168.83ZM271.63 170V161.273H273.272V162.659H273.363C273.522 162.189 273.803 161.82 274.204 161.551C274.609 161.278 275.068 161.142 275.579 161.142C275.685 161.142 275.81 161.146 275.954 161.153C276.102 161.161 276.217 161.17 276.301 161.182V162.807C276.232 162.788 276.111 162.767 275.937 162.744C275.763 162.718 275.589 162.705 275.414 162.705C275.013 162.705 274.655 162.79 274.34 162.96C274.03 163.127 273.784 163.36 273.602 163.659C273.42 163.955 273.329 164.292 273.329 164.67V170H271.63ZM277.131 170V161.273H278.83V170H277.131ZM277.989 159.926C277.693 159.926 277.44 159.828 277.227 159.631C277.019 159.43 276.915 159.191 276.915 158.915C276.915 158.634 277.019 158.396 277.227 158.199C277.44 157.998 277.693 157.898 277.989 157.898C278.284 157.898 278.536 157.998 278.744 158.199C278.957 158.396 279.063 158.634 279.063 158.915C279.063 159.191 278.957 159.43 278.744 159.631C278.536 159.828 278.284 159.926 277.989 159.926ZM284.237 170.176C283.377 170.176 282.636 169.992 282.015 169.625C281.398 169.254 280.92 168.733 280.583 168.062C280.25 167.388 280.083 166.598 280.083 165.693C280.083 164.799 280.25 164.011 280.583 163.33C280.92 162.648 281.39 162.116 281.992 161.733C282.598 161.35 283.307 161.159 284.117 161.159C284.61 161.159 285.087 161.241 285.549 161.403C286.011 161.566 286.426 161.822 286.793 162.17C287.161 162.519 287.451 162.972 287.663 163.528C287.875 164.081 287.981 164.754 287.981 165.545V166.148H281.043V164.875H286.316C286.316 164.428 286.225 164.032 286.043 163.688C285.862 163.339 285.606 163.064 285.276 162.864C284.951 162.663 284.568 162.562 284.129 162.562C283.651 162.562 283.235 162.68 282.879 162.915C282.526 163.146 282.254 163.449 282.06 163.824C281.871 164.195 281.776 164.598 281.776 165.034V166.028C281.776 166.612 281.879 167.108 282.083 167.517C282.291 167.926 282.581 168.239 282.952 168.455C283.324 168.667 283.757 168.773 284.254 168.773C284.576 168.773 284.869 168.727 285.134 168.636C285.399 168.542 285.629 168.402 285.822 168.216C286.015 168.03 286.163 167.801 286.265 167.528L287.873 167.818C287.744 168.292 287.513 168.706 287.18 169.062C286.85 169.415 286.435 169.689 285.935 169.886C285.439 170.08 284.873 170.176 284.237 170.176ZM295.36 170.193C294.807 170.193 294.307 170.091 293.86 169.886C293.413 169.678 293.059 169.377 292.797 168.983C292.54 168.589 292.411 168.106 292.411 167.534C292.411 167.042 292.506 166.636 292.695 166.318C292.885 166 293.14 165.748 293.462 165.562C293.784 165.377 294.144 165.237 294.542 165.142C294.939 165.047 295.345 164.975 295.758 164.926C296.28 164.866 296.705 164.816 297.03 164.778C297.356 164.737 297.593 164.67 297.741 164.58C297.888 164.489 297.962 164.341 297.962 164.136V164.097C297.962 163.6 297.822 163.216 297.542 162.943C297.265 162.67 296.852 162.534 296.303 162.534C295.731 162.534 295.28 162.661 294.951 162.915C294.625 163.165 294.4 163.443 294.275 163.75L292.678 163.386C292.868 162.856 293.144 162.428 293.508 162.102C293.875 161.773 294.297 161.534 294.775 161.386C295.252 161.235 295.754 161.159 296.28 161.159C296.629 161.159 296.998 161.201 297.388 161.284C297.782 161.364 298.15 161.511 298.491 161.727C298.835 161.943 299.118 162.252 299.337 162.653C299.557 163.051 299.667 163.568 299.667 164.205V170H298.008V168.807H297.939C297.83 169.027 297.665 169.242 297.445 169.455C297.225 169.667 296.943 169.843 296.599 169.983C296.254 170.123 295.841 170.193 295.36 170.193ZM295.729 168.83C296.199 168.83 296.6 168.737 296.934 168.551C297.271 168.366 297.527 168.123 297.701 167.824C297.879 167.521 297.968 167.197 297.968 166.852V165.727C297.907 165.788 297.79 165.845 297.616 165.898C297.445 165.947 297.25 165.991 297.03 166.028C296.811 166.062 296.597 166.095 296.388 166.125C296.18 166.152 296.006 166.174 295.866 166.193C295.536 166.235 295.235 166.305 294.962 166.403C294.693 166.502 294.477 166.644 294.314 166.83C294.155 167.011 294.076 167.254 294.076 167.557C294.076 167.977 294.231 168.295 294.542 168.511C294.852 168.723 295.248 168.83 295.729 168.83ZM302.988 164.818V170H301.29V161.273H302.92V162.693H303.028C303.229 162.231 303.543 161.86 303.971 161.58C304.403 161.299 304.947 161.159 305.602 161.159C306.197 161.159 306.718 161.284 307.165 161.534C307.612 161.78 307.958 162.148 308.204 162.636C308.451 163.125 308.574 163.729 308.574 164.449V170H306.875V164.653C306.875 164.021 306.71 163.527 306.38 163.17C306.051 162.811 305.598 162.631 305.022 162.631C304.629 162.631 304.278 162.716 303.971 162.886C303.668 163.057 303.428 163.307 303.25 163.636C303.076 163.962 302.988 164.356 302.988 164.818ZM310.973 173.273C310.72 173.273 310.489 173.252 310.28 173.21C310.072 173.172 309.917 173.131 309.814 173.085L310.223 171.693C310.534 171.777 310.811 171.813 311.053 171.801C311.295 171.79 311.509 171.699 311.695 171.528C311.884 171.358 312.051 171.08 312.195 170.693L312.405 170.114L309.212 161.273H311.03L313.24 168.045H313.331L315.542 161.273H317.365L313.769 171.165C313.602 171.619 313.39 172.004 313.132 172.318C312.875 172.636 312.568 172.875 312.212 173.034C311.856 173.193 311.443 173.273 310.973 173.273ZM322.396 161.273V162.636H317.629V161.273H322.396ZM318.907 159.182H320.606V167.438C320.606 167.767 320.655 168.015 320.754 168.182C320.852 168.345 320.979 168.456 321.135 168.517C321.294 168.574 321.466 168.602 321.652 168.602C321.788 168.602 321.907 168.593 322.01 168.574C322.112 168.555 322.191 168.54 322.248 168.528L322.555 169.932C322.457 169.97 322.316 170.008 322.135 170.045C321.953 170.087 321.725 170.11 321.453 170.114C321.006 170.121 320.589 170.042 320.203 169.875C319.816 169.708 319.504 169.451 319.265 169.102C319.027 168.754 318.907 168.316 318.907 167.79V159.182ZM325.522 164.818V170H323.823V158.364H325.499V162.693H325.607C325.811 162.223 326.124 161.85 326.544 161.574C326.965 161.297 327.514 161.159 328.192 161.159C328.79 161.159 329.313 161.282 329.76 161.528C330.211 161.775 330.559 162.142 330.806 162.631C331.056 163.116 331.181 163.722 331.181 164.449V170H329.482V164.653C329.482 164.013 329.317 163.517 328.987 163.165C328.658 162.809 328.2 162.631 327.612 162.631C327.211 162.631 326.851 162.716 326.533 162.886C326.219 163.057 325.97 163.307 325.789 163.636C325.611 163.962 325.522 164.356 325.522 164.818ZM332.808 170V161.273H334.507V170H332.808ZM333.666 159.926C333.37 159.926 333.116 159.828 332.904 159.631C332.696 159.43 332.592 159.191 332.592 158.915C332.592 158.634 332.696 158.396 332.904 158.199C333.116 157.998 333.37 157.898 333.666 157.898C333.961 157.898 334.213 157.998 334.421 158.199C334.633 158.396 334.739 158.634 334.739 158.915C334.739 159.191 334.633 159.43 334.421 159.631C334.213 159.828 333.961 159.926 333.666 159.926ZM337.851 164.818V170H336.152V161.273H337.783V162.693H337.891C338.091 162.231 338.406 161.86 338.834 161.58C339.266 161.299 339.809 161.159 340.465 161.159C341.059 161.159 341.58 161.284 342.027 161.534C342.474 161.78 342.821 162.148 343.067 162.636C343.313 163.125 343.436 163.729 343.436 164.449V170H341.737V164.653C341.737 164.021 341.573 163.527 341.243 163.17C340.913 162.811 340.461 162.631 339.885 162.631C339.491 162.631 339.141 162.716 338.834 162.886C338.531 163.057 338.29 163.307 338.112 163.636C337.938 163.962 337.851 164.356 337.851 164.818ZM348.734 173.455C348.04 173.455 347.444 173.364 346.944 173.182C346.448 173 346.042 172.759 345.728 172.46C345.414 172.161 345.179 171.833 345.023 171.477L346.484 170.875C346.586 171.042 346.722 171.218 346.893 171.403C347.067 171.593 347.302 171.754 347.597 171.886C347.897 172.019 348.281 172.085 348.751 172.085C349.395 172.085 349.927 171.928 350.347 171.614C350.768 171.303 350.978 170.807 350.978 170.125V168.409H350.87C350.768 168.595 350.62 168.801 350.427 169.028C350.237 169.256 349.976 169.453 349.643 169.619C349.309 169.786 348.876 169.869 348.342 169.869C347.652 169.869 347.031 169.708 346.478 169.386C345.929 169.061 345.493 168.581 345.171 167.949C344.853 167.312 344.694 166.53 344.694 165.602C344.694 164.674 344.851 163.879 345.165 163.216C345.484 162.553 345.919 162.045 346.472 161.693C347.025 161.337 347.652 161.159 348.353 161.159C348.895 161.159 349.332 161.25 349.665 161.432C349.999 161.61 350.258 161.818 350.444 162.057C350.633 162.295 350.779 162.506 350.881 162.688H351.006V161.273H352.671V170.193C352.671 170.943 352.497 171.559 352.148 172.04C351.8 172.521 351.328 172.877 350.734 173.108C350.143 173.339 349.476 173.455 348.734 173.455ZM348.717 168.46C349.205 168.46 349.618 168.347 349.955 168.119C350.296 167.888 350.554 167.559 350.728 167.131C350.906 166.699 350.995 166.182 350.995 165.58C350.995 164.992 350.908 164.475 350.734 164.028C350.559 163.581 350.304 163.233 349.967 162.983C349.629 162.729 349.213 162.602 348.717 162.602C348.205 162.602 347.779 162.735 347.438 163C347.097 163.261 346.84 163.617 346.665 164.068C346.495 164.519 346.41 165.023 346.41 165.58C346.41 166.152 346.497 166.653 346.671 167.085C346.845 167.517 347.103 167.854 347.444 168.097C347.789 168.339 348.213 168.46 348.717 168.46ZM356.52 168.409L356.435 169.028C356.378 169.483 356.281 169.956 356.145 170.449C356.012 170.945 355.874 171.405 355.73 171.83C355.59 172.254 355.474 172.591 355.383 172.841H354.179C354.228 172.606 354.296 172.288 354.383 171.886C354.471 171.489 354.556 171.044 354.639 170.551C354.722 170.059 354.785 169.557 354.827 169.045L354.883 168.409H356.52ZM363.385 164.818V170H361.686V158.364H363.362V162.693H363.47C363.674 162.223 363.987 161.85 364.407 161.574C364.828 161.297 365.377 161.159 366.055 161.159C366.654 161.159 367.176 161.282 367.623 161.528C368.074 161.775 368.423 162.142 368.669 162.631C368.919 163.116 369.044 163.722 369.044 164.449V170H367.345V164.653C367.345 164.013 367.18 163.517 366.851 163.165C366.521 162.809 366.063 162.631 365.476 162.631C365.074 162.631 364.714 162.716 364.396 162.886C364.082 163.057 363.834 163.307 363.652 163.636C363.474 163.962 363.385 164.356 363.385 164.818ZM373.211 170.193C372.658 170.193 372.158 170.091 371.711 169.886C371.264 169.678 370.909 169.377 370.648 168.983C370.39 168.589 370.262 168.106 370.262 167.534C370.262 167.042 370.356 166.636 370.546 166.318C370.735 166 370.991 165.748 371.313 165.562C371.635 165.377 371.995 165.237 372.392 165.142C372.79 165.047 373.195 164.975 373.608 164.926C374.131 164.866 374.555 164.816 374.881 164.778C375.207 164.737 375.444 164.67 375.591 164.58C375.739 164.489 375.813 164.341 375.813 164.136V164.097C375.813 163.6 375.673 163.216 375.392 162.943C375.116 162.67 374.703 162.534 374.154 162.534C373.582 162.534 373.131 162.661 372.801 162.915C372.476 163.165 372.25 163.443 372.125 163.75L370.529 163.386C370.718 162.856 370.995 162.428 371.358 162.102C371.726 161.773 372.148 161.534 372.625 161.386C373.103 161.235 373.605 161.159 374.131 161.159C374.48 161.159 374.849 161.201 375.239 161.284C375.633 161.364 376 161.511 376.341 161.727C376.686 161.943 376.968 162.252 377.188 162.653C377.408 163.051 377.517 163.568 377.517 164.205V170H375.858V168.807H375.79C375.68 169.027 375.515 169.242 375.296 169.455C375.076 169.667 374.794 169.843 374.449 169.983C374.105 170.123 373.692 170.193 373.211 170.193ZM373.58 168.83C374.05 168.83 374.451 168.737 374.784 168.551C375.122 168.366 375.377 168.123 375.551 167.824C375.73 167.521 375.819 167.197 375.819 166.852V165.727C375.758 165.788 375.64 165.845 375.466 165.898C375.296 165.947 375.101 165.991 374.881 166.028C374.661 166.062 374.447 166.095 374.239 166.125C374.031 166.152 373.856 166.174 373.716 166.193C373.387 166.235 373.086 166.305 372.813 166.403C372.544 166.502 372.328 166.644 372.165 166.83C372.006 167.011 371.926 167.254 371.926 167.557C371.926 167.977 372.082 168.295 372.392 168.511C372.703 168.723 373.099 168.83 373.58 168.83ZM380.839 164.818V170H379.14V161.273H380.771V162.693H380.879C381.08 162.231 381.394 161.86 381.822 161.58C382.254 161.299 382.797 161.159 383.453 161.159C384.047 161.159 384.568 161.284 385.015 161.534C385.462 161.78 385.809 162.148 386.055 162.636C386.301 163.125 386.424 163.729 386.424 164.449V170H384.725V164.653C384.725 164.021 384.561 163.527 384.231 163.17C383.902 162.811 383.449 162.631 382.873 162.631C382.479 162.631 382.129 162.716 381.822 162.886C381.519 163.057 381.278 163.307 381.1 163.636C380.926 163.962 380.839 164.356 380.839 164.818ZM391.33 170.17C390.625 170.17 389.996 169.991 389.443 169.631C388.894 169.267 388.462 168.75 388.148 168.08C387.837 167.405 387.682 166.597 387.682 165.653C387.682 164.71 387.839 163.903 388.154 163.233C388.472 162.562 388.907 162.049 389.46 161.693C390.013 161.337 390.64 161.159 391.341 161.159C391.883 161.159 392.318 161.25 392.648 161.432C392.981 161.61 393.239 161.818 393.421 162.057C393.606 162.295 393.75 162.506 393.852 162.688H393.955V158.364H395.654V170H393.994V168.642H393.852C393.75 168.828 393.602 169.04 393.409 169.278C393.22 169.517 392.959 169.725 392.625 169.903C392.292 170.081 391.86 170.17 391.33 170.17ZM391.705 168.722C392.193 168.722 392.606 168.593 392.943 168.335C393.284 168.074 393.542 167.712 393.716 167.25C393.894 166.788 393.983 166.25 393.983 165.636C393.983 165.03 393.896 164.5 393.722 164.045C393.548 163.591 393.292 163.237 392.955 162.983C392.618 162.729 392.201 162.602 391.705 162.602C391.193 162.602 390.767 162.735 390.426 163C390.085 163.265 389.828 163.627 389.654 164.085C389.483 164.544 389.398 165.061 389.398 165.636C389.398 166.22 389.485 166.744 389.659 167.21C389.834 167.676 390.091 168.045 390.432 168.318C390.777 168.587 391.201 168.722 391.705 168.722ZM403.978 163.403L402.438 163.676C402.374 163.479 402.272 163.292 402.131 163.114C401.995 162.936 401.81 162.79 401.575 162.676C401.34 162.562 401.046 162.506 400.694 162.506C400.213 162.506 399.811 162.614 399.489 162.83C399.167 163.042 399.006 163.316 399.006 163.653C399.006 163.945 399.114 164.18 399.33 164.358C399.546 164.536 399.895 164.682 400.376 164.795L401.762 165.114C402.565 165.299 403.164 165.585 403.558 165.972C403.952 166.358 404.149 166.86 404.149 167.477C404.149 168 403.997 168.466 403.694 168.875C403.395 169.28 402.976 169.598 402.438 169.83C401.904 170.061 401.285 170.176 400.58 170.176C399.603 170.176 398.806 169.968 398.188 169.551C397.571 169.131 397.192 168.534 397.052 167.761L398.694 167.511C398.796 167.939 399.006 168.263 399.325 168.483C399.643 168.699 400.058 168.807 400.569 168.807C401.126 168.807 401.571 168.691 401.904 168.46C402.238 168.225 402.404 167.939 402.404 167.602C402.404 167.33 402.302 167.1 402.097 166.915C401.897 166.729 401.588 166.589 401.171 166.494L399.694 166.17C398.88 165.985 398.277 165.689 397.887 165.284C397.501 164.879 397.308 164.366 397.308 163.744C397.308 163.229 397.452 162.778 397.739 162.392C398.027 162.006 398.425 161.705 398.933 161.489C399.44 161.269 400.022 161.159 400.677 161.159C401.62 161.159 402.363 161.364 402.904 161.773C403.446 162.178 403.804 162.722 403.978 163.403ZM410.518 164.347V165.818H405.359V164.347H410.518ZM416.296 161.273V162.636H411.364V161.273H416.296ZM412.717 170V160.261C412.717 159.716 412.836 159.263 413.074 158.903C413.313 158.54 413.629 158.269 414.023 158.091C414.417 157.909 414.845 157.818 415.307 157.818C415.648 157.818 415.94 157.847 416.182 157.903C416.425 157.956 416.605 158.006 416.722 158.051L416.324 159.426C416.245 159.403 416.143 159.377 416.018 159.347C415.893 159.312 415.741 159.295 415.563 159.295C415.15 159.295 414.855 159.398 414.677 159.602C414.503 159.807 414.415 160.102 414.415 160.489V170H412.717ZM417.409 170V161.273H419.051V162.659H419.142C419.301 162.189 419.581 161.82 419.983 161.551C420.388 161.278 420.846 161.142 421.358 161.142C421.464 161.142 421.589 161.146 421.733 161.153C421.881 161.161 421.996 161.17 422.079 161.182V162.807C422.011 162.788 421.89 162.767 421.716 162.744C421.541 162.718 421.367 162.705 421.193 162.705C420.791 162.705 420.434 162.79 420.119 162.96C419.809 163.127 419.562 163.36 419.381 163.659C419.199 163.955 419.108 164.292 419.108 164.67V170H417.409ZM426.358 170.176C425.499 170.176 424.758 169.992 424.137 169.625C423.519 169.254 423.042 168.733 422.705 168.062C422.372 167.388 422.205 166.598 422.205 165.693C422.205 164.799 422.372 164.011 422.705 163.33C423.042 162.648 423.512 162.116 424.114 161.733C424.72 161.35 425.428 161.159 426.239 161.159C426.732 161.159 427.209 161.241 427.671 161.403C428.133 161.566 428.548 161.822 428.915 162.17C429.283 162.519 429.572 162.972 429.785 163.528C429.997 164.081 430.103 164.754 430.103 165.545V166.148H423.165V164.875H428.438C428.438 164.428 428.347 164.032 428.165 163.688C427.983 163.339 427.728 163.064 427.398 162.864C427.072 162.663 426.69 162.562 426.25 162.562C425.773 162.562 425.357 162.68 425 162.915C424.648 163.146 424.375 163.449 424.182 163.824C423.993 164.195 423.898 164.598 423.898 165.034V166.028C423.898 166.612 424 167.108 424.205 167.517C424.413 167.926 424.703 168.239 425.074 168.455C425.446 168.667 425.879 168.773 426.375 168.773C426.697 168.773 426.991 168.727 427.256 168.636C427.521 168.542 427.75 168.402 427.944 168.216C428.137 168.03 428.285 167.801 428.387 167.528L429.995 167.818C429.866 168.292 429.635 168.706 429.302 169.062C428.972 169.415 428.557 169.689 428.057 169.886C427.561 170.08 426.995 170.176 426.358 170.176ZM435.109 170.176C434.249 170.176 433.509 169.992 432.887 169.625C432.27 169.254 431.793 168.733 431.456 168.062C431.122 167.388 430.956 166.598 430.956 165.693C430.956 164.799 431.122 164.011 431.456 163.33C431.793 162.648 432.262 162.116 432.865 161.733C433.471 161.35 434.179 161.159 434.99 161.159C435.482 161.159 435.959 161.241 436.422 161.403C436.884 161.566 437.298 161.822 437.666 162.17C438.033 162.519 438.323 162.972 438.535 163.528C438.747 164.081 438.853 164.754 438.853 165.545V166.148H431.916V164.875H437.189C437.189 164.428 437.098 164.032 436.916 163.688C436.734 163.339 436.478 163.064 436.149 162.864C435.823 162.663 435.44 162.562 435.001 162.562C434.524 162.562 434.107 162.68 433.751 162.915C433.399 163.146 433.126 163.449 432.933 163.824C432.744 164.195 432.649 164.598 432.649 165.034V166.028C432.649 166.612 432.751 167.108 432.956 167.517C433.164 167.926 433.454 168.239 433.825 168.455C434.196 168.667 434.63 168.773 435.126 168.773C435.448 168.773 435.742 168.727 436.007 168.636C436.272 168.542 436.501 168.402 436.694 168.216C436.887 168.03 437.035 167.801 437.137 167.528L438.745 167.818C438.617 168.292 438.386 168.706 438.052 169.062C437.723 169.415 437.308 169.689 436.808 169.886C436.312 170.08 435.745 170.176 435.109 170.176Z" fill="#D0D8DA"/>
<path d="M194 46V24.2426C194 23.447 194.316 22.6839 194.879 22.1213L215.121 1.87868C215.684 1.31607 216.447 1 217.243 1H239" stroke="#D0D8DA"/>
<defs>
<filter id="filter1_d_953_1468" x="0" y="134" width="20" height="20" filterUnits="userSpaceOnUse" color-interpolation-filters="sRGB">
<feFlood flood-opacity="0" result="BackgroundImageFix"/>
<feColorMatrix in="SourceAlpha" type="matrix" values="0 0 0 0 0 0 0 0 0 0 0 0 0 0 0 0 0 0 127 0" result="hardAlpha"/>
<feOffset/>
<feGaussianBlur stdDeviation="2.5"/>
<feComposite in2="hardAlpha" operator="out"/>
<feColorMatrix type="matrix" values="0 0 0 0 0.803922 0 0 0 0 0.968627 0 0 0 0 1 0 0 0 0.5 0"/>
<feBlend mode="normal" in2="BackgroundImageFix" result="effect1_dropShadow_953_1468"/>
<feBlend mode="normal" in="SourceGraphic" in2="effect1_dropShadow_953_1468" result="shape"/>
</filter>
<linearGradient id="paint0_linear_953_1468" x1="192.056" y1="98.43" x2="31.7926" y2="167.199" gradientUnits="userSpaceOnUse">
<stop stop-color="#33454E"/>
<stop offset="1" stop-color="#799AA7"/>
</linearGradient>
<linearGradient id="paint1_linear_953_1468" x1="570.942" y1="194.067" x2="227.096" y2="-35.4643" gradientUnits="userSpaceOnUse">
<stop stop-color="#3E5967"/>
<stop offset="1" stop-color="#1D262B"/>
</linearGradient>
<clipPath id="clip0_953_1468">
<rect y="154" width="20" height="20" rx="10" transform="rotate(-90 0 154)" fill="white"/>
</clipPath>
</defs>
</svg>
