<svg width="83" height="33" viewBox="0 0 83 33" fill="none" xmlns="http://www.w3.org/2000/svg">
<path opacity="0.5" d="M65.4314 32.3456C65.4814 32.3153 65.5346 32.2902 65.5899 32.2709C69.2509 31.3684 72.7952 30.1457 76.1304 28.3802C77.6189 27.5926 79.0226 26.6838 80.1981 25.469C80.9681 24.6742 81.5808 23.7845 81.823 22.6874C81.99 21.9324 81.9228 21.1901 81.6714 20.4545C81.6484 20.4629 81.6259 20.4641 81.6162 20.4756C80.4765 21.8366 79.0366 22.8114 77.4664 23.6148C75.3869 24.6814 73.181 25.413 70.9088 25.9411C69.4706 26.2753 68.0122 26.5193 66.5603 26.7998C66.4279 26.8208 66.294 26.8314 66.16 26.8316C66.0099 26.8404 65.8594 26.8271 65.7134 26.7919L65.9492 26.7426C69.7486 25.9458 73.4289 24.8018 76.8948 23.047C78.0297 22.472 79.1179 21.8151 80.0549 20.952C80.4685 20.5706 80.8193 20.1223 81.1995 19.7055C81.2731 19.626 81.2691 19.5557 81.2127 19.4595C80.6866 18.5549 79.9608 17.7791 79.0893 17.1897C79.0596 17.1745 79.0268 17.166 78.9934 17.1648C78.9599 17.1636 78.9266 17.1698 78.8958 17.1829C76.5902 18.3524 74.114 18.9934 71.5827 19.4352C69.8962 19.7297 68.1948 19.9431 66.4979 20.176C66.1829 20.2189 65.8542 20.1819 65.5247 20.1605C65.5742 20.1454 65.6225 20.1267 65.6728 20.116C68.0347 19.6173 70.3939 19.1058 72.7176 18.4498C74.4877 17.9499 76.2366 17.3872 77.915 16.6294C77.9814 16.5996 78.0474 16.5678 78.1423 16.5233C78.0285 16.4478 77.9331 16.3826 77.8357 16.3202C75.9449 15.1122 73.9161 14.1744 71.8132 13.3904C71.7247 13.3621 71.6309 13.3541 71.5388 13.3669C69.9618 13.5446 68.3863 13.7313 66.8089 13.9026C66.4235 13.9443 66.0332 13.9376 65.645 13.9515C65.6284 13.952 65.612 13.9487 65.597 13.9418C65.5819 13.9349 65.5688 13.9246 65.5585 13.9117L70.6529 13.0184V12.9692C70.2168 12.8261 69.7823 12.6775 69.3442 12.5408C66.2561 11.5775 63.1085 10.8651 59.9129 10.3528C58.0623 10.0561 56.2069 9.79638 54.3466 9.57359C52.8713 9.39477 51.3888 9.26284 49.9059 9.15952C47.9081 9.02044 45.907 8.92428 43.9067 8.81857C41.9567 8.71526 40.0071 8.76334 38.0591 8.85831C36.5135 8.93461 34.9666 9.00574 33.4242 9.12694C31.6818 9.26443 29.9422 9.43967 28.2046 9.62684C25.8881 9.87599 23.5861 10.2312 21.2974 10.6644C18.3042 11.231 15.3505 11.9487 12.4659 12.9294C12.4187 12.9436 12.3787 12.975 12.3541 13.0172L17.4465 13.9101V13.9479C17.2119 13.9479 16.9758 13.9658 16.7433 13.9447C15.7628 13.8561 14.7828 13.7639 13.804 13.6566C13.0123 13.57 12.2233 13.4579 11.4304 13.363C11.3512 13.3526 11.2706 13.3605 11.195 13.386C8.96624 14.2205 6.82113 15.2191 4.83614 16.534C4.80879 16.5523 4.78304 16.5738 4.71908 16.6202C8.7325 18.4609 12.9608 19.4511 17.2683 20.1736C17.2683 20.1899 17.2646 20.2062 17.263 20.2221C16.804 20.1823 16.3418 20.1692 15.8871 20.1028C14.2453 19.8644 12.5991 19.6427 10.9665 19.3502C8.92199 18.9838 6.9209 18.447 5.01235 17.6101C4.7066 17.4758 4.4089 17.32 4.10556 17.1841C4.05124 17.1595 3.9563 17.1559 3.91204 17.1869C3.03823 17.8048 2.27867 18.5336 1.69291 19.4309C1.60923 19.5592 1.6213 19.6443 1.70418 19.7623C2.35551 20.6929 3.21323 21.4062 4.15262 22.0305C5.90306 23.194 7.81805 24.0281 9.78936 24.7438C12.1171 25.589 14.4964 26.2626 16.9311 26.7251C17.0406 26.7458 17.15 26.7648 17.259 26.7843L17.253 26.8483C16.9388 26.8264 16.6218 26.8244 16.3112 26.7791C14.3507 26.4926 12.3979 26.1652 10.4777 25.6705C8.47663 25.1539 6.53228 24.4926 4.73396 23.463C3.3806 22.6882 2.18333 21.7361 1.25802 20.4752C1.24675 20.4593 1.23951 20.4406 1.21256 20.3901C1.03641 20.8106 0.939478 21.2593 0.926517 21.7142C0.895539 22.7649 1.27894 23.6812 1.88481 24.5197C2.63834 25.5632 3.61192 26.379 4.66637 27.1062C6.62199 28.4545 8.76026 29.4575 10.9689 30.3206C12.9366 31.0899 14.9401 31.7535 17.01 32.2073C17.0775 32.2176 17.1416 32.2431 17.1975 32.282C17.1508 32.282 17.1041 32.2844 17.0575 32.282C14.7917 32.1457 12.6289 31.5417 10.4922 30.8403C8.23927 30.1008 6.09336 29.1376 4.15061 27.771C2.87892 26.8765 1.75728 25.8326 0.934964 24.5066C0.484379 23.7806 0.116668 23.0192 0.0237348 22.1557C0.0187307 22.1364 0.0107241 22.1181 0 22.1012V21.1873C0.102991 20.5745 0.261904 19.9793 0.549152 19.4221C0.562613 19.3794 0.558418 19.3331 0.537483 19.2934C0.284029 18.784 0.0844847 18.2574 0 17.6932V16.8984C0.100979 16.5455 0.168969 16.1788 0.311789 15.8434C0.478747 15.452 0.711281 15.0884 0.926114 14.691C0.523806 14.1482 0.140809 13.5569 0.000805402 12.8472V12.2114C0.125119 11.655 0.354034 11.1452 0.732204 10.7105C0.933358 10.4804 1.14899 10.2642 1.36544 10.0349C0.791745 9.51836 0.238972 8.97434 0.000805402 8.20185V7.68526C0.246213 6.81103 0.891515 6.27537 1.63015 5.83151C2.69868 5.18975 3.86015 4.7423 5.02885 4.3179C7.62937 3.37294 10.3067 2.69542 13.03 2.2138C15.2357 1.82331 17.4506 1.48303 19.6749 1.19294C21.606 0.94379 23.5499 0.783639 25.491 0.617934C29.3041 0.292483 33.1264 0.146652 36.952 0.0572426C40.2553 -0.0198482 43.5591 -0.0246167 46.8616 0.0771113C49.4933 0.158441 52.1237 0.274608 54.7529 0.42561C56.7918 0.544823 58.8287 0.713707 60.8612 0.912395C64.3335 1.25255 67.7865 1.73258 71.2005 2.45143C74.0907 3.05981 76.9366 3.8188 79.6554 4.98589C80.3679 5.29187 81.0759 5.60739 81.7112 6.0588C82.0837 6.32306 82.4261 6.61831 82.6795 7.00058C83.0818 7.60896 83.1261 8.23681 82.6936 8.83645C82.416 9.22151 82.0713 9.55928 81.755 9.91731C81.7148 9.96102 81.6685 9.99679 81.6247 10.0365C83.2939 11.5442 83.4319 12.989 82.0531 14.72C82.1936 14.9453 82.3452 15.1631 82.4711 15.3955C83.151 16.6477 83.1877 17.9069 82.4836 19.1634C82.4144 19.287 82.414 19.3796 82.4768 19.5072C83.2488 21.084 83.1237 22.6262 82.2921 24.1461C81.5314 25.5369 80.4479 26.6389 79.1762 27.5731C77.4137 28.8681 75.4497 29.7813 73.3931 30.5105C70.9603 31.3728 68.4652 31.9863 65.8989 32.3106C65.8602 32.3184 65.8223 32.3293 65.7854 32.3432L65.4314 32.3456ZM81.0812 9.58392C81.1681 9.50762 81.2823 9.41662 81.3861 9.31489C82.165 8.54796 82.1976 7.78778 81.4718 6.97277C81.0293 6.47525 80.501 6.06556 79.8899 5.8029C78.9405 5.39439 77.9802 5.00178 77.0002 4.67315C74.1663 3.72263 71.2419 3.13571 68.2962 2.64654C65.4889 2.18161 62.6669 1.82834 59.83 1.58674C57.2955 1.36739 54.7561 1.16314 52.2148 1.03836C49.0096 0.881397 45.8008 0.762184 42.5924 0.72046C40.0614 0.688272 37.5269 0.762977 34.9968 0.857155C32.2724 0.958883 29.5501 1.10459 26.8299 1.29427C24.6663 1.44289 22.5063 1.65827 20.3491 1.88398C17.1854 2.21459 14.0434 2.69065 10.9351 3.35705C8.69629 3.83708 6.48682 4.41804 4.35539 5.26008C3.57813 5.56725 2.80248 5.87759 2.14269 6.40968C1.79872 6.68784 1.46802 6.97634 1.24233 7.361C1.05163 7.68526 0.954274 8.02939 1.05002 8.4057C1.17595 8.90123 1.51348 9.24615 1.89929 9.55292C1.93027 9.57716 2.01999 9.55292 2.06948 9.5259C2.47862 9.28748 2.87691 9.02958 3.29128 8.8003C5.61019 7.51836 8.08277 6.60599 10.6242 5.86647C14.6094 4.70733 18.6848 3.98609 22.8016 3.49255C24.8884 3.2426 26.982 3.02603 29.0776 2.88894C32.0048 2.69767 34.9354 2.55581 37.8693 2.46335C42.1643 2.32666 46.4589 2.4256 50.7475 2.6835C53.0069 2.8194 55.2634 3.0014 57.5184 3.19691C59.7733 3.39241 62.0142 3.70316 64.2474 4.07113C66.8435 4.49672 69.4154 5.02999 71.9468 5.74408C74.3904 6.43352 76.7777 7.27159 79.0322 8.44226C79.7194 8.79831 80.3848 9.19568 81.0824 9.58392H81.0812ZM80.357 10.118C80.1559 9.97891 80.0191 9.87321 79.8742 9.78619C78.3415 8.87659 76.7085 8.18158 75.024 7.60062C70.5266 6.05086 65.8687 5.21637 61.1653 4.59606C59.5858 4.38784 58.0004 4.22054 56.4145 4.06835C54.8286 3.91615 53.2382 3.79018 51.6479 3.6817C50.2782 3.58739 48.9067 3.51534 47.5335 3.46553C45.5047 3.39281 43.4742 3.29466 41.445 3.30658C37.5847 3.32592 33.7296 3.48818 29.8798 3.79337C27.9487 3.94715 26.0177 4.09577 24.0991 4.32823C21.8079 4.60639 19.5224 4.94177 17.2433 5.30657C14.7656 5.70558 12.317 6.26456 9.91327 6.97992C7.78104 7.61254 5.6995 8.37074 3.74428 9.43769C3.38864 9.63161 3.04548 9.84777 2.67334 10.0675C2.74213 10.1148 2.76708 10.1359 2.79403 10.1514C3.62641 10.6123 4.50987 10.9561 5.41104 11.2565C5.48467 11.2811 5.59329 11.2497 5.66973 11.212C6.2752 10.9155 6.86861 10.5944 7.48012 10.3123C11.5434 8.44187 15.8324 7.30338 20.2224 6.51022C22.0847 6.17364 23.9615 5.90423 25.8394 5.66302C27.4986 5.45003 29.1673 5.29862 30.8349 5.15795C32.1963 5.04297 33.5601 4.95927 34.9264 4.90681C37.156 4.82495 39.3872 4.73634 41.6176 4.73435C45.3908 4.73077 49.1592 4.89846 52.92 5.21716C55.3294 5.42141 57.73 5.69401 60.1213 6.05681C62.6559 6.44267 65.1695 6.93104 67.6509 7.5732C70.7793 8.38305 73.8235 9.41861 76.7061 10.8845C76.9772 11.0224 77.2508 11.2422 77.5304 11.2537C77.8213 11.2652 78.1266 11.0832 78.4155 10.962C79.0491 10.6958 79.6771 10.4156 80.3598 10.118H80.357ZM76.1827 11.7075C76.0656 11.6487 75.9984 11.6129 75.9296 11.5807C73.556 10.4709 71.079 9.65187 68.5481 8.98031C65.3956 8.14383 62.1916 7.54976 58.9635 7.10152C57.4854 6.89607 56.0013 6.72758 54.5168 6.57102C53.2048 6.43233 51.8893 6.32107 50.5741 6.22093C49.3853 6.13072 48.1949 6.05284 47.0041 6.00396C45.1362 5.92727 43.2666 5.82038 41.3983 5.8319C37.887 5.85336 34.3804 6.04409 30.8812 6.34054C28.098 6.57578 25.3249 6.89091 22.5651 7.31968C19.9118 7.73215 17.2799 8.24357 14.6826 8.9203C12.064 9.603 9.50131 10.443 7.04924 11.5907C6.98729 11.6197 6.92855 11.6542 6.83803 11.7023C6.93217 11.7325 6.98729 11.7536 7.04401 11.7679C8.00955 12.0111 8.97509 12.2583 9.94304 12.4907C10.077 12.5159 10.2154 12.5035 10.3425 12.455C11.2711 12.116 12.1867 11.7397 13.1221 11.4218C17.5266 9.92368 22.071 9.03157 26.6799 8.45538C28.5796 8.21695 30.4869 8.01826 32.3967 7.89468C34.9968 7.72738 37.6021 7.61651 40.2071 7.54498C42.7935 7.47306 45.3791 7.58472 47.9632 7.71586C50.8747 7.86289 53.7793 8.09615 56.6651 8.50107C58.6388 8.77791 60.605 9.10588 62.5637 9.48497C66.0445 10.1605 69.4432 11.1249 72.7196 12.4824C72.8114 12.5164 72.9112 12.5233 73.0068 12.5022C73.5488 12.383 74.0899 12.2583 74.6281 12.1231C75.1347 11.9984 75.6335 11.8581 76.1855 11.7079L76.1827 11.7075ZM9.05998 13.0037C8.02766 12.7431 6.98528 12.4776 5.94048 12.2213C5.86807 12.2038 5.76669 12.236 5.6991 12.2773C4.95724 12.7258 4.21793 13.1786 3.48117 13.6356C2.94811 13.9674 2.52408 14.4148 2.12499 14.9072C2.59621 15.3428 3.11865 15.721 3.68112 16.0337C3.72618 16.0592 3.83239 16.0222 3.8871 15.9829C4.99753 15.1848 6.16636 14.4691 7.38396 13.8418C7.9488 13.5517 8.51847 13.2755 9.06279 13.0041L9.05998 13.0037ZM73.912 13.0002C73.978 13.0319 74.0364 13.0617 74.0959 13.0892C75.6798 13.8235 77.2029 14.6632 78.642 15.6498C78.8162 15.7691 78.9968 15.9678 79.1742 15.9678C79.3653 15.9678 79.5637 15.7862 79.7451 15.6634C80.118 15.4114 80.4821 15.1468 80.8989 14.8511C80.493 14.4776 80.1583 14.0981 79.7552 13.8136C79.0652 13.326 78.3266 12.9064 77.6201 12.441C77.3127 12.2384 77.0303 12.2153 76.6691 12.3175C75.7655 12.5734 74.8438 12.7744 73.9141 13.0006L73.912 13.0002ZM4.59798 11.8203L2.10769 10.6282C0.935367 11.7409 0.675876 13.0522 1.47204 14.1211C2.40942 13.2008 3.51134 12.5034 4.59999 11.8207L4.59798 11.8203ZM78.4034 11.8203C79.4824 12.4959 80.5731 13.1885 81.5012 14.0929C81.8271 13.754 82.0395 13.0598 81.9811 12.5722C81.8834 11.758 81.4223 11.1488 80.9013 10.625L78.4034 11.8203ZM1.66837 15.5366C1.10514 16.4474 0.838409 17.4066 1.10071 18.4315L3.02174 16.5769L1.66837 15.5366ZM81.8371 18.358C82.0893 17.3602 81.8625 16.4255 81.323 15.5465L79.9772 16.5797L81.8371 18.358Z" fill="white"/>
<mask id="path-2-outside-1_1504_758" maskUnits="userSpaceOnUse" x="15.0894" y="4.71289" width="53" height="22" fill="black">
<rect fill="white" x="15.0894" y="4.71289" width="53" height="22"/>
<path d="M21.2506 24.8879L21.0731 20.7407H19.8701L19.6926 24.8879H17.0894L18.4699 6.82756H22.5325L23.8736 24.8879H21.2506ZM19.9687 18.6767H20.9943L20.6984 11.7392L20.5604 9.25472H20.3829L20.2645 11.7392L19.9687 18.6767Z"/>
<path d="M30.6539 24.8879H28.0703L27.5773 18.0651H26.887V24.8879H24.3429V6.82756H27.597C28.5305 6.82756 29.2405 7.0569 29.727 7.51557C30.2134 7.96151 30.4567 8.6113 30.4567 9.46495V15.122C30.4567 15.8864 30.2463 16.4916 29.8256 16.9375L30.6539 24.8879ZM26.9068 16.0775H27.2026C27.6496 16.0775 27.8731 15.7909 27.8731 15.2175V9.77073C27.8731 9.22287 27.6496 8.94894 27.2026 8.94894H26.9068V16.0775Z"/>
<path d="M33.9167 22.7666H36.165V24.8879H31.3726V6.82756H36.1256V8.94894H33.9167V14.5295H36.0072V16.5935H33.9167V22.7666Z"/>
<path d="M41.0018 17.014L40.7454 11.7201V6.82756H43.112V24.8879H40.6862L39.2071 14.1855H39.0493L39.286 19.594V24.8879H36.9194V6.82756H39.4437L40.8637 17.014H41.0018Z"/>
<path d="M47.7517 24.8879L47.5742 20.7407H46.3711L46.1936 24.8879H43.5904L44.9709 6.82756H49.0336L50.3746 24.8879H47.7517ZM46.4698 18.6767H47.4953L47.1995 11.7392L47.0614 9.25472H46.8839L46.7656 11.7392L46.4698 18.6767Z"/>
<path d="M56.7999 6.82756H59.4032L58.0227 24.8879H54.1769L52.7964 6.82756H55.4194L55.8927 18.0269L56.0505 21.467H56.228L56.3858 18.0269L56.7999 6.82756Z"/>
<path d="M65.7946 13.3064H63.2702V9.25472C63.2702 8.89797 63.1058 8.7196 62.7771 8.7196C62.4484 8.7196 62.2841 8.87886 62.2841 9.19739V13.1535C62.2841 13.5739 62.4813 13.8924 62.8757 14.109L64.0393 14.5295C64.6704 14.7716 65.1372 15.0837 65.4396 15.466C65.7551 15.8354 65.9129 16.3897 65.9129 17.1287V22.2505C65.9129 23.1169 65.6368 23.7986 65.0846 24.2955C64.5455 24.7796 63.7961 25.0217 62.8363 25.0217C61.8502 25.0217 61.0942 24.8115 60.5683 24.391C60.0424 23.9578 59.7794 23.3463 59.7794 22.5563V17.5682H62.3038V22.4225C62.3038 22.792 62.4747 22.9768 62.8166 22.9768C63.1584 22.9768 63.3293 22.8048 63.3293 22.4608V17.6638C63.3293 17.1924 63.0993 16.8484 62.6391 16.6318L61.6333 16.2686C60.9627 16.052 60.4763 15.7399 60.1739 15.3322C59.8715 14.9117 59.7203 14.3256 59.7203 13.5739V9.33117C59.7203 8.52848 59.9832 7.89143 60.5091 7.42002C61.035 6.9486 61.8042 6.71289 62.8166 6.71289C63.7764 6.71289 64.5126 6.92949 65.0254 7.36268C65.5382 7.78313 65.7946 8.37559 65.7946 9.14005V13.3064Z"/>
</mask>
<path d="M21.2506 24.8879L21.0731 20.7407H19.8701L19.6926 24.8879H17.0894L18.4699 6.82756H22.5325L23.8736 24.8879H21.2506ZM19.9687 18.6767H20.9943L20.6984 11.7392L20.5604 9.25472H20.3829L20.2645 11.7392L19.9687 18.6767Z" fill="white"/>
<path d="M30.6539 24.8879H28.0703L27.5773 18.0651H26.887V24.8879H24.3429V6.82756H27.597C28.5305 6.82756 29.2405 7.0569 29.727 7.51557C30.2134 7.96151 30.4567 8.6113 30.4567 9.46495V15.122C30.4567 15.8864 30.2463 16.4916 29.8256 16.9375L30.6539 24.8879ZM26.9068 16.0775H27.2026C27.6496 16.0775 27.8731 15.7909 27.8731 15.2175V9.77073C27.8731 9.22287 27.6496 8.94894 27.2026 8.94894H26.9068V16.0775Z" fill="white"/>
<path d="M33.9167 22.7666H36.165V24.8879H31.3726V6.82756H36.1256V8.94894H33.9167V14.5295H36.0072V16.5935H33.9167V22.7666Z" fill="white"/>
<path d="M41.0018 17.014L40.7454 11.7201V6.82756H43.112V24.8879H40.6862L39.2071 14.1855H39.0493L39.286 19.594V24.8879H36.9194V6.82756H39.4437L40.8637 17.014H41.0018Z" fill="white"/>
<path d="M47.7517 24.8879L47.5742 20.7407H46.3711L46.1936 24.8879H43.5904L44.9709 6.82756H49.0336L50.3746 24.8879H47.7517ZM46.4698 18.6767H47.4953L47.1995 11.7392L47.0614 9.25472H46.8839L46.7656 11.7392L46.4698 18.6767Z" fill="white"/>
<path d="M56.7999 6.82756H59.4032L58.0227 24.8879H54.1769L52.7964 6.82756H55.4194L55.8927 18.0269L56.0505 21.467H56.228L56.3858 18.0269L56.7999 6.82756Z" fill="white"/>
<path d="M65.7946 13.3064H63.2702V9.25472C63.2702 8.89797 63.1058 8.7196 62.7771 8.7196C62.4484 8.7196 62.2841 8.87886 62.2841 9.19739V13.1535C62.2841 13.5739 62.4813 13.8924 62.8757 14.109L64.0393 14.5295C64.6704 14.7716 65.1372 15.0837 65.4396 15.466C65.7551 15.8354 65.9129 16.3897 65.9129 17.1287V22.2505C65.9129 23.1169 65.6368 23.7986 65.0846 24.2955C64.5455 24.7796 63.7961 25.0217 62.8363 25.0217C61.8502 25.0217 61.0942 24.8115 60.5683 24.391C60.0424 23.9578 59.7794 23.3463 59.7794 22.5563V17.5682H62.3038V22.4225C62.3038 22.792 62.4747 22.9768 62.8166 22.9768C63.1584 22.9768 63.3293 22.8048 63.3293 22.4608V17.6638C63.3293 17.1924 63.0993 16.8484 62.6391 16.6318L61.6333 16.2686C60.9627 16.052 60.4763 15.7399 60.1739 15.3322C59.8715 14.9117 59.7203 14.3256 59.7203 13.5739V9.33117C59.7203 8.52848 59.9832 7.89143 60.5091 7.42002C61.035 6.9486 61.8042 6.71289 62.8166 6.71289C63.7764 6.71289 64.5126 6.92949 65.0254 7.36268C65.5382 7.78313 65.7946 8.37559 65.7946 9.14005V13.3064Z" fill="white"/>
<path d="M21.2506 24.8879L21.0731 20.7407H19.8701L19.6926 24.8879H17.0894L18.4699 6.82756H22.5325L23.8736 24.8879H21.2506ZM19.9687 18.6767H20.9943L20.6984 11.7392L20.5604 9.25472H20.3829L20.2645 11.7392L19.9687 18.6767Z" stroke="#090E14" stroke-opacity="0.44" stroke-width="2.8" mask="url(#path-2-outside-1_1504_758)"/>
<path d="M30.6539 24.8879H28.0703L27.5773 18.0651H26.887V24.8879H24.3429V6.82756H27.597C28.5305 6.82756 29.2405 7.0569 29.727 7.51557C30.2134 7.96151 30.4567 8.6113 30.4567 9.46495V15.122C30.4567 15.8864 30.2463 16.4916 29.8256 16.9375L30.6539 24.8879ZM26.9068 16.0775H27.2026C27.6496 16.0775 27.8731 15.7909 27.8731 15.2175V9.77073C27.8731 9.22287 27.6496 8.94894 27.2026 8.94894H26.9068V16.0775Z" stroke="#090E14" stroke-opacity="0.44" stroke-width="2.8" mask="url(#path-2-outside-1_1504_758)"/>
<path d="M33.9167 22.7666H36.165V24.8879H31.3726V6.82756H36.1256V8.94894H33.9167V14.5295H36.0072V16.5935H33.9167V22.7666Z" stroke="#090E14" stroke-opacity="0.44" stroke-width="2.8" mask="url(#path-2-outside-1_1504_758)"/>
<path d="M41.0018 17.014L40.7454 11.7201V6.82756H43.112V24.8879H40.6862L39.2071 14.1855H39.0493L39.286 19.594V24.8879H36.9194V6.82756H39.4437L40.8637 17.014H41.0018Z" stroke="#090E14" stroke-opacity="0.44" stroke-width="2.8" mask="url(#path-2-outside-1_1504_758)"/>
<path d="M47.7517 24.8879L47.5742 20.7407H46.3711L46.1936 24.8879H43.5904L44.9709 6.82756H49.0336L50.3746 24.8879H47.7517ZM46.4698 18.6767H47.4953L47.1995 11.7392L47.0614 9.25472H46.8839L46.7656 11.7392L46.4698 18.6767Z" stroke="#090E14" stroke-opacity="0.44" stroke-width="2.8" mask="url(#path-2-outside-1_1504_758)"/>
<path d="M56.7999 6.82756H59.4032L58.0227 24.8879H54.1769L52.7964 6.82756H55.4194L55.8927 18.0269L56.0505 21.467H56.228L56.3858 18.0269L56.7999 6.82756Z" stroke="#090E14" stroke-opacity="0.44" stroke-width="2.8" mask="url(#path-2-outside-1_1504_758)"/>
<path d="M65.7946 13.3064H63.2702V9.25472C63.2702 8.89797 63.1058 8.7196 62.7771 8.7196C62.4484 8.7196 62.2841 8.87886 62.2841 9.19739V13.1535C62.2841 13.5739 62.4813 13.8924 62.8757 14.109L64.0393 14.5295C64.6704 14.7716 65.1372 15.0837 65.4396 15.466C65.7551 15.8354 65.9129 16.3897 65.9129 17.1287V22.2505C65.9129 23.1169 65.6368 23.7986 65.0846 24.2955C64.5455 24.7796 63.7961 25.0217 62.8363 25.0217C61.8502 25.0217 61.0942 24.8115 60.5683 24.391C60.0424 23.9578 59.7794 23.3463 59.7794 22.5563V17.5682H62.3038V22.4225C62.3038 22.792 62.4747 22.9768 62.8166 22.9768C63.1584 22.9768 63.3293 22.8048 63.3293 22.4608V17.6638C63.3293 17.1924 63.0993 16.8484 62.6391 16.6318L61.6333 16.2686C60.9627 16.052 60.4763 15.7399 60.1739 15.3322C59.8715 14.9117 59.7203 14.3256 59.7203 13.5739V9.33117C59.7203 8.52848 59.9832 7.89143 60.5091 7.42002C61.035 6.9486 61.8042 6.71289 62.8166 6.71289C63.7764 6.71289 64.5126 6.92949 65.0254 7.36268C65.5382 7.78313 65.7946 8.37559 65.7946 9.14005V13.3064Z" stroke="#090E14" stroke-opacity="0.44" stroke-width="2.8" mask="url(#path-2-outside-1_1504_758)"/>
</svg>
