<svg width="83" height="33" viewBox="0 0 83 33" fill="none" xmlns="http://www.w3.org/2000/svg">
<path d="M65.4314 32.3456C65.4814 32.3153 65.5346 32.2902 65.5899 32.2709C69.2509 31.3684 72.7952 30.1457 76.1304 28.3802C77.6189 27.5926 79.0226 26.6838 80.1981 25.469C80.9681 24.6742 81.5808 23.7845 81.823 22.6874C81.99 21.9324 81.9228 21.1901 81.6714 20.4545C81.6484 20.4629 81.6259 20.4641 81.6162 20.4756C80.4765 21.8366 79.0366 22.8114 77.4664 23.6148C75.3869 24.6814 73.181 25.413 70.9088 25.9411C69.4706 26.2753 68.0122 26.5193 66.5603 26.7998C66.4279 26.8208 66.294 26.8314 66.16 26.8316C66.0099 26.8404 65.8594 26.827 65.7134 26.7919L65.9492 26.7426C69.7486 25.9458 73.4289 24.8018 76.8948 23.047C78.0297 22.472 79.1179 21.8151 80.0549 20.952C80.4685 20.5706 80.8193 20.1223 81.1995 19.7055C81.2731 19.626 81.2691 19.5557 81.2127 19.4595C80.6866 18.5549 79.9608 17.7791 79.0893 17.1897C79.0596 17.1745 79.0268 17.166 78.9934 17.1648C78.9599 17.1636 78.9266 17.1698 78.8958 17.1829C76.5902 18.3524 74.114 18.9934 71.5827 19.4352C69.8962 19.7297 68.1948 19.9431 66.4979 20.176C66.1829 20.2189 65.8542 20.1819 65.5247 20.1605C65.5742 20.1454 65.6225 20.1267 65.6728 20.116C68.0347 19.6172 70.3939 19.1058 72.7176 18.4498C74.4877 17.9499 76.2366 17.3872 77.915 16.6294C77.9814 16.5996 78.0474 16.5678 78.1423 16.5233C78.0285 16.4478 77.9331 16.3826 77.8357 16.3202C75.9449 15.1122 73.9161 14.1744 71.8132 13.3904C71.7247 13.3621 71.6309 13.354 71.5388 13.3669C69.9618 13.5446 68.3863 13.7313 66.8089 13.9026C66.4235 13.9443 66.0332 13.9376 65.645 13.9515C65.6284 13.952 65.612 13.9487 65.597 13.9418C65.5819 13.9349 65.5688 13.9246 65.5585 13.9117L70.6529 13.0184V12.9692C70.2168 12.8261 69.7823 12.6775 69.3442 12.5408C66.2561 11.5775 63.1085 10.8651 59.9129 10.3528C58.0623 10.0561 56.2069 9.79638 54.3466 9.57358C52.8713 9.39476 51.3888 9.26284 49.9059 9.15952C47.9081 9.02044 45.907 8.92427 43.9067 8.81857C41.9567 8.71525 40.0071 8.76334 38.0592 8.85831C36.5135 8.9346 34.9666 9.00573 33.4242 9.12693C31.6818 9.26443 29.9422 9.43967 28.2046 9.62683C25.8881 9.87599 23.5861 10.2312 21.2974 10.6644C18.3042 11.231 15.3505 11.9487 12.4659 12.9294C12.4187 12.9436 12.3787 12.975 12.3541 13.0172L17.4465 13.9101V13.9479C17.2119 13.9479 16.9758 13.9658 16.7433 13.9447C15.7628 13.8561 14.7828 13.7639 13.804 13.6566C13.0123 13.57 12.2233 13.4579 11.4304 13.363C11.3512 13.3526 11.2706 13.3605 11.195 13.386C8.96624 14.2205 6.82113 15.2191 4.83614 16.534C4.80879 16.5523 4.78304 16.5737 4.71908 16.6202C8.7325 18.4609 12.9608 19.4511 17.2683 20.1736C17.2683 20.1899 17.2646 20.2062 17.263 20.222C16.804 20.1823 16.3418 20.1692 15.8871 20.1028C14.2453 19.8644 12.5991 19.6427 10.9665 19.3502C8.92198 18.9838 6.9209 18.447 5.01235 17.6101C4.7066 17.4758 4.4089 17.32 4.10556 17.1841C4.05124 17.1595 3.9563 17.1559 3.91204 17.1869C3.03823 17.8048 2.27867 18.5336 1.69291 19.4309C1.60923 19.5592 1.6213 19.6443 1.70418 19.7623C2.35551 20.6929 3.21323 21.4062 4.15262 22.0305C5.90306 23.194 7.81805 24.0281 9.78936 24.7438C12.1171 25.589 14.4964 26.2625 16.9311 26.7251C17.0406 26.7458 17.15 26.7648 17.259 26.7843L17.253 26.8483C16.9388 26.8264 16.6218 26.8244 16.3112 26.7791C14.3507 26.4926 12.3979 26.1652 10.4777 25.6705C8.47663 25.1539 6.53228 24.4926 4.73396 23.463C3.3806 22.6882 2.18333 21.7361 1.25802 20.4752C1.24675 20.4593 1.23951 20.4406 1.21256 20.3901C1.03641 20.8106 0.939478 21.2593 0.926517 21.7142C0.895539 22.7649 1.27894 23.6812 1.88481 24.5197C2.63834 25.5632 3.61192 26.379 4.66637 27.1062C6.62199 28.4545 8.76026 29.4575 10.9689 30.3206C12.9366 31.0899 14.9401 31.7535 17.01 32.2073C17.0775 32.2176 17.1416 32.2431 17.1975 32.282C17.1508 32.282 17.1041 32.2844 17.0575 32.282C14.7917 32.1457 12.6289 31.5417 10.4922 30.8403C8.23927 30.1008 6.09336 29.1376 4.15061 27.771C2.87892 26.8765 1.75728 25.8326 0.934964 24.5066C0.484379 23.7805 0.116668 23.0192 0.0237348 22.1557C0.0187307 22.1364 0.0107241 22.1181 0 22.1012V21.1873C0.102991 20.5745 0.261904 19.9793 0.549152 19.4221C0.562613 19.3794 0.558418 19.3331 0.537483 19.2934C0.284029 18.784 0.0844847 18.2574 0 17.6932V16.8984C0.100979 16.5455 0.168969 16.1788 0.311789 15.8434C0.478747 15.452 0.711281 15.0884 0.926114 14.691C0.523806 14.1482 0.140809 13.5569 0.000805402 12.8472V12.2114C0.125119 11.655 0.354034 11.1452 0.732204 10.7105C0.933358 10.4804 1.14899 10.2642 1.36544 10.0349C0.791745 9.51835 0.238972 8.97434 0.000805402 8.20184V7.68525C0.246213 6.81103 0.891515 6.27537 1.63015 5.8315C2.69868 5.18974 3.86015 4.74229 5.02885 4.3179C7.62937 3.37294 10.3067 2.69541 13.03 2.2138C15.2357 1.82331 17.4506 1.48302 19.6749 1.19294C21.606 0.943786 23.5499 0.783635 25.491 0.61793C29.3041 0.29248 33.1264 0.146648 36.952 0.0572388C40.2553 -0.0198521 43.5591 -0.0246206 46.8616 0.0771075C49.4933 0.158437 52.1237 0.274604 54.7529 0.425606C56.7918 0.544819 58.8287 0.713704 60.8612 0.912391C64.3335 1.25254 67.7865 1.73257 71.2005 2.45143C74.0907 3.05981 76.9366 3.81879 79.6554 4.98589C80.3679 5.29187 81.0759 5.60738 81.7112 6.0588C82.0837 6.32305 82.4261 6.6183 82.6795 7.00058C83.0818 7.60896 83.1261 8.23681 82.6936 8.83645C82.416 9.22151 82.0713 9.55927 81.755 9.91731C81.7148 9.96102 81.6685 9.99678 81.6247 10.0365C83.2939 11.5442 83.4319 12.989 82.0531 14.72C82.1936 14.9453 82.3452 15.1631 82.4711 15.3955C83.151 16.6477 83.1877 17.9069 82.4836 19.1634C82.4144 19.287 82.414 19.3796 82.4768 19.5072C83.2488 21.084 83.1237 22.6262 82.2921 24.1461C81.5313 25.5369 80.4479 26.6389 79.1762 27.5731C77.4137 28.8681 75.4497 29.7813 73.3931 30.5105C70.9603 31.3728 68.4652 31.9863 65.8989 32.3106C65.8602 32.3184 65.8223 32.3293 65.7854 32.3432L65.4314 32.3456ZM81.0812 9.58392C81.1681 9.50762 81.2823 9.41662 81.3861 9.31489C82.165 8.54796 82.1976 7.78778 81.4718 6.97276C81.0293 6.47525 80.501 6.06556 79.8899 5.80289C78.9405 5.39439 77.9802 5.00178 77.0002 4.67315C74.1663 3.72263 71.2419 3.1357 68.2962 2.64653C65.4889 2.1816 62.6669 1.82834 59.8301 1.58674C57.2955 1.36738 54.7561 1.16313 52.2148 1.03836C49.0096 0.881393 45.8008 0.76218 42.5924 0.720456C40.0614 0.688269 37.5269 0.762973 34.9968 0.857151C32.2724 0.958879 29.5501 1.10458 26.8299 1.29426C24.6663 1.44288 22.5063 1.65826 20.3491 1.88397C17.1854 2.21459 14.0434 2.69065 10.9351 3.35704C8.69629 3.83707 6.48682 4.41803 4.35539 5.26007C3.57813 5.56724 2.80248 5.87759 2.14269 6.40968C1.79872 6.68784 1.46802 6.97634 1.24233 7.361C1.05163 7.68526 0.954274 8.02939 1.05002 8.4057C1.17595 8.90123 1.51348 9.24615 1.89929 9.55292C1.93027 9.57716 2.01999 9.55292 2.06948 9.5259C2.47862 9.28747 2.87691 9.02958 3.29128 8.80029C5.61019 7.51836 8.08277 6.60598 10.6242 5.86647C14.6094 4.70732 18.6848 3.98609 22.8016 3.49255C24.8884 3.2426 26.982 3.02603 29.0776 2.88894C32.0048 2.69767 34.9354 2.5558 37.8693 2.46335C42.1643 2.32665 46.4589 2.4256 50.7475 2.6835C53.0069 2.8194 55.2634 3.00139 57.5184 3.1969C59.7733 3.39241 62.0142 3.70316 64.2474 4.07113C66.8435 4.49672 69.4154 5.02999 71.9468 5.74407C74.3904 6.43352 76.7777 7.27159 79.0322 8.44226C79.7194 8.7983 80.3848 9.19568 81.0824 9.58392H81.0812ZM80.357 10.118C80.1559 9.9789 80.0191 9.87321 79.8742 9.78618C78.3415 8.87659 76.7085 8.18158 75.024 7.60062C70.5266 6.05085 65.8687 5.21636 61.1653 4.59606C59.5858 4.38783 58.0004 4.22054 56.4145 4.06834C54.8286 3.91615 53.2382 3.79018 51.6479 3.6817C50.2782 3.58739 48.9067 3.51533 47.5335 3.46553C45.5047 3.39281 43.4742 3.29466 41.445 3.30658C37.5847 3.32592 33.7296 3.48818 29.8798 3.79336C27.9487 3.94715 26.0177 4.09576 24.0991 4.32823C21.8079 4.60639 19.5224 4.94177 17.2433 5.30656C14.7656 5.70557 12.317 6.26456 9.91327 6.97991C7.78104 7.61253 5.6995 8.37073 3.74428 9.43768C3.38864 9.6316 3.04548 9.84777 2.67334 10.0675C2.74213 10.1148 2.76708 10.1359 2.79403 10.1514C3.62641 10.6123 4.50987 10.9561 5.41104 11.2565C5.48467 11.2811 5.59329 11.2497 5.66973 11.212C6.2752 10.9155 6.86861 10.5944 7.48012 10.3123C11.5434 8.44186 15.8324 7.30337 20.2224 6.51021C22.0847 6.17364 23.9615 5.90422 25.8394 5.66302C27.4986 5.45002 29.1673 5.29861 30.8349 5.15794C32.1963 5.04297 33.5601 4.95926 34.9264 4.90681C37.156 4.82495 39.3872 4.73633 41.6176 4.73434C45.3908 4.73077 49.1592 4.89846 52.92 5.21715C55.3294 5.4214 57.73 5.69401 60.1213 6.05681C62.6559 6.44266 65.1695 6.93103 67.6509 7.57319C70.7793 8.38304 73.8235 9.41861 76.7061 10.8845C76.9772 11.0224 77.2508 11.2422 77.5304 11.2537C77.8213 11.2652 78.1266 11.0832 78.4155 10.962C79.0491 10.6958 79.6771 10.4156 80.3598 10.118H80.357ZM76.1827 11.7075C76.0656 11.6487 75.9984 11.6129 75.9296 11.5807C73.556 10.4709 71.079 9.65187 68.5481 8.9803C65.3956 8.14383 62.1916 7.54975 58.9635 7.10151C57.4854 6.89607 56.0013 6.72758 54.5168 6.57101C53.2048 6.43233 51.8893 6.32106 50.5741 6.22092C49.3853 6.13072 48.1949 6.05283 47.0041 6.00396C45.1362 5.92726 43.2666 5.82038 41.3983 5.8319C37.887 5.85336 34.3804 6.04409 30.8812 6.34053C28.098 6.57578 25.3249 6.8909 22.5651 7.31967C19.9118 7.73215 17.2799 8.24357 14.6826 8.9203C12.064 9.60299 9.50131 10.443 7.04924 11.5907C6.98729 11.6197 6.92855 11.6542 6.83803 11.7023C6.93217 11.7325 6.98729 11.7536 7.04401 11.7679C8.00955 12.0111 8.97509 12.2582 9.94304 12.4907C10.077 12.5159 10.2154 12.5035 10.3425 12.455C11.2711 12.116 12.1867 11.7397 13.1221 11.4218C17.5266 9.92367 22.071 9.03157 26.6799 8.45537C28.5796 8.21695 30.4869 8.01826 32.3967 7.89467C34.9968 7.72738 37.6021 7.61651 40.2071 7.54498C42.7935 7.47305 45.3791 7.58472 47.9632 7.71585C50.8747 7.86288 53.7793 8.09614 56.6651 8.50107C58.6388 8.77791 60.605 9.10587 62.5637 9.48497C66.0445 10.1605 69.4432 11.1249 72.7196 12.4824C72.8114 12.5163 72.9112 12.5232 73.0068 12.5022C73.5488 12.383 74.0899 12.2582 74.6281 12.1231C75.1347 11.9984 75.6335 11.8581 76.1855 11.7079L76.1827 11.7075ZM9.05998 13.0037C8.02766 12.7431 6.98528 12.4776 5.94048 12.2213C5.86807 12.2038 5.76669 12.236 5.6991 12.2773C4.95724 12.7258 4.21793 13.1786 3.48117 13.6356C2.94811 13.9674 2.52408 14.4148 2.12499 14.9072C2.59621 15.3428 3.11865 15.721 3.68112 16.0337C3.72618 16.0591 3.83239 16.0222 3.8871 15.9829C4.99753 15.1848 6.16636 14.4691 7.38396 13.8418C7.9488 13.5517 8.51847 13.2755 9.06279 13.0041L9.05998 13.0037ZM73.912 13.0001C73.978 13.0319 74.0364 13.0617 74.0959 13.0892C75.6798 13.8235 77.2029 14.6632 78.642 15.6498C78.8162 15.7691 78.9968 15.9677 79.1742 15.9677C79.3653 15.9677 79.5637 15.7861 79.7451 15.6634C80.118 15.4114 80.4821 15.1468 80.8989 14.8511C80.493 14.4776 80.1583 14.0981 79.7552 13.8136C79.0652 13.326 78.3266 12.9064 77.6201 12.441C77.3128 12.2384 77.0303 12.2153 76.6691 12.3175C75.7655 12.5734 74.8438 12.7744 73.9141 13.0005L73.912 13.0001ZM4.59798 11.8203L2.10769 10.6282C0.935367 11.7409 0.675876 13.0522 1.47204 14.1211C2.40942 13.2008 3.51134 12.5034 4.59999 11.8207L4.59798 11.8203ZM78.4034 11.8203C79.4824 12.4959 80.5731 13.1885 81.5012 14.0929C81.8271 13.754 82.0395 13.0598 81.9811 12.5722C81.8834 11.758 81.4223 11.1488 80.9013 10.625L78.4034 11.8203ZM1.66837 15.5366C1.10514 16.4474 0.838409 17.4066 1.10071 18.4315L3.02174 16.5769L1.66837 15.5366ZM81.8371 18.358C82.0893 17.3602 81.8624 16.4255 81.323 15.5465L79.9772 16.5797L81.8371 18.358Z" fill="#75797A"/>
<path d="M27.4153 17.5055C28.6393 17.7906 29.2513 18.629 29.2513 20.0207V26.4595C29.2513 27.432 28.9327 28.1949 28.2956 28.7483C27.6752 29.3016 26.8116 29.5783 25.705 29.5783H21.3789V5.81009H25.8056C26.8116 5.81009 27.6165 6.0616 28.2201 6.56463C28.8238 7.05089 29.1256 7.76352 29.1256 8.70251V14.9401C29.1256 16.2647 28.5555 17.078 27.4153 17.3798V17.5055ZM25.2019 8.47615H24.6235V16.2983H25.2019C25.6714 16.2983 25.9062 16.0384 25.9062 15.5186V9.30615C25.9062 8.75281 25.6714 8.47615 25.2019 8.47615ZM25.1768 18.6877H24.6235V26.9122H25.1516C25.705 26.9122 25.9816 26.602 25.9816 25.9816V19.5931C25.9816 18.9895 25.7134 18.6877 25.1768 18.6877Z" fill="#D0D8DA"/>
<path d="M33.4658 26.7865H36.3331V29.5783H30.2212V5.81009H36.2828V8.6019H33.4658V15.9461H36.1318V18.6625H33.4658V26.7865Z" fill="#D0D8DA"/>
<path d="M40.5396 26.7865H43.4069V29.5783H37.2951V5.81009H43.3566V8.6019H40.5396V15.9461H43.2057V18.6625H40.5396V26.7865Z" fill="#D0D8DA"/>
<path d="M44.2684 9.75887C44.2684 7.02574 45.5846 5.65918 48.2171 5.65918C50.8497 5.65918 52.1659 7.02574 52.1659 9.75887V25.6295C52.1659 28.3794 50.8413 29.7543 48.192 29.7543C45.5762 29.7543 44.2684 28.3794 44.2684 25.6295V9.75887ZM48.8711 26.2834V9.13009C48.8711 8.61029 48.6531 8.35039 48.2171 8.35039C47.7812 8.35039 47.5632 8.61029 47.5632 9.13009V26.2834C47.5632 26.5182 47.6219 26.711 47.7393 26.8619C47.8734 26.996 48.0327 27.0631 48.2171 27.0631C48.6531 27.0631 48.8711 26.8032 48.8711 26.2834Z" fill="#D0D8DA"/>
<path d="M60.955 14.3365H57.7356V9.00433C57.7356 8.53483 57.526 8.30009 57.1068 8.30009C56.6876 8.30009 56.478 8.50968 56.478 8.92887V14.1352C56.478 14.6886 56.7296 15.1078 57.2326 15.3928L58.7165 15.9461C59.5214 16.2647 60.1166 16.6755 60.5023 17.1786C60.9047 17.6648 61.1059 18.3942 61.1059 19.3668V26.1074C61.1059 27.2476 60.7538 28.1446 60.0496 28.7986C59.3621 29.4357 58.4063 29.7543 57.1823 29.7543C55.9247 29.7543 54.9606 29.4777 54.2899 28.9243C53.6192 28.3542 53.2838 27.5494 53.2838 26.5098V19.9452H56.5032V26.3337C56.5032 26.82 56.7212 27.0631 57.1571 27.0631C57.5931 27.0631 57.8111 26.8368 57.8111 26.384V20.071C57.8111 19.4506 57.5176 18.9979 56.9308 18.7128L55.648 18.2349C54.7929 17.9499 54.1725 17.5391 53.7868 17.0025C53.4012 16.4492 53.2083 15.6779 53.2083 14.6886V9.10494C53.2083 8.04857 53.5437 7.21019 54.2144 6.58978C54.8851 5.96938 55.866 5.65918 57.1571 5.65918C58.3812 5.65918 59.3202 5.94423 59.9741 6.51433C60.628 7.06766 60.955 7.84736 60.955 8.85342V14.3365Z" fill="#D0D8DA"/>
</svg>
