<svg width="40" height="40" viewBox="0 0 40 40" fill="none" xmlns="http://www.w3.org/2000/svg">
<path d="M38 40H8.91353C8.3831 40 7.87439 39.7893 7.49932 39.4142L0.585787 32.5007C0.210714 32.1256 0 31.6169 0 31.0865V2C0 0.89543 0.895428 0 2 0H31.0865C31.6169 0 32.1256 0.210713 32.5007 0.585786L39.4142 7.49932C39.7893 7.87439 40 8.3831 40 8.91353V38C40 39.1046 39.1046 40 38 40Z" fill="white"/>
<rect width="24" height="24" transform="translate(19.9707 3) rotate(45)" fill="white"/>
<path d="M12.8996 19.9706H27.0418M27.0418 19.9706L21.3849 14.3137M27.0418 19.9706L21.3849 25.6274" stroke="#060707" stroke-width="1.5" stroke-linecap="square"/>
</svg>
