<svg width="24" height="24" viewBox="0 0 24 24" fill="none" xmlns="http://www.w3.org/2000/svg">
<path d="M12 16.7025C11.925 16.7025 11.8575 16.6875 11.7825 16.6725L10.6575 16.335L12 18.0825L13.3425 16.335L12.2175 16.6725C12.1425 16.6875 12.075 16.7025 12 16.7025Z" fill="#1EDBFF"/>
<path d="M9.795 14.5049L12 15.1649L14.205 14.5049L12 10.98L9.795 14.5049Z" fill="#1EDBFF"/>
<path d="M21.75 6.375H4.6875C3.75751 6.375 3 5.61749 3 4.6875C3 4.24146 3.17944 3.8064 3.49292 3.49292C3.81079 3.17505 4.23523 3 4.6875 3H16.875C17.2892 3 17.625 2.66455 17.625 2.25C17.625 1.83545 17.2892 1.5 16.875 1.5H4.6875C3.83459 1.5 3.03369 1.83105 2.43237 2.43237C1.83105 3.03296 1.5 3.83423 1.5 4.6875V18C1.5 20.4825 3.5175 22.5 6 22.5H21.75C22.1625 22.5 22.5 22.1625 22.5 21.75V7.125C22.5 6.71045 22.1642 6.375 21.75 6.375ZM15.9975 14.5425C16.1625 14.8125 16.1475 15.15 15.96 15.3975C15.8259 15.5723 12.7375 19.5815 12.5925 19.77C12.45 19.9575 12.2325 20.0625 12 20.0625C11.7675 20.0625 11.55 19.9575 11.4075 19.77C11.2625 19.5815 8.17415 15.5723 8.03998 15.3975C7.85248 15.15 7.83751 14.8125 8.00249 14.5425L8.30251 14.055L11.3625 9.16498C11.64 8.73001 12.36 8.73001 12.6375 9.16498L15.6975 14.055L15.9975 14.5425Z" fill="#1EDBFF"/>
<path d="M3.9375 4.6875C3.9375 5.10205 4.27332 5.4375 4.6875 5.4375H19.3125C19.7267 5.4375 20.0625 5.10205 20.0625 4.6875C20.0625 4.27295 19.7267 3.9375 19.3125 3.9375H4.6875C4.27332 3.9375 3.9375 4.27295 3.9375 4.6875Z" fill="#1EDBFF"/>
</svg>
