<svg width="41" height="41" viewBox="0 0 41 41" fill="none" xmlns="http://www.w3.org/2000/svg">
<path d="M27.5418 20.4706L13.3996 20.4706M13.3996 20.4706L19.0565 26.1274M13.3996 20.4706L19.0565 14.8137" stroke="white" stroke-width="1.5" stroke-linecap="square"/>
<path d="M38.5 40.5H9.41353C8.8831 40.5 8.37439 40.2893 7.99932 39.9142L1.08579 33.0007C0.710714 32.6256 0.5 32.1169 0.5 31.5865V2.5C0.5 1.39543 1.39543 0.5 2.5 0.5H31.5865C32.1169 0.5 32.6256 0.710713 33.0007 1.08579L39.9142 7.99932C40.2893 8.37439 40.5 8.8831 40.5 9.41353V38.5C40.5 39.6046 39.6046 40.5 38.5 40.5Z" stroke="#212D35"/>
</svg>
