<svg width="133" height="58" viewBox="0 0 133 58" fill="none" xmlns="http://www.w3.org/2000/svg">
<path d="M5 18.3278L5.00017 51C5.00018 52.1046 5.89561 53 7.00017 53H114.555C115.082 53 115.588 52.7919 115.962 52.4211L127.404 41.0901C127.785 40.7126 127.999 40.1979 127.997 39.6614L127.874 6.99246C127.87 5.89084 126.975 5 125.874 5H18.3156C17.7848 5 17.2758 5.21101 16.9006 5.58655L5.58503 16.9143C5.21042 17.2894 5 17.7977 5 18.3278Z" fill="#17252D"/>
<path d="M1 16.7426V54C1 55.6569 2.34314 57 4 57H116.246C117.047 57 117.814 56.6802 118.377 56.1117L131.001 43.373C131.555 42.8136 131.867 42.0586 131.87 41.271L131.99 4.00969C131.996 2.34906 130.651 1 128.99 1H16.7426C15.947 1 15.1839 1.31607 14.6213 1.87868L1.87868 14.6213C1.31607 15.1839 1 15.947 1 16.7426Z" stroke="#17252D"/>
<path d="M113 57H116.257C117.053 57 117.816 56.6839 118.379 56.1213L120.5 54" stroke="#1EDBFF"/>
<path d="M20 1L16.6098 1C15.8936 1 15.2011 1.25618 14.6574 1.72223L12 4" stroke="#1EDBFF"/>
<path d="M6 57H4C2.34315 57 1 55.6569 1 54V52" stroke="#1EDBFF"/>
<path d="M127 1L129 1C130.657 1 132 2.34315 132 4L132 6" stroke="#1EDBFF"/>
</svg>
